<svg width="450" height="450" viewBox="0 0 450 450" fill="none" xmlns="http://www.w3.org/2000/svg">
<path d="M225.002 384.872C221.238 384.872 218.129 381.763 218.129 378C218.129 374.236 221.238 371.127 225.002 371.127C228.765 371.127 231.874 374.236 231.874 378C231.874 381.763 228.765 384.872 225.002 384.872ZM225.002 371.945C221.647 371.945 218.947 374.645 218.947 378C218.947 381.354 221.647 384.054 225.002 384.054C228.356 384.054 231.056 381.354 231.056 378C231.056 374.645 228.356 371.945 225.002 371.945Z" fill="#464AE4"/>
<path d="M434.456 381.845C434.456 382.582 434.129 383.154 433.72 383.645C433.229 384.136 432.656 384.382 431.92 384.382H18.0832C16.6923 384.382 15.5469 383.236 15.5469 381.845C15.5469 381.109 15.8741 380.536 16.2832 380.045C16.7741 379.554 17.3469 379.309 18.0832 379.309H431.92C433.311 379.309 434.456 380.454 434.456 381.845Z" fill="#4A5B6B"/>
<path fill-rule="evenodd" clip-rule="evenodd" d="M313.781 104.972V361.963C313.781 371.536 305.927 379.391 296.354 379.391H172.154C162.581 379.391 154.727 371.536 154.727 361.963V104.972C154.727 95.3997 162.581 87.5452 172.154 87.5452H296.354C305.927 87.5452 313.781 95.3997 313.781 104.972Z" fill="#5B6F8B"/>
<path fill-rule="evenodd" clip-rule="evenodd" d="M307.152 104.972V361.963C307.152 367.936 302.242 372.763 296.352 372.763H172.152C166.179 372.763 161.352 367.854 161.352 361.963V104.972C161.352 98.9997 166.261 94.1724 172.152 94.1724H187.861C189.988 94.1724 191.788 95.5633 192.361 97.4451V99.2451C192.361 101.863 194.488 103.991 197.106 103.991H271.315C273.933 103.991 276.061 101.863 276.061 99.2451V97.4451C276.715 95.5633 278.515 94.1724 280.561 94.1724H296.27C302.324 94.0906 307.152 98.9997 307.152 104.972Z" fill="white"/>
<path fill-rule="evenodd" clip-rule="evenodd" d="M247.43 98.0182C248.412 98.0182 249.23 97.2001 249.23 96.2182C249.23 95.2364 248.412 94.4182 247.43 94.4182H213.476C212.494 94.4182 211.676 95.2364 211.676 96.2182C211.676 97.2001 212.494 98.0182 213.476 98.0182H247.43ZM253.485 94.3364C252.503 94.3364 251.685 95.1546 251.685 96.1364C251.685 97.1182 252.503 97.9364 253.485 97.9364H255.039C256.021 97.9364 256.839 97.1182 256.839 96.1364C256.839 95.1546 256.021 94.3364 255.039 94.3364H253.485Z" fill="white"/>
<path fill-rule="evenodd" clip-rule="evenodd" d="M336.774 142.282V306.245C336.774 311.4 332.601 315.573 327.447 315.573H179.765C174.61 315.573 170.438 311.4 170.438 306.245V142.282H336.774Z" fill="#F0F4F9"/>
<path fill-rule="evenodd" clip-rule="evenodd" d="M336.774 124.445V142.282H170.438V124.445C170.438 119.291 174.61 115.118 179.765 115.118H327.528C332.601 115.118 336.774 119.291 336.774 124.445Z" fill="#3D84F2"/>
<path fill-rule="evenodd" clip-rule="evenodd" d="M326.624 154.881V260.754C326.624 261.981 325.642 262.963 324.415 262.963H182.869C181.642 262.963 180.66 261.981 180.66 260.754V154.881C180.66 153.654 181.642 152.672 182.869 152.672H324.415C325.56 152.672 326.624 153.654 326.624 154.881Z" fill="white"/>
<path fill-rule="evenodd" clip-rule="evenodd" d="M200.543 307.064C193.18 307.064 187.125 301.009 187.125 293.646C187.125 286.282 193.18 280.228 200.543 280.228C207.907 280.228 213.961 286.282 213.961 293.646C213.961 301.009 207.907 307.064 200.543 307.064Z" fill="#3D84F2"/>
<path fill-rule="evenodd" clip-rule="evenodd" d="M202.674 291.683C203.247 291.11 203.574 290.374 203.574 289.637C203.574 288.819 203.247 288.083 202.674 287.51C202.183 287.019 201.365 286.61 200.629 286.61C199.811 286.61 199.074 286.937 198.502 287.51C197.929 288.083 197.602 288.819 197.602 289.637C197.602 290.455 197.929 291.192 198.502 291.764C199.074 292.255 199.729 292.583 200.547 292.583C201.365 292.583 202.102 292.255 202.674 291.683Z" fill="white"/>
<path fill-rule="evenodd" clip-rule="evenodd" d="M192.449 300.601C192.858 299.046 193.595 297.655 194.576 296.51C196.131 294.873 198.176 293.81 200.549 293.81C202.84 293.81 204.967 294.873 206.522 296.51C207.586 297.655 208.322 299.046 208.649 300.601H192.449Z" fill="white"/>
<path fill-rule="evenodd" clip-rule="evenodd" d="M221.494 281.945H318.448C318.939 281.945 319.348 282.354 319.348 282.845V283.827C319.348 284.318 318.939 284.727 318.448 284.727H221.494C221.003 284.727 220.594 284.318 220.594 283.827V282.845C220.594 282.354 221.003 281.945 221.494 281.945Z" fill="#5B6F8B"/>
<path fill-rule="evenodd" clip-rule="evenodd" d="M221.494 291.108H285.066C285.557 291.108 285.966 291.517 285.966 292.008V292.99C285.966 293.481 285.557 293.89 285.066 293.89H221.494C221.003 293.89 220.594 293.481 220.594 292.99V292.008C220.594 291.517 221.003 291.108 221.494 291.108Z" fill="#5B6F8B"/>
<path fill-rule="evenodd" clip-rule="evenodd" d="M292.998 291.109H300.934C301.425 291.109 301.834 291.518 301.834 292.009V292.991C301.834 293.482 301.425 293.891 300.934 293.891H292.998C292.507 293.891 292.098 293.482 292.098 292.991V292.009C292.098 291.518 292.507 291.109 292.998 291.109Z" fill="#5B6F8B"/>
<path fill-rule="evenodd" clip-rule="evenodd" d="M270.338 300.681H237.365C236.874 300.681 236.465 301.09 236.465 301.581V302.563C236.465 303.054 236.874 303.463 237.365 303.463H270.338C270.828 303.463 271.238 303.054 271.238 302.563V301.581C271.238 301.09 270.828 300.681 270.338 300.681Z" fill="#5B6F8B"/>
<path fill-rule="evenodd" clip-rule="evenodd" d="M229.43 300.681H221.494C221.003 300.681 220.594 301.09 220.594 301.581V302.563C220.594 303.054 221.003 303.463 221.494 303.463H229.43C229.921 303.463 230.33 303.054 230.33 302.563V301.581C230.248 301.09 229.921 300.681 229.43 300.681Z" fill="#5B6F8B"/>
<path d="M261.333 217.145L225.333 262.963H182.951C181.724 262.963 180.742 261.981 180.742 260.754V254.617L252.333 204.708C252.333 204.708 260.024 177.381 273.851 191.454C287.597 205.608 261.333 217.145 261.333 217.145Z" fill="#FFBE9D"/>
<path fill-rule="evenodd" clip-rule="evenodd" d="M258.962 168.79L251.926 172.717C250.453 173.536 249.881 175.417 250.699 176.89L271.399 214.117C272.217 215.59 274.099 216.163 275.571 215.345L282.608 211.417C284.081 210.599 284.653 208.717 283.835 207.245L263.135 170.017C262.317 168.463 260.435 167.972 258.962 168.79Z" fill="#292561"/>
<path fill-rule="evenodd" clip-rule="evenodd" d="M222.8 164.127C221.327 164.945 222.718 170.1 225.827 175.745C228.937 181.309 232.618 185.236 234.091 184.418L258.227 173.127L251.764 161.427L245.3 149.727L222.8 164.127Z" fill="#FA5814"/>
<path fill-rule="evenodd" clip-rule="evenodd" d="M228.119 154.964C225.992 156.109 227.956 163.718 232.537 171.982C237.119 180.164 242.519 185.891 244.647 184.746L279.992 168.137L270.501 150.955L261.01 133.773L228.119 154.964Z" fill="#F0F4F9"/>
<path fill-rule="evenodd" clip-rule="evenodd" d="M260.928 133.772C260.928 133.772 282.773 119.372 303.228 78.3816L330.064 117.9L349.373 161.591C303.718 157.254 279.991 168.136 279.991 168.136C277.864 169.282 271.891 162.573 266.655 153.082C261.337 143.591 258.8 134.918 260.928 133.772Z" fill="#FA5814"/>
<path fill-rule="evenodd" clip-rule="evenodd" d="M305.675 75.6817C298.312 79.7726 302.893 102.191 315.903 125.754C328.994 149.318 345.521 165.109 352.966 160.936C360.33 156.845 355.748 134.427 342.739 110.864C329.648 87.2999 313.039 71.5908 305.675 75.6817Z" fill="#F0F4F9"/>
<path fill-rule="evenodd" clip-rule="evenodd" d="M308.713 79.6087C302.904 82.8815 307.65 102.6 319.35 123.791C331.05 144.981 345.286 159.463 351.177 156.272C356.986 153 352.24 133.281 340.54 112.091C328.84 90.8996 314.522 76.4178 308.713 79.6087Z" fill="#292561"/>
<path fill-rule="evenodd" clip-rule="evenodd" d="M324.339 132.136L333.912 124.773L330.066 117.9L326.221 111.027L314.93 115.2C316.239 117.982 317.793 120.927 319.348 123.791C320.984 126.736 322.702 129.518 324.339 132.136Z" fill="white"/>
<path fill-rule="evenodd" clip-rule="evenodd" d="M326.133 111.027C324.906 111.681 325.642 115.281 327.77 119.127C329.897 122.972 332.597 125.508 333.742 124.854C334.969 124.199 334.233 120.599 332.106 116.754C329.979 112.908 327.36 110.372 326.133 111.027Z" fill="#FA5814"/>
<path d="M282.199 202.336C277.208 205.118 270.662 202.664 267.471 196.936C264.281 191.209 265.753 184.336 270.662 181.555C275.571 178.855 287.108 199.555 282.199 202.336Z" fill="#FFBE9D"/>
<path fill-rule="evenodd" clip-rule="evenodd" d="M384.965 123.381L400.674 121.09C400.919 121.09 401.165 121.09 401.328 121.254C401.492 121.418 401.574 121.581 401.574 121.827L401.656 132.218C401.656 132.463 401.574 132.708 401.41 132.872C401.247 133.036 401.001 133.118 400.756 133.036L380.137 129.927C379.81 129.845 379.565 129.599 379.483 129.272L378.828 125.836L366.147 124.608C365.737 124.608 365.41 124.281 365.41 123.872C365.41 123.463 365.656 123.136 365.983 123.054L383.165 118.636C383.41 118.554 383.574 118.636 383.819 118.718C383.983 118.881 384.147 119.045 384.147 119.208L384.965 123.381Z" fill="#FDD333"/>
<path fill-rule="evenodd" clip-rule="evenodd" d="M357.711 83.2907L362.947 68.3179C363.029 68.0725 363.029 67.827 362.866 67.6634C362.784 67.4179 362.538 67.3361 362.293 67.2543L352.147 65.2089C351.902 65.127 351.657 65.2089 351.493 65.3725C351.329 65.5361 351.166 65.6998 351.166 65.9452L350.266 86.727C350.266 87.0543 350.429 87.3816 350.757 87.5452L354.029 88.8543L352.802 101.536C352.802 101.945 353.047 102.272 353.375 102.436C353.784 102.518 354.193 102.354 354.357 102.027L361.966 86.0725C362.047 85.827 362.047 85.6634 361.966 85.418C361.884 85.1725 361.72 85.0089 361.475 84.927L357.711 83.2907Z" fill="#FDD333"/>
<path fill-rule="evenodd" clip-rule="evenodd" d="M386.928 90.9L408.528 75.8454C408.856 75.6 409.101 75.3545 409.101 75.1091C409.183 74.8636 409.101 74.6182 408.774 74.5363L398.056 69.3C397.81 69.1363 397.483 69.1363 397.074 69.3C396.665 69.3818 396.337 69.6272 396.092 69.8727L374.247 92.6182C373.837 93.0272 373.837 93.4363 374.083 93.6L376.947 95.9727L362.71 109.636C362.301 110.045 362.219 110.536 362.628 110.782C363.037 111.027 363.692 110.945 364.265 110.618L389.792 95.1545C390.119 94.9909 390.365 94.7454 390.447 94.4182C390.528 94.1727 390.528 93.9272 390.365 93.7636L386.928 90.9Z" fill="#FDD333"/>
<path d="M247.025 356.318C247.106 356.727 246.697 357.136 246.288 356.891L243.343 355.582C243.179 355.5 243.015 355.5 242.852 355.582C240.97 356.563 239.252 357.054 237.697 357.054C231.315 357.136 226.079 351.982 226.079 345.6C225.997 339.218 231.152 333.982 237.534 333.982C243.915 333.9 249.152 339.054 249.152 345.436C249.152 348.218 248.252 350.836 246.452 352.963C246.37 353.127 246.288 353.291 246.37 353.454L247.025 356.318Z" fill="#48DBC5"/>
<path d="M213.15 338.236C212.495 335.127 209.468 332.754 206.277 332.836C203.168 333 200.304 335.536 199.895 338.645C199.404 335.536 196.54 333 193.431 332.918C190.24 332.836 187.213 335.291 186.64 338.4C186.231 340.691 186.968 342.982 188.277 344.945C189.586 346.827 191.304 348.382 193.022 349.936C195.395 352.063 197.686 354.109 200.059 356.236C202.431 354.027 204.477 352.063 206.85 349.854C208.568 348.3 210.286 346.745 211.513 344.781C212.822 342.818 213.64 340.445 213.15 338.236Z" fill="#FA5814"/>
<path d="M278.192 357.954L274.51 346.745C274.428 346.499 274.183 346.254 273.937 346.172L262.728 342.49C261.992 342.245 261.992 341.181 262.728 340.854L286.946 332.672C287.601 332.427 288.255 333.081 288.01 333.736L279.828 357.954C279.501 358.69 278.437 358.69 278.192 357.954Z" fill="#A3CAED"/>
<path d="M204.385 119.782V162.818C204.385 164.454 202.994 165.845 201.358 165.845H91.2304C89.594 165.845 88.2031 164.454 88.2031 162.818V119.782C88.2031 118.145 89.594 116.754 91.2304 116.754H201.358C202.994 116.754 204.385 118.145 204.385 119.782Z" fill="#C8E1FF"/>
<path d="M201.929 121.009V161.591C201.929 162.573 201.111 163.391 200.129 163.391H92.4562C91.4744 163.391 90.6562 162.573 90.6562 161.591V121.009C90.6562 120.027 91.4744 119.209 92.4562 119.209H200.129C201.111 119.209 201.929 120.027 201.929 121.009Z" fill="white"/>
<path d="M90.8984 163.063H91.0621V163.309L90.8984 163.063Z" fill="#1A2E35"/>
<path d="M91.0621 119.454V119.7H90.8984L91.0621 119.454Z" fill="#1A2E35"/>
<path d="M96.2856 126.751L96.1211 155.714L132.367 155.92L132.531 126.957L96.2856 126.751Z" fill="#48DBC5"/>
<path d="M128.122 152.591L100.386 152.427C99.9768 152.427 99.7314 151.936 99.9768 151.691L109.468 138.763C109.631 138.518 110.04 138.518 110.286 138.763L115.931 146.7C116.095 146.945 116.504 146.945 116.668 146.782L120.268 142.854C120.431 142.609 120.759 142.609 121.004 142.854L128.45 151.773C128.695 152.182 128.531 152.591 128.122 152.591Z" fill="white"/>
<path d="M119.693 136.391C119.693 137.864 118.466 139.009 116.993 139.009C115.52 139.009 114.375 137.782 114.375 136.309C114.375 134.837 115.602 133.691 117.075 133.691C118.466 133.691 119.693 134.918 119.693 136.391Z" fill="white"/>
<path d="M197.267 134.264C197.267 134.837 196.858 135.327 196.286 135.327H139.013C138.44 135.327 137.949 134.918 137.949 134.346C137.949 133.773 138.44 133.282 139.013 133.282H196.286C196.776 133.282 197.267 133.691 197.267 134.264Z" fill="#F0F4F9"/>
<path d="M197.267 141.3C197.267 141.873 196.858 142.364 196.286 142.364H139.013C138.44 142.364 137.949 141.955 137.949 141.382C137.949 140.809 138.44 140.318 139.013 140.318H196.286C196.776 140.318 197.267 140.727 197.267 141.3Z" fill="#F0F4F9"/>
<path d="M178.449 148.336C178.449 148.909 178.04 149.4 177.467 149.4H139.013C138.44 149.4 137.949 148.991 137.949 148.418C137.949 147.846 138.44 147.355 139.013 147.355H177.467C178.04 147.273 178.449 147.764 178.449 148.336Z" fill="#F0F4F9"/>
<path fill-rule="evenodd" clip-rule="evenodd" d="M379.806 186.218C385.615 186.218 391.179 188.509 395.351 192.682C399.442 196.773 401.815 202.336 401.815 208.227C401.815 214.036 399.524 219.6 395.351 223.773C391.261 227.864 385.697 230.236 379.806 230.236C373.997 230.236 368.433 227.946 364.261 223.773C360.17 219.682 357.797 214.118 357.797 208.227C357.797 202.418 360.088 196.855 364.261 192.682C368.433 188.509 373.915 186.218 379.806 186.218ZM359.27 208.882C359.433 212.809 360.661 216.491 362.788 219.764C364.997 218.536 367.533 217.636 369.988 217.064L370.233 216.982C369.661 214.282 369.415 211.582 369.415 208.882H359.27ZM370.806 208.882C370.806 211.5 371.133 214.118 371.624 216.736C374.079 216.246 376.533 216.082 379.07 216V208.882H370.806ZM380.542 208.882V216C382.997 216 385.533 216.246 387.988 216.736C388.479 214.2 388.806 211.5 388.806 208.882H380.542ZM396.742 219.764C398.951 216.573 400.179 212.809 400.261 208.882H390.115C390.115 211.582 389.788 214.364 389.297 216.982L389.542 217.064C391.997 217.636 394.533 218.455 396.742 219.764ZM400.342 207.491C400.261 203.891 399.197 200.455 397.315 197.427C395.024 198.9 392.242 199.8 389.624 200.455H389.542C389.951 202.746 390.197 205.118 390.197 207.491H400.342ZM388.724 207.491C388.724 205.2 388.479 202.991 388.07 200.782C385.533 201.273 382.997 201.518 380.461 201.518V207.491H388.724ZM371.461 200.7C371.051 202.909 370.888 205.2 370.806 207.409H379.07V201.436C376.533 201.436 373.997 201.191 371.461 200.7ZM369.415 207.491C369.415 205.118 369.661 202.746 370.07 200.455H369.988C367.37 199.882 364.588 198.9 362.297 197.427C360.415 200.455 359.433 203.891 359.27 207.491H369.415ZM371.706 199.309C374.161 199.8 376.615 199.964 379.07 200.046V187.691C376.451 188.182 374.57 191.209 373.588 193.418C372.77 195.3 372.115 197.346 371.706 199.309ZM379.07 217.391C376.697 217.391 374.324 217.636 371.951 218.046C372.361 219.682 372.851 221.318 373.588 222.791C374.57 225 376.451 228.027 379.07 228.518V217.391ZM380.542 228.6C383.161 228.109 385.042 225.082 386.024 222.873C386.761 221.318 387.251 219.682 387.661 218.127C385.288 217.718 382.915 217.473 380.542 217.473V228.6ZM380.542 200.046C382.997 200.046 385.451 199.8 387.906 199.309C387.497 197.346 386.842 195.3 386.024 193.418C385.042 191.209 383.161 188.182 380.542 187.691V200.046ZM396.497 196.282C395.842 195.382 395.106 194.482 394.288 193.664C391.506 190.882 387.906 188.918 383.979 188.1C385.37 189.409 386.433 191.209 387.251 192.846C388.151 194.809 388.806 196.936 389.215 198.982C391.751 198.491 394.288 197.591 396.497 196.282ZM370.315 199.064C370.724 196.936 371.379 194.809 372.279 192.927C373.097 191.209 374.161 189.409 375.551 188.182C371.624 189 368.106 190.964 365.242 193.746C364.424 194.564 363.688 195.382 363.033 196.364C365.242 197.591 367.861 198.491 370.315 199.064ZM363.688 220.909C364.179 221.564 364.751 222.136 365.324 222.709C368.106 225.491 371.706 227.455 375.633 228.273C374.242 226.964 373.179 225.164 372.361 223.527C371.624 221.891 371.051 220.173 370.642 218.455L370.397 218.536C368.024 218.946 365.733 219.764 363.688 220.909ZM384.061 228.273C387.988 227.455 391.506 225.491 394.37 222.709C394.942 222.136 395.433 221.564 396.006 220.909C393.961 219.764 391.588 218.946 389.379 218.455L389.133 218.373C388.724 220.091 388.151 221.809 387.415 223.446C386.515 225.164 385.451 226.964 384.061 228.273Z" fill="#D9E9FD"/>
<path d="M93.1932 377.426C93.1932 377.835 93.1114 378.244 93.0296 378.49C92.9477 378.817 92.7023 379.063 92.375 379.063H70.2841C69.9568 379.063 69.7114 378.735 69.7932 378.49L70.6114 374.89L73.2296 363.926C73.3114 363.599 73.6387 363.354 73.9659 363.354L81.575 364.172C81.9023 364.172 82.1477 364.499 82.2296 364.826C82.3114 366.217 83.0477 369.817 88.5296 371.454C92.7841 372.599 93.3568 375.544 93.1932 377.426Z" fill="#292561"/>
<path d="M50.5674 378.082C50.3219 378.409 50.0765 378.737 49.9128 378.9C49.6674 379.146 49.3401 379.228 49.0128 378.982L30.1128 367.691C29.8674 367.528 29.7856 367.2 30.031 366.955L32.5674 364.337L40.4219 356.237C40.6674 355.991 41.0765 355.991 41.3219 356.155L47.3765 360.737C47.6219 360.982 47.7037 361.309 47.5401 361.637C46.8856 362.864 45.6583 366.382 49.5037 370.555C52.6947 373.746 51.631 376.528 50.5674 378.082Z" fill="#292561"/>
<path d="M82.8901 325.472L72.8264 338.154L61.2901 352.718L60.7991 353.372L51.7991 364.745L31.6719 351.245C33.4719 340.69 36.0901 337.663 40.7537 333.818C43.0446 331.936 45.8264 329.809 49.181 326.536C49.5082 326.209 49.8355 325.881 50.1628 325.554C52.5355 323.181 55.2355 320.154 58.2628 316.227C59.4901 314.672 59.8173 312.463 59.5719 309.845C59.5719 309.681 59.4901 309.436 59.4901 309.19C59.1628 306.572 58.4264 303.627 57.3628 300.272C57.281 300.109 57.281 299.863 57.1991 299.7C56.381 297.163 55.481 294.463 54.4991 291.681C54.4173 291.518 54.3355 291.272 54.3355 291.109C53.7628 289.39 53.1901 287.59 52.6173 285.872C52.2901 284.89 51.9628 283.827 51.7173 282.763C51.6355 282.6 51.6355 282.354 51.5537 282.19C50.6537 279.163 49.9173 276.054 49.4264 273.027C49.4264 272.863 49.3446 272.618 49.3446 272.454C48.8537 269.1 48.6082 265.745 48.8537 262.554C48.8537 262.39 48.8537 262.227 48.9355 262.063C48.9355 261.981 48.9355 261.981 48.9355 261.981C49.3446 257.563 50.8173 253.636 52.4537 250.527C52.9446 249.545 53.5173 248.645 54.0082 247.827C55.7264 245.045 57.1991 243.409 57.1991 243.409L57.5264 243.163L63.4173 239.4L66.8537 237.19L69.3082 235.636L70.1264 235.145L72.2537 233.754C72.2537 233.754 72.3355 234.327 72.4991 235.309C72.581 235.636 72.581 236.045 72.6628 236.454C72.6628 236.536 72.6628 236.618 72.6628 236.618C72.9082 238.009 73.2355 239.727 73.5628 241.69C73.8082 243.245 74.1355 244.963 74.381 246.6C75.4446 252.981 76.59 259.363 76.59 259.609C76.59 259.936 78.5537 280.309 80.2719 298.309C80.4355 299.7 80.5173 301.091 80.681 302.4C80.681 302.481 80.681 302.563 80.681 302.645C81.9082 315.081 82.8901 325.472 82.8901 325.472Z" fill="#FCC800"/>
<path d="M82.8926 325.472L72.829 338.154C70.5381 337.499 68.329 336.518 66.1199 335.454C62.7653 333.818 59.2472 331.281 59.0835 327.518C58.9199 323.999 61.7835 321.218 63.5835 318.19C67.2653 311.972 66.3653 304.036 64.2381 297.163C62.1108 290.454 59.0017 284.154 56.4653 277.608C53.929 271.063 51.9653 264.108 52.3744 257.154C52.6199 253.227 54.3381 247.008 57.3653 242.999C59.0017 240.954 60.9653 239.481 63.2562 239.236C64.729 239.072 66.2835 239.399 68.0017 240.381C69.8835 241.445 71.4381 243.081 72.829 244.718C73.3199 245.29 73.8108 245.863 74.3835 246.518C75.4472 252.899 76.5926 259.281 76.5926 259.527C76.5926 259.854 78.5562 280.227 80.2744 298.227C80.4381 299.618 80.5199 301.008 80.6835 302.318C80.6835 302.399 80.6835 302.481 80.6835 302.563C81.9108 315.081 82.8926 325.472 82.8926 325.472Z" fill="#E3B400"/>
<path d="M98.679 312.708C98.679 312.954 98.679 313.281 98.679 313.608C98.5153 316.881 98.1062 320.563 97.5335 324.572C97.4517 324.899 97.4517 325.145 97.3699 325.472C96.879 329.154 96.2244 332.918 95.5699 336.763C95.4881 337.008 95.4881 337.336 95.4062 337.581C94.7517 341.345 94.179 345.108 93.6881 348.627C93.6881 348.872 93.6062 349.118 93.6062 349.363C93.0335 353.208 92.6244 356.808 92.5426 359.917C92.5426 360.163 92.5426 360.327 92.5426 360.572C92.4608 363.518 92.6244 365.972 93.1971 367.69H66.6062C64.9699 365.727 63.8244 360.408 64.6426 352.472C64.6426 352.308 64.7244 352.063 64.7244 351.899C64.7244 351.736 64.8062 351.49 64.8062 351.327C65.1335 348.627 65.7062 345.681 66.5244 342.408C66.6062 342.245 66.6062 341.999 66.6881 341.836C67.179 339.872 67.8335 337.745 68.5699 335.536C68.8153 334.718 69.0608 333.899 69.3062 333.081C69.3881 332.918 69.3881 332.672 69.4699 332.508C70.1244 329.563 70.4517 326.372 70.3699 323.099C70.3699 322.854 70.3699 322.608 70.3699 322.363C70.2881 318.927 69.879 315.327 69.2244 311.645C69.1426 311.399 69.1426 311.154 69.0608 310.827C68.4062 307.063 67.4244 303.218 66.3608 299.454C66.279 299.208 66.1971 298.963 66.1971 298.718C65.1335 295.036 63.9881 291.354 62.8426 287.918C62.7608 287.754 62.679 287.508 62.679 287.345C61.6153 283.99 60.5517 280.799 59.5699 277.772C59.4881 277.608 59.4881 277.363 59.4062 277.199C58.4244 274.09 57.5244 271.145 56.8699 268.527C56.7881 268.281 56.7881 268.118 56.7062 267.872C56.5426 267.299 56.4608 266.808 56.379 266.318C55.8062 263.536 55.6426 260.918 55.8062 258.545C55.8062 258.299 55.8062 258.054 55.8881 257.727C56.8699 247.008 63.9881 241.527 63.9881 241.527H87.879C87.879 241.527 89.7608 251.345 91.8881 263.699C91.8881 263.863 91.9699 264.108 91.9699 264.272C92.4608 267.299 93.0335 270.408 93.6062 273.599C93.6062 273.763 93.6881 274.008 93.6881 274.254C94.179 277.281 94.7517 280.39 95.1608 283.418C95.1608 283.663 95.2426 283.827 95.2426 284.072C95.7335 287.181 96.2244 290.208 96.6335 293.072C96.6335 293.318 96.7153 293.563 96.7153 293.727C97.2062 296.918 97.6153 299.945 97.9426 302.645C97.9426 302.89 98.0244 303.136 98.0244 303.381C98.2699 305.345 98.4335 307.063 98.5153 308.536C98.679 309.845 98.679 311.236 98.679 312.708Z" fill="#FCC800"/>
<path d="M92.9568 354.273H64.4841C63.9932 361.146 65.0568 365.728 66.6114 367.528H93.1205C92.2205 364.664 92.3023 360 92.9568 354.273Z" fill="#E3B400"/>
<path d="M90.0874 249.054C90.1692 251.917 51.6328 252.817 51.6328 249.954C51.6328 249.954 51.7146 248.563 51.7964 246.19C51.8783 245.045 51.9601 243.735 52.0419 242.181C52.8601 228.763 55.2328 202.09 61.0419 197.426C65.7874 193.581 77.5692 193.826 84.851 205.445C85.5874 206.59 86.2419 207.817 86.8146 209.208C86.8965 209.454 87.0601 209.781 87.1419 210.026C87.9601 212.317 88.6146 215.672 89.1055 219.435C89.9237 226.226 90.1692 234.408 90.251 240.463C90.1692 245.617 90.0874 249.054 90.0874 249.054Z" fill="#48DBC5"/>
<path d="M90.0874 249.054C90.1692 251.918 51.6328 252.818 51.6328 249.954C51.6328 249.954 51.7146 248.563 51.7964 246.19C58.6692 248.727 66.1146 249.627 73.3964 248.645C76.6692 248.236 80.0237 247.336 82.4783 245.127C85.9965 242.1 87.0601 236.536 84.9328 232.445C82.151 227.045 74.951 224.427 73.3146 218.618C72.4146 215.509 73.6419 211.99 76.0146 209.781C77.2419 208.636 78.7146 208.145 80.1874 207.409C81.6601 206.672 83.2146 205.936 84.7692 205.527C85.5055 206.672 86.1601 207.9 86.7328 209.29C86.8146 209.536 86.9783 209.863 87.0601 210.109C87.8783 212.4 88.5328 215.754 89.0237 219.518C89.8419 226.309 90.0874 234.49 90.1692 240.545C90.1692 245.618 90.0874 249.054 90.0874 249.054Z" fill="#2AB19F"/>
<path d="M71.9276 206.508C70.9458 216.572 95.0004 227.618 102.364 226.799C108.991 226.063 124.619 194.727 124.619 194.727L117.337 189.408L99.9095 209.208C99.9095 209.29 73.6458 189.327 71.9276 206.508Z" fill="#48DBC5"/>
<path d="M86.4848 189.409C85.912 191.782 78.9575 190.391 78.6302 190.309L78.5484 193.827L78.2211 198.573C78.0575 200.618 68.7302 197.509 68.8938 195.464C68.8938 195.464 70.3666 189.655 68.2393 186.464C66.1939 183.273 61.7757 167.646 75.8484 165.027C89.512 162.491 87.0575 186.955 86.4848 189.409Z" fill="#FFD1C4"/>
<path d="M78.6328 190.308L78.551 193.827C76.9965 192.681 74.1328 187.036 74.1328 187.036C76.6692 189.654 78.6328 190.308 78.6328 190.308Z" fill="#F1C0BA"/>
<path d="M40.835 223.691C42.9623 225.818 45.9896 227.291 48.935 227.291C51.3896 227.291 55.1532 225.9 58.0987 224.018C61.2896 222.054 63.9078 219.272 66.4441 216.491C69.3078 213.218 72.1714 209.781 73.9714 205.854C75.8532 201.927 76.6714 197.345 75.4441 193.091C74.2987 189 71.3532 185.154 72.2532 181.063C72.4987 179.836 73.235 178.609 74.4623 178.363C75.6896 178.036 75.6078 179.754 76.5896 180.409C78.3896 181.636 79.6987 177.3 81.2532 175.745C83.135 173.863 85.7532 170.345 85.9987 167.727C86.3259 164.454 82.8896 163.063 79.9441 161.672C75.4441 159.545 69.8805 159.791 65.6259 162.491C61.3714 165.191 58.7532 170.1 58.7532 175.091C58.7532 178.036 59.735 180.981 59.5714 184.009C59.4078 188.263 57.1169 192.109 54.2532 195.3C51.3896 198.491 48.035 201.027 45.0078 204.054C41.9805 207.081 39.3623 210.6 38.4623 214.772C38.0532 217.881 38.6259 221.4 40.835 223.691Z" fill="#7C3A3A"/>
<path d="M91.9685 264.355C89.9231 265.091 87.8776 265.5 85.7504 265.5C82.9685 265.5 80.1867 264.846 77.5685 263.537C75.8504 262.637 74.1322 261.491 72.5776 260.346C71.514 259.609 70.3685 258.791 69.3049 258.055C65.9503 256.009 62.9231 255.273 60.3867 256.009C58.7504 256.418 57.2776 257.482 55.8867 258.546C55.8867 258.3 55.8867 258.055 55.9685 257.728C57.2776 256.746 58.6685 255.846 60.2231 255.437C62.9231 254.7 66.114 255.355 69.6322 257.564C70.7776 258.3 71.9231 259.037 72.9867 259.855C74.5413 261 76.1776 262.146 77.8958 262.964C82.314 265.173 87.3867 265.418 91.8867 263.7C91.8867 263.946 91.8867 264.109 91.9685 264.355Z" fill="#E3B400"/>
<path d="M93.6852 274.336C93.2761 274.581 92.7852 274.745 92.3761 274.909C90.2488 275.727 88.0397 276.218 85.7488 276.218C82.967 276.218 80.1852 275.563 77.567 274.254C75.8488 273.354 74.1306 272.209 72.5761 271.063C71.5124 270.327 70.367 269.509 69.3033 268.772C65.9488 266.727 62.9215 265.991 60.3852 266.727C59.1579 267.054 58.0124 267.709 56.9488 268.445C56.867 268.2 56.867 268.036 56.7852 267.791C57.8488 267.054 58.9942 266.4 60.2215 266.072C62.9215 265.336 66.1124 265.991 69.6306 268.2C70.7761 268.936 71.9215 269.672 72.9852 270.491C74.5397 271.636 76.1761 272.781 77.8942 273.681C82.3942 275.972 87.5488 276.136 92.2124 274.336C92.7033 274.172 93.1942 273.927 93.6852 273.681C93.6033 273.845 93.6033 274.091 93.6852 274.336Z" fill="#E3B400"/>
<path d="M95.2387 284.072C94.2569 284.645 93.3569 285.136 92.2933 285.545C90.166 286.363 87.9569 286.854 85.666 286.854C82.8842 286.854 80.1023 286.2 77.4842 284.89C75.766 283.99 74.0478 282.845 72.4933 281.699C71.4296 280.963 70.2842 280.145 69.2205 279.409C65.866 277.363 62.8387 276.627 60.3023 277.363C60.0569 277.445 59.8114 277.527 59.566 277.609C59.4842 277.445 59.4842 277.199 59.4023 277.036C59.6478 276.954 59.8933 276.872 60.1387 276.79C62.8387 276.054 66.0296 276.709 69.5478 278.918C70.6933 279.654 71.8387 280.39 72.9023 281.209C74.4569 282.354 76.0933 283.499 77.8114 284.318C82.3114 286.609 87.466 286.772 92.1296 284.972C93.1933 284.563 94.1751 283.99 95.1569 283.418C95.2387 283.663 95.2387 283.909 95.2387 284.072Z" fill="#E3B400"/>
<path d="M96.7905 293.809C95.3996 294.872 93.9268 295.69 92.3723 296.345C90.245 297.163 88.0359 297.654 85.745 297.654C82.9632 297.654 80.1814 296.999 77.5632 295.69C75.845 294.79 74.1268 293.645 72.5723 292.499C71.5087 291.763 70.3632 290.945 69.2996 290.29C67.0087 288.899 64.8814 288.081 62.9996 287.999C62.9178 287.836 62.8359 287.59 62.8359 287.427C64.9632 287.509 67.2541 288.327 69.7087 289.8C70.8541 290.536 71.9996 291.272 73.0632 292.09C74.6178 293.236 76.2541 294.381 77.9723 295.199C82.4723 297.49 87.6268 297.736 92.2905 295.854C93.9268 295.199 95.3996 294.299 96.8723 293.236C96.7087 293.318 96.7087 293.563 96.7905 293.809Z" fill="#E3B400"/>
<path d="M98.0187 303.382C96.3005 304.936 94.3369 306.164 92.2914 306.982C90.1641 307.8 87.955 308.291 85.6641 308.291C82.8823 308.291 80.1005 307.636 77.4823 306.327C75.7641 305.427 74.0459 304.282 72.4914 303.136C71.4278 302.4 70.2823 301.582 69.2187 300.846C68.2369 300.273 67.3369 299.782 66.355 299.373C66.2732 299.127 66.1914 298.882 66.1914 298.636C67.255 299.046 68.4005 299.618 69.546 300.273C70.6914 301.009 71.8369 301.746 72.9005 302.564C74.455 303.709 76.0914 304.855 77.8096 305.673C82.3096 307.964 87.4641 308.127 92.1278 306.327C94.255 305.509 96.2187 304.2 98.0187 302.564C98.0187 302.973 98.0187 303.218 98.0187 303.382Z" fill="#E3B400"/>
<path d="M98.677 312.709C98.677 312.954 98.677 313.281 98.677 313.609C96.7952 315.409 94.6679 316.8 92.377 317.7C90.2497 318.518 88.0406 319.009 85.7497 319.009C82.9679 319.009 80.1861 318.354 77.5679 317.045C75.8497 316.145 74.1315 315 72.577 313.854C71.5133 313.118 70.3679 312.3 69.3043 311.563C69.2224 311.318 69.2224 311.072 69.1406 310.745C69.3043 310.827 69.4679 310.909 69.6315 310.991C70.777 311.727 71.9224 312.463 72.9861 313.281C74.5406 314.427 76.177 315.572 77.8952 316.391C82.3952 318.682 87.5497 318.927 92.2134 317.045C94.5043 316.227 96.7134 314.672 98.677 312.709Z" fill="#E3B400"/>
<path d="M97.4449 324.572C97.3631 324.899 97.3631 325.145 97.2813 325.472C95.7267 326.699 94.0903 327.763 92.2903 328.418C90.1631 329.236 87.954 329.727 85.6631 329.727C82.8812 329.727 80.0994 329.072 77.4812 327.763C75.7631 326.863 74.0449 325.718 72.4903 324.572C71.754 324.081 71.0176 323.509 70.2812 323.018C70.2812 322.772 70.2812 322.527 70.2812 322.281C71.1813 322.854 71.9994 323.427 72.8176 323.999C74.3722 325.145 76.0085 326.29 77.7267 327.109C82.2267 329.399 87.3813 329.645 92.0449 327.763C94.0085 327.109 95.8085 325.963 97.4449 324.572Z" fill="#E3B400"/>
<path d="M95.5644 336.763C95.4826 337.009 95.4826 337.336 95.4008 337.581C94.419 338.236 93.3553 338.727 92.3735 339.136C90.2462 339.954 88.0371 340.445 85.7462 340.445C82.9644 340.445 80.1826 339.79 77.5644 338.481C75.8462 337.581 74.1281 336.436 72.5735 335.29C71.5099 334.554 70.4462 333.736 69.3008 333.081C69.3826 332.918 69.3826 332.672 69.4644 332.509C69.4644 332.509 69.5462 332.509 69.5462 332.59C70.6917 333.327 71.8371 334.063 72.9008 334.881C74.4553 336.027 76.0917 337.172 77.8099 338.072C82.3099 340.363 87.4644 340.527 92.1281 338.727C93.2735 338.072 94.419 337.499 95.5644 336.763Z" fill="#E3B400"/>
<path d="M93.6873 348.546C93.6873 348.791 93.6055 349.037 93.6055 349.282C93.1964 349.446 92.7873 349.691 92.3782 349.855C90.2509 350.673 88.0418 351.164 85.7509 351.164C82.9691 351.164 80.1873 350.509 77.5691 349.2C75.8509 348.3 74.1327 347.155 72.5782 346.009C71.5146 345.273 70.3691 344.455 69.3055 343.719C68.4055 343.146 67.5055 342.655 66.6055 342.328C66.6873 342.164 66.6873 341.919 66.7691 341.755C67.6691 342.164 68.6509 342.655 69.6327 343.228C70.7782 343.964 71.9236 344.7 72.9873 345.518C74.5418 346.664 76.1782 347.809 77.8964 348.628C82.3964 350.919 87.5509 351.082 92.2146 349.282C92.6236 349.037 93.1964 348.791 93.6873 348.546Z" fill="#E3B400"/>
<path d="M69.2283 311.564C65.8738 309.519 62.8465 308.864 60.3102 309.519C60.0647 309.6 59.7374 309.682 59.492 309.764C59.492 309.6 59.4102 309.355 59.4102 309.11C59.6556 309.028 59.9011 308.946 60.1465 308.864C62.7647 308.128 65.7102 308.782 69.0647 310.664C69.1465 311.073 69.2283 311.319 69.2283 311.564Z" fill="#E3B400"/>
<path d="M69.4696 332.427C69.3878 332.591 69.3878 332.836 69.306 333C69.306 333 69.2241 333 69.2241 332.918C65.8696 330.873 62.8423 330.136 60.306 330.873C58.506 331.363 56.9514 332.591 55.3969 333.736C54.6605 334.309 53.8423 334.882 53.106 335.373C48.606 338.154 43.1241 338.727 38.2969 336.763L38.5423 336.191C43.1241 338.073 48.5241 337.582 52.7787 334.882C53.5151 334.391 54.3332 333.818 55.0696 333.245C56.706 332.1 58.3423 330.873 60.2241 330.3C62.8423 329.645 66.0332 330.3 69.4696 332.427Z" fill="#E3B400"/>
<path d="M59.5688 277.691C58.096 278.264 56.7051 279.328 55.396 280.31C54.6597 280.882 53.8415 281.455 53.1051 281.946C52.6142 282.273 52.1233 282.519 51.6324 282.764C51.5506 282.6 51.5506 282.355 51.4688 282.191C51.9597 281.946 52.3687 281.7 52.7778 281.455C53.5142 280.964 54.3324 280.391 55.0688 279.819C56.4597 278.837 57.8506 277.773 59.4051 277.119C59.4869 277.282 59.5688 277.528 59.5688 277.691Z" fill="#E3B400"/>
<path d="M66.6878 341.672C66.606 341.836 66.606 342.081 66.5242 342.245C64.2332 341.263 62.1878 341.1 60.306 341.591C58.506 342.082 56.9514 343.309 55.3969 344.454C54.6605 345.027 53.8423 345.6 53.106 346.091C48.606 348.872 43.1241 349.445 38.2969 347.482L38.5423 346.909C43.1241 348.791 48.5241 348.3 52.7787 345.6C53.5151 345.109 54.3332 344.536 55.0696 343.963C56.706 342.818 58.3423 341.591 60.2241 341.018C62.106 340.527 64.3151 340.772 66.6878 341.672Z" fill="#E3B400"/>
<path d="M66.4447 299.455C64.2356 298.555 62.1901 298.391 60.3901 298.882C59.3265 299.209 58.3447 299.7 57.3629 300.355C57.281 300.191 57.281 299.945 57.1992 299.782C58.181 299.127 59.1629 298.636 60.2265 298.309C62.0265 297.818 64.0719 297.982 66.281 298.8C66.281 298.964 66.3629 299.209 66.4447 299.455Z" fill="#E3B400"/>
<path d="M56.9489 268.445C56.458 268.772 55.9671 269.181 55.4762 269.508C54.7398 270.081 53.9217 270.654 53.1853 271.145C51.958 271.881 50.7308 272.454 49.4217 272.863C49.4217 272.699 49.3398 272.454 49.3398 272.29C50.5671 271.881 51.7944 271.308 52.858 270.654C53.5944 270.163 54.4126 269.59 55.1489 269.018C55.7217 268.608 56.2944 268.199 56.8671 267.79C56.7853 268.036 56.8671 268.281 56.9489 268.445Z" fill="#E3B400"/>
<path d="M70.3706 323.018C69.9615 322.773 69.6342 322.527 69.2251 322.282C65.8706 320.236 62.8433 319.5 60.307 320.236C58.507 320.727 56.9524 321.955 55.3979 323.1C54.6615 323.673 53.8433 324.245 53.107 324.736C51.8797 325.473 50.5706 326.127 49.1797 326.536C49.507 326.209 49.8342 325.882 50.1615 325.555C51.0615 325.227 51.9615 324.736 52.7797 324.245C53.5161 323.755 54.3342 323.182 55.0706 322.609C56.707 321.464 58.3433 320.236 60.2251 319.664C62.9251 318.927 66.116 319.582 69.6342 321.791C69.8797 321.955 70.207 322.118 70.4524 322.282C70.3706 322.527 70.3706 322.773 70.3706 323.018Z" fill="#E3B400"/>
<path d="M62.9227 287.918C62.0227 287.836 61.1227 287.918 60.3045 288.164C58.5045 288.654 56.95 289.882 55.3954 291.027C55.0682 291.273 54.7409 291.518 54.4136 291.764C54.3318 291.6 54.25 291.354 54.25 291.191C54.4955 291.027 54.8227 290.782 55.0682 290.618C56.7045 289.473 58.3409 288.245 60.2227 287.673C61.0409 287.427 61.8591 287.345 62.7591 287.427C62.7591 287.509 62.8409 287.673 62.9227 287.918Z" fill="#E3B400"/>
<path d="M55.8914 257.727C55.8914 257.973 55.8096 258.218 55.8096 258.545C55.6459 258.627 55.4823 258.791 55.4005 258.873C54.6641 259.445 53.846 260.018 53.1096 260.509C51.7187 261.409 50.246 262.063 48.6914 262.472C48.6914 262.309 48.6914 262.145 48.7732 261.982C48.7732 261.9 48.7732 261.9 48.7732 261.9C50.1641 261.491 51.555 260.918 52.7823 260.1C53.5187 259.609 54.3369 259.036 55.0732 258.463C55.3187 258.218 55.646 257.973 55.8914 257.727Z" fill="#E3B400"/>
<path d="M92.459 359.836C92.459 360.082 92.459 360.245 92.459 360.491C92.3772 360.491 92.3772 360.491 92.3772 360.573C90.2499 361.391 88.0408 361.882 85.7499 361.882C82.9681 361.882 80.1863 361.227 77.5681 359.918C75.8499 359.018 74.1317 357.873 72.5772 356.727C71.5136 355.991 70.3681 355.173 69.3045 354.518C67.6681 353.536 66.1136 352.882 64.7227 352.473C64.7227 352.309 64.8045 352.064 64.8045 351.9C66.359 352.227 67.9136 352.964 69.6317 354.027C70.7772 354.764 71.9227 355.5 72.9863 356.318C74.5408 357.464 76.1772 358.609 77.8954 359.427C82.3954 361.718 87.5499 361.964 92.2136 360.082C92.2136 359.918 92.3772 359.836 92.459 359.836Z" fill="#E3B400"/>
<path d="M60.7991 353.373L51.7991 364.745L31.6719 351.245C33.4719 340.691 36.0901 337.664 40.7537 333.818L60.7991 353.373Z" fill="#E3B400"/>
<path d="M118.883 190.554C118.883 190.554 118.883 174.845 128.619 179.426C138.356 184.008 124.037 194.317 124.037 194.317L118.883 190.554Z" fill="#FFD1C4"/>
<path fill-rule="evenodd" clip-rule="evenodd" d="M386.021 270.246C374.648 261.246 366.957 273.273 368.512 285.137C370.067 296.346 383.239 334.718 381.767 351L386.267 350.837C396.33 329.727 400.585 281.782 386.021 270.246Z" fill="#327F17"/>
<path fill-rule="evenodd" clip-rule="evenodd" d="M384.627 350.919C393.954 317.782 378.654 272.7 378.654 272.537C378.573 272.291 378.245 272.128 377.836 272.21C377.509 272.291 377.263 272.537 377.427 272.864C377.509 273.028 392.809 318.11 383.318 351L384.627 350.919Z" fill="white"/>
<path fill-rule="evenodd" clip-rule="evenodd" d="M359.682 291.518C347.9 286.691 345.364 297.982 350.273 307.064C354.364 314.591 371.791 336.764 378.582 351.082L384.473 350.918C384.227 330.873 373.591 297.164 359.682 291.518Z" fill="#44922B"/>
<path fill-rule="evenodd" clip-rule="evenodd" d="M382.346 351C377.437 323.918 354.528 295.036 354.446 294.955C354.282 294.791 353.955 294.709 353.71 294.791C353.464 294.955 353.382 295.2 353.546 295.364C353.628 295.445 376.373 324.164 381.282 351H382.346Z" fill="white"/>
<path fill-rule="evenodd" clip-rule="evenodd" d="M409.189 303.055C420.235 298.637 422.444 309.192 417.78 317.619C414.589 323.346 403.053 338.155 395.28 350.592L385.953 350.837C388.489 332.264 397.735 307.555 409.189 303.055Z" fill="#44922B"/>
<path fill-rule="evenodd" clip-rule="evenodd" d="M389.387 350.838C396.505 328.092 414.014 306.41 414.096 306.328C414.259 306.165 414.587 306.083 414.75 306.247C414.996 306.41 415.078 306.656 414.914 306.819C414.832 306.901 397.487 328.419 390.45 350.838H389.387Z" fill="white"/>
<path d="M405.415 347.155L403.861 365.645C403.206 373.418 396.743 379.309 388.97 379.309H380.379C372.606 379.309 366.143 373.336 365.488 365.645L363.934 347.155C363.77 345.764 364.915 344.536 366.306 344.536H403.043C404.434 344.536 405.579 345.764 405.415 347.155Z" fill="#E58C5C"/>
<path d="M405.088 351.327L405.415 347.155C405.579 345.764 404.434 344.536 403.043 344.536H366.306C364.915 344.536 363.77 345.764 363.934 347.155L364.261 351.327H405.088Z" fill="#CB6E39"/>
</svg>
