<svg width="450" height="450" viewBox="0 0 450 450" fill="none" xmlns="http://www.w3.org/2000/svg">
<path d="M197.442 117.55C197.442 117.55 198.475 116.854 199.757 117.182C201.038 117.509 201.11 118.328 201.679 118.861C202.249 119.393 203.245 119.598 203.245 119.598C203.245 119.598 204.491 122.056 201.394 127.217C198.297 132.377 189.86 138.153 187.83 137.17C185.801 136.187 186.364 130.843 186.67 130.382C186.976 129.92 187.51 129.224 187.937 127.831C188.365 126.439 189.112 125.046 190.536 123.694C191.96 122.342 197.442 117.55 197.442 117.55Z" fill="#6264A3"/>
<path d="M189.259 129.782C189.259 129.782 188.224 129.584 188.384 127.793C188.544 126.002 193.014 120.951 194.57 119.757C196.127 118.563 198.751 117.57 199.719 117.782C201.111 118.087 200.577 120.495 200.577 120.495L189.259 129.782Z" fill="#1B1720"/>
<path d="M199.439 94.4803C199.57 93.4202 199.674 92.3552 199.706 91.2849C199.733 90.392 199.705 89.4995 199.606 88.6134C199.516 87.818 199.402 87.0662 198.959 86.4234C198.568 85.8564 197.88 86.6574 198.268 87.2188C198.635 87.7513 198.648 88.6783 198.694 89.3233C198.738 89.9349 198.746 90.5492 198.731 91.1627C198.705 91.0228 198.682 90.8822 198.65 90.7434C198.43 89.8085 198.041 88.841 197.449 88.1379C197.17 87.8057 196.805 87.524 196.417 87.3815C196.551 85.3569 196.513 83.3252 195.964 81.3692C195.771 80.6829 194.826 80.9765 195.021 81.668C195.158 82.1559 195.26 82.6494 195.335 83.1463C195.269 83.0045 195.202 82.8639 195.121 82.7297C194.715 82.0464 194.143 81.4835 193.492 81.176C193.38 79.8905 193.073 78.6313 192.59 77.4545C192.477 77.18 192.135 77.1088 191.921 77.2528C191.677 77.4174 191.633 77.7467 191.746 78.0223C191.93 78.4697 192.079 78.9317 192.201 79.4023C191.831 78.8882 191.424 78.4025 190.993 77.9912C190.229 77.2622 189.348 76.922 188.36 77.177C187.624 77.3668 186.999 77.8449 186.426 78.3924C185.702 77.9469 184.851 77.8149 184.024 77.9563C182.775 78.17 181.69 79.0108 180.744 79.9284C180.167 80.4883 179.629 81.0965 179.119 81.7344C179.556 81.068 180.066 80.4575 180.554 79.8992C181.675 78.6178 182.949 77.5404 184.337 76.6734C184.89 76.328 184.398 75.3564 183.844 75.7022C182.353 76.6333 180.976 77.813 179.78 79.1987C178.768 80.3717 177.686 81.7655 177.24 83.3829C176.882 83.6405 176.537 83.9225 176.205 84.2248C174.913 85.4023 173.86 86.9027 172.99 88.5058C172.114 90.1187 171.415 91.8575 170.821 93.6298C170.753 93.8304 170.689 94.0367 170.628 94.2459C170.77 92.4347 171.374 90.6369 172.101 89.0525C173.344 86.3402 174.908 83.8202 176.689 81.5424C177.109 81.0054 176.42 80.2074 175.998 80.747C174.068 83.2153 172.347 85.9682 171.052 88.9415C169.764 91.8999 168.968 95.3544 170.244 98.4635C171.576 101.708 177.137 104.527 178.789 105.409C179.787 105.942 193.729 114.789 194.255 114.751C194.696 114.72 197.5 114.56 199.36 107.843C199.514 107.288 200.041 104.262 200.218 100.207C200.299 98.354 200.26 96.1547 199.439 94.4803Z" fill="#1B1720"/>
<path d="M186.59 118.771C186.59 118.771 188.92 124.037 189.419 126.047C189.919 128.058 189.253 129.781 189.253 129.781C189.253 129.781 190.334 130.451 194.246 127.867C198.157 125.281 200.57 120.494 200.57 120.494C200.57 120.494 198.695 118.514 197.325 115.802C195.939 113.059 194.064 107.45 194.064 107.45L186.59 118.771Z" fill="#E98E63"/>
<path d="M191.456 121.869C192.491 121.037 193.473 120.03 194.188 118.825C194.929 117.577 195.203 116.093 195.213 114.597C195.229 112.171 194.642 109.83 194.022 107.514L186.59 118.772C186.59 118.772 187.727 121.342 188.583 123.578C189.614 123.209 190.583 122.57 191.456 121.869Z" fill="#1B1720"/>
<path d="M196.148 99.3921C193.915 99.289 193.405 102.429 193.405 102.429C193.405 102.429 192.575 103.333 192.467 103.018C192.27 102.441 191.935 101.176 191.334 100.037C190.656 99.3797 189.73 99.2245 188.924 98.8483C188.479 98.6406 188.085 98.3623 187.733 97.9847C187.408 97.636 187.133 97.2336 186.839 96.8518C186.538 96.4603 186.212 96.0921 185.808 95.8431C185.361 95.5675 184.847 95.5011 184.374 95.3005C184.054 95.1647 183.751 94.9877 183.5 94.7181C183.269 94.4698 183.092 94.162 182.91 93.868C182.821 93.7258 182.731 93.5867 182.64 93.4495C181.518 95.1043 180.147 96.5245 178.605 97.6495C177.66 98.3383 176.642 98.9788 175.565 99.3441C175.011 99.532 174.434 99.6388 173.856 99.6343C173.372 99.631 172.908 99.511 172.438 99.4206C172.447 100.004 172.459 100.479 172.464 100.511C172.852 103.654 173.913 107.453 174.562 109.613C175.932 114.177 179.625 122.404 182.681 122.938C186.822 123.661 193.843 119.306 194.599 116.652C195.071 114.993 195.47 109.292 195.47 109.292C195.47 109.292 196.728 110.396 197.951 109.212C199.461 107.75 200.075 99.5736 196.148 99.3921Z" fill="#E98E63"/>
<path d="M177.024 110.837C176.825 110.453 176.453 110.099 176.041 110.19C175.819 110.239 175.647 110.455 175.601 110.706C175.599 110.718 175.599 110.73 175.597 110.742C175.484 110.98 175.486 111.244 175.56 111.489C175.578 111.573 175.604 111.655 175.64 111.732C175.643 111.739 175.643 111.747 175.647 111.755C175.736 111.963 175.841 112.156 176.01 112.291C176.084 112.35 176.169 112.384 176.256 112.404C176.261 112.405 176.265 112.41 176.27 112.411C176.448 112.479 176.605 112.415 176.732 112.294C176.797 112.269 176.861 112.237 176.921 112.187C177.118 112.021 177.227 111.767 177.206 111.483C177.189 111.255 177.125 111.033 177.024 110.837Z" fill="#1B1720"/>
<path d="M186.611 106.663C186.61 106.654 186.611 106.644 186.61 106.634C186.608 106.612 186.611 106.591 186.608 106.569C186.601 106.524 186.585 106.479 186.573 106.433C186.569 106.421 186.569 106.407 186.565 106.395C186.563 106.389 186.56 106.382 186.558 106.375C186.544 106.333 186.526 106.292 186.507 106.25C186.505 106.245 186.504 106.24 186.501 106.235C186.467 106.087 186.411 105.945 186.33 105.824C186.139 105.54 185.85 105.349 185.517 105.337C185.159 105.323 184.855 105.575 184.794 105.952C184.772 106.088 184.766 106.237 184.784 106.382C184.783 106.463 184.793 106.543 184.813 106.623C184.819 106.684 184.83 106.744 184.85 106.803C184.904 106.964 184.995 107.109 185.119 107.219C185.188 107.28 185.261 107.33 185.336 107.375C185.364 107.394 185.389 107.417 185.418 107.434C185.429 107.44 185.44 107.444 185.451 107.45C185.574 107.541 185.714 107.604 185.868 107.597C185.921 107.595 185.974 107.583 186.025 107.566C186.098 107.554 186.171 107.53 186.241 107.487C186.52 107.316 186.632 106.988 186.611 106.663Z" fill="#1B1720"/>
<path d="M186.92 101.51C185.618 101.147 184.28 100.956 182.941 100.943C182.312 100.937 182.311 102.062 182.941 102.068C184.197 102.08 185.439 102.255 186.66 102.594C186.916 102.666 187.19 102.501 187.261 102.201C187.33 101.915 187.178 101.581 186.92 101.51Z" fill="#1B1720"/>
<path d="M176.465 106.342C175.705 106.268 174.93 106.355 174.194 106.586C173.947 106.663 173.771 106.989 173.852 107.278C173.934 107.568 174.189 107.754 174.453 107.671C174.624 107.617 174.796 107.571 174.97 107.535C175.01 107.526 175.051 107.518 175.091 107.511C175.099 107.509 175.153 107.5 175.183 107.495C175.212 107.491 175.276 107.482 175.284 107.481C175.325 107.475 175.365 107.471 175.406 107.467C175.759 107.432 176.113 107.433 176.465 107.467C176.721 107.492 176.965 107.19 176.954 106.905C176.942 106.578 176.739 106.368 176.465 106.342Z" fill="#1B1720"/>
<path d="M183.422 113.127C183.384 112.991 183.311 112.86 183.198 112.791L183.081 112.735C182.994 112.708 182.908 112.708 182.821 112.735C182.454 112.795 182.448 112.809 182.082 112.87C181.969 112.888 181.844 113.021 181.79 113.128C181.728 113.249 181.702 113.427 181.74 113.562C181.779 113.698 181.852 113.829 181.965 113.898L182.082 113.955C182.168 113.981 182.255 113.981 182.342 113.955C182.708 113.894 182.714 113.88 183.081 113.819C183.193 113.8 183.318 113.668 183.373 113.561C183.434 113.44 183.46 113.262 183.422 113.127Z" fill="#DD6A59"/>
<path d="M182.52 116.952C182.52 116.952 184.85 115.995 186.847 114.558C186.847 114.558 187.679 116.09 187.929 117.335C188.178 118.579 184.683 119.441 184.683 119.441L182.52 116.952Z" fill="#E8E8E8"/>
<path d="M175.467 202.146C174.413 199.686 173.429 196.646 172.324 194.216C171.765 197.66 170.955 202.487 170.306 205.949C168.966 213.098 165.554 228.518 165.433 229.499C165.311 230.48 161.271 232.85 159.28 234.26C157.289 235.669 157.749 239.252 158.157 241.308C158.565 243.363 159.689 245.184 160.505 245.419C161.322 245.654 161.526 246.418 162.241 247.064C162.956 247.71 163.721 247.064 164.028 247.416C164.334 247.769 164.385 248.473 165.355 248.473C166.325 248.473 166.427 248.708 166.937 248.884C167.448 249.06 170.715 246.77 172.553 243.951C174.39 241.131 176.279 231.088 176.279 231.088C176.279 231.088 179.139 223.65 181.04 216.221C179.328 211.455 177.449 206.77 175.467 202.146Z" fill="#E98E63"/>
<path d="M179.745 216.264C180.365 217.863 180.725 217.767 181.185 215.651C181.939 212.628 182.517 209.637 182.662 207.183C183.173 198.549 183.734 190.033 183.683 189.21C183.632 188.388 173.245 188.37 173.245 188.37C173.245 188.37 172.865 190.852 172.32 194.222C172.89 198.611 177.699 210.99 179.745 216.264Z" fill="#DC8058"/>
<path d="M170.668 243.239C170.782 242.692 170.688 242.092 170.377 241.642C170.092 241.23 169.65 240.992 169.199 240.963C169.196 240.477 169.094 240.001 168.761 239.669C168.246 239.156 167.382 239.307 166.703 239.496C166.289 238.769 165.578 238.319 164.823 238.335C164.899 238.054 165.008 237.793 165.186 237.587C165.58 237.129 166.201 237.008 166.721 236.854C168.143 236.433 169.354 235.529 169.943 233.923C170.046 233.641 170.015 233.323 169.768 233.153C169.564 233.012 169.201 233.075 169.099 233.355C168.647 234.588 167.8 235.357 166.69 235.701C165.686 236.012 164.574 236.282 164.079 237.468C163.57 238.687 163.753 240.153 163.076 241.306C162.783 241.806 162.294 242.242 161.745 242.205C161.214 242.17 160.758 241.717 160.469 241.234C160.292 240.938 160.099 240.583 160.157 240.213C160.219 239.818 160.389 239.438 160.469 239.043C160.642 238.191 160.683 237.315 160.594 236.447C160.522 235.737 159.543 235.728 159.617 236.447C159.707 237.333 159.666 238.214 159.452 239.073C159.358 239.452 159.203 239.816 159.17 240.212C159.136 240.628 159.25 241.014 159.41 241.382C159.951 242.63 161.153 243.657 162.407 243.233C163.768 242.772 164.356 241.171 164.601 239.704C164.613 239.636 164.622 239.564 164.632 239.492C165.172 239.366 165.785 239.687 165.986 240.3C166.079 240.586 166.312 240.777 166.587 240.692C166.868 240.606 167.152 240.535 167.442 240.5C167.587 240.483 167.968 240.39 168.107 240.504C168.318 240.679 168.225 241.239 168.189 241.477C168.132 241.846 168.409 242.348 168.79 242.169C169.441 241.863 170.007 242.579 169.598 243.273C169.385 243.632 169.668 244.121 170.02 244.119C170.393 244.118 170.149 244.764 170.05 244.923C169.785 245.352 169.376 245.648 169.077 246.045C168.667 246.59 169.355 247.39 169.769 246.841C170.279 246.164 171.027 245.674 171.175 244.721C171.262 244.146 171.055 243.558 170.668 243.239Z" fill="#DC8058"/>
<path opacity="0.55" d="M228.629 391.328C228.629 393.696 221.239 394.008 162.783 394.008C99.8012 394.008 74.9375 393.696 74.9375 391.328C74.9375 388.96 99.3576 388.916 162.318 388.916C223.619 388.916 228.629 388.96 228.629 391.328Z" fill="#7A9759"/>
<path d="M152.521 277.835C152.521 277.835 144.903 292.018 143.795 294.887C142.687 297.755 141.718 300.464 138.394 306.201C135.069 311.938 117.479 352.574 115.54 356.717C113.601 360.861 97.95 375.203 95.734 376.637C93.518 378.071 92.2713 382.214 93.518 383.489C94.7647 384.764 103.629 383.968 108.061 382.214C112.493 380.462 118.587 376.478 125.097 373.131C131.607 369.785 129.114 362.135 128.421 358.311C127.729 354.486 139.917 337.594 144.073 333.451C148.228 329.308 153.63 321.977 155.568 313.85C157.507 305.723 161.386 304.607 165.264 299.667C169.142 294.727 171.774 292.018 173.99 288.353C176.205 284.688 152.521 277.835 152.521 277.835Z" fill="#E98E63"/>
<path d="M150.173 312.112C147.336 310.634 144.741 308.573 142.48 306.112C141.632 305.188 140.834 304.205 140.081 303.18C139.594 304.089 139.04 305.087 138.394 306.201C135.069 311.938 117.479 352.574 115.54 356.717C113.601 360.86 97.95 375.202 95.734 376.637C93.518 378.071 92.2713 382.214 93.518 383.489C94.7647 384.764 103.629 383.967 108.061 382.214C112.493 380.461 118.587 376.477 125.097 373.131C131.607 369.784 129.114 362.135 128.421 358.31C127.729 354.486 139.917 337.594 144.073 333.451C148.18 329.354 153.504 322.143 155.498 314.127C153.668 313.679 151.881 313.003 150.173 312.112Z" fill="#E8E8E8"/>
<path d="M150.173 312.112C147.336 310.634 144.741 308.573 142.48 306.112C141.632 305.188 140.834 304.205 140.081 303.18C139.594 304.089 139.04 305.087 138.394 306.201C135.069 311.938 117.479 352.574 115.54 356.717C113.601 360.86 97.95 375.202 95.734 376.637C93.518 378.071 92.2713 382.214 93.518 383.489C94.7647 384.764 103.629 383.967 108.061 382.214C112.493 380.461 118.587 376.477 125.097 373.131C131.607 369.784 129.114 362.135 128.421 358.31C127.729 354.486 139.917 337.594 144.073 333.451C148.18 329.354 153.504 322.143 155.498 314.127C153.668 313.679 151.881 313.003 150.173 312.112Z" fill="#E8E8E8"/>
<path d="M139.287 316.173C140.856 317.762 142.55 319.131 144.379 320.295C146.228 321.472 148.178 322.457 150.211 323.13C150.672 323.282 151.138 323.419 151.607 323.54C151.911 323.008 152.208 322.468 152.493 321.917C151.514 321.689 150.552 321.347 149.623 320.94C147.706 320.099 145.901 318.952 144.182 317.669C141.333 315.541 138.56 313.027 136.529 309.859C136.214 310.513 135.873 311.232 135.512 312.002C136.75 313.417 137.977 314.845 139.287 316.173Z" fill="#6264A3"/>
<path d="M125.715 360.514C124.692 361.204 123.643 361.864 122.558 362.418C122.061 362.672 121.374 363.022 121.046 362.303C120.869 361.917 120.781 361.442 120.728 361.014C120.651 360.406 120.642 359.79 120.618 359.177C120.573 357.977 120.49 356.629 119.698 355.738C119.021 354.975 118.03 354.874 117.137 355.04C116.813 355.1 116.495 355.19 116.182 355.302C115.897 355.94 115.678 356.423 115.54 356.717C113.601 360.861 97.95 375.203 95.734 376.637C93.518 378.071 92.2713 382.214 93.518 383.489C94.7647 384.764 103.629 383.968 108.061 382.214C112.493 380.461 118.587 376.478 125.097 373.131C131.51 369.835 129.187 362.365 128.455 358.487C127.563 359.201 126.652 359.882 125.715 360.514Z" fill="#6264A3"/>
<path d="M120.597 363.448C120.597 363.156 120.274 362.897 120.048 363.167C120.046 363.17 120.043 363.172 120.041 363.175C117.372 361.928 114.563 361.177 111.682 360.972C111.054 360.927 111.056 362.052 111.682 362.097C114.283 362.282 116.856 362.934 119.283 364.025C118.329 365.049 117.302 365.967 116.223 366.801C113.629 366.012 111.009 365.338 108.369 364.787C107.754 364.659 107.49 365.742 108.109 365.872C110.456 366.362 112.786 366.951 115.097 367.629C113.538 368.726 111.898 369.683 110.244 370.576C109.118 370.28 107.974 370.05 106.842 369.788C106.228 369.647 105.615 369.498 104.999 369.363C104.433 369.239 103.865 369.156 103.307 369.375C102.715 369.607 102.969 370.694 103.567 370.46C104.083 370.257 104.606 370.417 105.124 370.536C105.698 370.669 106.273 370.802 106.847 370.934C107.483 371.081 108.123 371.218 108.761 371.363C107.414 372.067 106.06 372.753 104.719 373.472C104.048 373.831 103.374 374.193 102.707 374.573C101.308 374.049 99.8355 373.794 98.3639 373.822C97.7355 373.835 97.7336 374.96 98.3639 374.947C99.4043 374.927 100.433 375.06 101.438 375.333C100.815 375.726 100.206 376.146 99.6214 376.607C97.9558 377.924 96.4764 379.645 95.9272 381.941C95.8158 382.407 96.4445 382.606 96.5556 382.141C97.0527 380.063 98.3955 378.494 99.8994 377.295C100.68 376.673 101.506 376.127 102.351 375.621C102.501 375.676 102.651 375.732 102.8 375.793C103.049 375.896 103.335 375.678 103.401 375.4C103.433 375.267 103.419 375.141 103.375 375.031C103.891 374.742 104.411 374.461 104.929 374.183C106.553 373.311 108.2 372.485 109.831 371.622C109.956 371.654 110.082 371.684 110.207 371.718C110.59 371.822 110.835 371.436 110.815 371.092C112.374 370.244 113.911 369.346 115.388 368.315C115.586 368.176 115.783 368.034 115.978 367.89C116.091 367.925 116.204 367.956 116.317 367.99C116.766 368.129 117.024 367.574 116.884 367.198C117.968 366.336 118.996 365.383 119.946 364.331C119.969 364.343 119.992 364.352 120.015 364.363C120.555 364.629 121.028 363.785 120.597 363.448Z" fill="#474393"/>
<path d="M125.096 373.131C128.344 371.461 129.35 368.72 129.457 365.918C128.062 367.339 126.121 369.125 124.18 370.292C120.518 372.494 120.435 373.931 118.937 375.175C117.439 376.42 108.535 381.303 106.039 382.069C103.542 382.835 97.717 383.601 97.3008 382.931C96.8846 382.26 97.8833 381.686 96.5518 381.207C95.6705 380.89 94.2081 380.783 93.1736 380.691C92.9073 381.859 92.9796 382.94 93.5164 383.489C94.7631 384.764 103.627 383.967 108.059 382.214C112.492 380.462 118.586 376.478 125.096 373.131Z" fill="#E8E8E8"/>
<path d="M174.008 188.194C174.008 188.194 171.223 188.339 171.729 183.534C172.236 178.728 171.983 155.575 171.856 150.187C171.729 144.799 186.664 130.382 186.664 130.382C186.664 130.382 186.722 133.36 189.506 133.069C192.291 132.777 196.978 130.265 199.334 127.3C203.251 122.372 203.125 119.58 203.125 119.58C203.125 119.58 216.028 117.568 222.609 116.985C229.191 116.403 233.114 123.975 236.025 132.276C238.936 140.576 240.862 148.551 240.862 148.988C240.862 149.424 224.002 158.487 224.508 161.109C225.014 163.73 228.685 180.622 230.077 189.505C231.469 198.388 230.077 200.135 231.722 201.737C233.367 203.339 231.722 204.504 231.975 206.397C232.229 208.29 233.621 209.163 233.241 211.202C232.861 213.241 231.975 213.824 232.355 215.426C232.735 217.027 233.569 220.265 232.456 222.141C231.343 224.017 203.751 237.123 193.879 236.978C184.007 236.832 176.886 226.794 176.886 226.794C176.886 226.794 179.07 220.522 178.944 218.92C178.818 217.318 179.197 214.843 180.21 213.969C181.222 213.095 179.577 211.639 179.956 210.183C180.336 208.727 180.716 207.562 180.969 206.979C181.222 206.397 180.083 204.067 180.463 201.883C180.843 199.698 182.615 185.719 182.615 185.719L174.008 188.194Z" fill="#E8E8E8"/>
<path d="M185.151 186.186C183.84 179.662 182.204 173.226 180.245 166.921C179.685 165.12 179.098 163.33 178.487 161.551C178.259 160.886 177.312 161.176 177.544 161.85C179.683 168.078 181.51 174.445 183.006 180.916C183.434 182.765 183.833 184.622 184.208 186.486C184.35 187.19 185.292 186.892 185.151 186.186Z" fill="#B3C8D7"/>
<path d="M220.146 158.966C218.861 152.451 217.033 146.095 214.707 139.975C214.455 139.313 213.612 139.885 213.862 140.542C216.153 146.571 217.937 152.849 219.203 159.265C219.342 159.971 220.285 159.672 220.146 158.966Z" fill="#B3C8D7"/>
<path d="M215.455 129.98C214.51 132.348 213.737 134.801 213.093 137.298C212.974 137.762 213.603 137.96 213.722 137.498C215.726 129.721 219.159 122.118 224.822 117.109C224.532 117.05 224.236 117.006 223.935 116.982C220.275 120.414 217.432 125.028 215.455 129.98Z" fill="#B3C8D7"/>
<path d="M174.043 152.13C175.612 154.761 177.18 157.393 178.749 160.025C178.985 160.42 179.55 160.046 179.312 159.646C177.743 157.014 176.175 154.383 174.606 151.751C173.861 150.501 173.114 149.251 172.37 148C172.253 148.286 172.153 148.562 172.074 148.826C172.73 149.928 173.387 151.028 174.043 152.13Z" fill="#B3C8D7"/>
<path d="M228.739 203.293C221.989 209.375 213.758 212.779 205.438 214.767C203.088 215.329 200.719 215.781 198.342 216.155C197.928 216.22 198.104 216.943 198.515 216.878C207.034 215.537 215.595 213.177 223.185 208.385C225.294 207.053 227.306 205.53 229.2 203.824C229.53 203.526 229.066 202.999 228.739 203.293Z" fill="#B3C8D7"/>
<path d="M231.185 209.102C226.48 210.965 221.756 212.826 216.86 213.915C216.449 214.006 216.623 214.729 217.033 214.638C221.929 213.549 226.653 211.688 231.358 209.825C231.753 209.669 231.584 208.944 231.185 209.102Z" fill="#B3C8D7"/>
<path d="M229.719 215.725C224.322 216.907 219.187 219.2 214.001 221.221C208.703 223.285 203.313 224.982 197.681 225.023C194.24 225.047 190.814 224.587 187.421 223.97C187.011 223.895 186.834 224.618 187.248 224.693C190.252 225.24 193.28 225.671 196.324 225.758C199.207 225.839 202.076 225.566 204.907 224.931C210.382 223.703 215.586 221.324 220.859 219.295C223.821 218.154 226.82 217.121 229.892 216.448C230.304 216.358 230.129 215.635 229.719 215.725Z" fill="#B3C8D7"/>
<path d="M176.894 226.794C176.894 226.794 190.81 231.292 198.628 230.033C206.446 228.773 213.326 227.514 219.737 224.815C226.148 222.117 232.464 222.141 232.464 222.141C232.464 222.141 233.321 235.648 231.289 248.601C229.256 261.555 221.414 299.059 221.414 299.059C221.414 299.059 197.377 292.999 196.596 291.02C195.814 289.041 200.269 255.318 200.582 254.059C200.895 252.8 176.664 293.95 175.726 295.03C174.787 296.11 149.994 281.792 151.871 277.782C155.701 269.599 176.894 226.794 176.894 226.794Z" fill="#6264A3"/>
<path d="M200.71 244.708C199.516 252.384 198.323 260.059 197.129 267.735C196.982 268.682 198.247 269.045 198.395 268.094C199.589 260.418 200.782 252.742 201.976 245.067C202.123 244.12 200.858 243.757 200.71 244.708Z" fill="#B0A973"/>
<path d="M230.017 241.683C227.979 240.362 226.678 237.993 225.916 235.505C224.989 232.476 224.715 229.21 225.012 226.023C225.079 225.305 224.101 225.31 224.035 226.023C223.721 229.388 224.034 232.896 225.059 236.077C225.917 238.737 227.333 241.235 229.524 242.655C230.072 243.011 230.566 242.039 230.017 241.683Z" fill="#474393"/>
<path d="M223.139 290.721C221.215 287.699 218.837 285.059 216.137 282.942C213.797 281.107 211.227 279.681 208.516 278.735C205.602 277.717 202.101 276.876 199.283 278.646C198.487 279.146 197.812 279.816 197.237 280.593C197.151 281.415 197.07 282.211 196.996 282.972C197.543 281.821 198.262 280.797 199.197 280.033C201.7 277.991 205.05 278.774 207.795 279.662C212.903 281.313 217.555 284.806 221.013 289.425C221.667 290.299 222.275 291.217 222.841 292.168C222.937 291.703 223.036 291.221 223.139 290.721Z" fill="#474393"/>
<path d="M196.631 250.089C193.259 255.208 189.887 260.327 186.514 265.446L176.331 280.905L172.061 287.388C171.29 286.979 170.523 286.559 169.762 286.125C165.414 283.645 161.166 280.804 157.248 277.502C155.989 276.441 154.771 275.292 153.662 274.023C153.49 274.378 153.328 274.715 153.172 275.038C155.719 277.907 158.779 280.193 161.793 282.329C164.91 284.537 168.141 286.527 171.46 288.3C171.172 288.736 170.885 289.171 170.598 289.608C170.345 289.992 170.91 290.366 171.161 289.986C171.461 289.53 171.761 289.074 172.062 288.619C173.107 289.167 174.161 289.697 175.223 290.202C176.131 290.633 177.046 291.041 177.964 291.439C178.147 291.139 178.339 290.821 178.538 290.491C176.554 289.64 174.597 288.705 172.666 287.7C175.545 283.329 178.425 278.959 181.304 274.588C184.694 269.441 188.085 264.294 191.475 259.147C193.381 256.254 195.287 253.361 197.193 250.467C197.447 250.083 196.881 249.709 196.631 250.089Z" fill="#474393"/>
<path d="M218.325 292.099C218.325 292.099 222.318 296.302 221.356 299.251C220.395 302.2 212.465 299.159 212.465 299.159L218.325 292.099Z" fill="#1B1720"/>
<path d="M218.325 292.099C218.325 292.099 218.012 301.274 220.044 306.492C222.077 311.709 223.954 320.165 223.797 335.096C223.641 350.029 221.139 374.315 221.764 375.575C222.39 376.834 227.237 386.549 226.925 389.787C226.612 393.025 207.848 391.946 207.379 390.327C206.91 388.708 209.099 376.114 209.412 372.337C209.725 368.558 209.412 355.786 207.536 346.07C205.659 336.356 202.063 330.419 203.001 323.043C203.939 315.667 203.627 312.248 201.125 305.232C198.623 298.216 197.372 296.597 197.059 290.84C196.746 285.083 202.219 277.527 218.325 292.099Z" fill="#E98E63"/>
<path d="M223.797 335.096C223.893 326.01 223.234 319.325 222.247 314.305C220.561 315.422 218.776 316.339 216.916 316.999C214.052 318.016 211.019 318.409 208.034 318.053C206.482 317.867 204.96 317.478 203.486 316.919C203.473 318.72 203.302 320.677 203.001 323.043C202.063 330.419 205.659 336.356 207.536 346.07C209.412 355.785 209.725 368.558 209.412 372.337C209.1 376.115 206.91 388.708 207.379 390.327C207.848 391.946 226.612 393.026 226.925 389.788C227.238 386.549 222.39 376.834 221.765 375.575C221.139 374.316 223.641 350.029 223.797 335.096Z" fill="#E8E8E8"/>
<path d="M222.057 376.168C221.953 376.238 221.838 376.286 221.711 376.301C221.421 376.334 221.156 376.176 220.936 375.974C220.387 375.467 220.036 374.707 219.651 374.044C219.489 373.765 219.319 373.505 219.093 373.288C218.774 372.983 218.387 372.787 217.989 372.661C217.151 372.396 216.268 372.411 215.406 372.377C214.632 372.347 213.851 372.246 213.137 372.671C212.496 373.053 212.065 373.74 211.715 374.444C211.31 375.258 211.119 376.287 210.481 376.92C210.011 377.388 209.356 377.523 208.802 377.177C208.077 382.331 207.041 389.163 207.378 390.327C207.847 391.946 226.611 393.026 226.924 389.787C227.206 386.863 223.281 378.659 222.057 376.168Z" fill="#6264A3"/>
<path d="M223.718 384.118C223.547 384.092 223.375 384.071 223.204 384.049C223.16 383.782 223.112 383.515 223.06 383.249C222.949 382.69 222.827 382.134 222.697 381.579C222.976 381.622 223.255 381.675 223.53 381.751C224.141 381.918 224.402 380.834 223.789 380.666C223.334 380.541 222.873 380.464 222.409 380.416C222.268 379.861 222.12 379.308 221.967 378.757C222.054 378.76 222.14 378.76 222.227 378.764C222.856 378.793 222.855 377.668 222.227 377.639C222.034 377.63 221.84 377.63 221.646 377.624C221.59 377.426 221.535 377.228 221.478 377.031C221.346 376.575 220.716 376.771 220.849 377.23C220.885 377.355 220.92 377.481 220.956 377.606C217.81 377.579 214.668 378.005 211.61 378.859C211.555 378.41 211.503 377.964 211.452 377.519C212.93 377.133 214.43 376.889 215.938 376.711C216.711 376.619 217.486 376.54 218.261 376.464C219.038 376.387 219.812 376.317 220.562 376.616C221.157 376.854 221.413 375.767 220.821 375.531C220.064 375.229 219.267 375.244 218.477 375.317C217.63 375.397 216.783 375.485 215.938 375.585C214.246 375.785 212.559 376.051 210.903 376.506C210.434 376.635 210.478 377.303 210.801 377.53C210.859 378.031 210.918 378.535 210.981 379.039C210.494 379.243 210.655 380.082 211.124 380.119C211.219 380.799 211.322 381.478 211.446 382.151C211.047 382.405 211.213 383.159 211.654 383.196C211.818 383.957 212.006 384.708 212.234 385.439C212.085 385.498 211.936 385.555 211.789 385.617C211.202 385.862 211.455 386.95 212.049 386.702C212.229 386.626 212.41 386.556 212.591 386.485C213.114 387.88 213.795 389.192 214.715 390.362C214.997 390.721 215.457 390.189 215.176 389.831C214.33 388.755 213.694 387.546 213.203 386.258C216.272 385.169 219.494 384.782 222.694 385.115C222.855 386.469 222.867 387.838 222.577 389.183C222.476 389.651 223.104 389.851 223.205 389.382C223.504 387.999 223.508 386.59 223.357 385.194C223.477 385.21 223.597 385.225 223.717 385.243C223.981 385.283 224.204 384.955 224.206 384.68C224.209 384.344 223.978 384.158 223.718 384.118ZM212.065 381.951C211.946 381.296 211.847 380.635 211.756 379.975C214.874 379.094 218.07 378.681 221.278 378.739C221.428 379.281 221.575 379.824 221.715 380.369C220.377 380.321 219.023 380.505 217.707 380.701C215.804 380.984 213.922 381.404 212.065 381.951ZM212.844 385.21C212.623 384.505 212.44 383.781 212.282 383.047C214.067 382.518 215.878 382.098 217.707 381.826C219.105 381.617 220.569 381.398 221.998 381.5C222.126 382.031 222.248 382.565 222.36 383.101C222.42 383.39 222.476 383.681 222.527 383.973C219.266 383.659 215.965 384.081 212.844 385.21Z" fill="#474393"/>
<path d="M207.085 327.621C210.84 328.186 214.764 327.898 218.414 326.737C220.206 326.167 221.98 325.413 223.497 324.154C223.442 323.384 223.383 322.632 223.316 321.911C223.276 321.943 223.238 321.978 223.198 322.01C220.271 324.313 216.648 325.237 213.161 325.549C211.252 325.72 209.319 325.712 207.414 325.488C205.879 325.307 204.319 324.973 202.882 324.301C202.84 324.994 202.838 325.677 202.868 326.355C204.197 327.036 205.653 327.405 207.085 327.621Z" fill="#6264A3"/>
<path d="M223.31 388.118C221.82 387.941 214.469 387.941 213.441 388.473C212.413 389.005 213.184 390.011 211.488 390.011C210.232 390.011 208.301 389.46 207.32 389.174C207.301 389.716 207.316 390.116 207.378 390.327C207.847 391.946 226.611 393.026 226.923 389.788C226.948 389.535 226.938 389.242 226.905 388.918C226.231 389.396 225.57 389.758 225.161 389.716C224.03 389.597 224.801 388.295 223.31 388.118Z" fill="#E8E8E8"/>
<path d="M236.019 145.941C236.019 145.941 240.482 146.513 240.922 149.036C241.362 151.559 235.468 154.518 234.985 154.518C234.503 154.518 236.019 145.941 236.019 145.941Z" fill="#1B1720"/>
<path d="M173.897 185.933C173.781 186.067 173.115 187.792 172.802 190.07C172.49 192.349 172.594 195.108 172.959 195.947C173.324 196.787 173.845 197.387 173.897 198.466C173.949 199.546 174.418 200.086 175.096 200.625C175.774 201.165 175.774 201.944 176.608 202.604C177.442 203.264 180.413 202.424 180.673 201.824C180.934 201.225 180.621 200.565 180.621 200.565C180.621 200.565 182.811 200.745 185.677 199.906C188.544 199.066 190.733 196.607 191.932 196.247C193.13 195.888 216.273 190.19 224.56 186.652C232.848 183.114 237.677 179.515 238.509 170.515C239.341 161.515 236.012 145.941 236.012 145.941C236.012 145.941 231.037 145.484 225.6 148.229C220.164 150.974 219.369 153.664 219.591 155.707C219.813 157.75 221.976 165.537 221.866 166.047C221.866 166.047 216.817 168.536 211.38 172.239C205.943 175.941 189.356 185.324 187.469 186.154C185.583 186.983 176.025 183.478 173.897 185.933Z" fill="#E98E63"/>
<path d="M176.442 197.5C175.989 197.632 175.62 197.198 175.641 196.695C175.67 196.007 175.738 195.48 175.247 194.974C174.857 194.573 174.488 194.306 174.357 193.679C174.218 193.009 174.562 192.441 174.529 191.78C174.496 191.101 174.086 190.843 173.704 190.423C173.391 190.079 173.339 189.521 173.603 189.116C173.756 188.882 173.965 188.736 174.081 188.464C174.215 188.151 174.176 187.834 174.177 187.498C174.179 186.875 174.373 186.026 174.84 185.739C175.395 185.399 175.09 184.996 174.535 185.336C173.967 185.684 173.481 186.037 173.294 186.747C173.248 186.923 173.22 187.111 173.207 187.294C173.194 187.473 173.249 187.71 173.212 187.878C173.145 188.18 172.815 188.404 172.678 188.691C172.39 189.29 172.386 190.06 172.653 190.668C172.789 190.98 172.992 191.203 173.225 191.417C173.513 191.681 173.596 191.803 173.494 192.234C173.323 192.961 173.275 193.646 173.527 194.359C173.648 194.699 173.816 195.011 174.037 195.277C174.217 195.494 174.571 195.661 174.691 195.928C174.83 196.239 174.627 196.771 174.682 197.126C174.734 197.46 174.874 197.773 175.074 198.023C175.491 198.542 176.107 198.757 176.701 198.584C177.311 198.407 177.053 197.322 176.442 197.5Z" fill="#DC8058"/>
<path d="M179.514 200.335C179.429 200.034 179.179 199.872 178.912 199.942C178.553 200.036 178.194 200.13 177.836 200.224C177.719 200.254 177.603 200.365 177.544 200.482C177.482 200.602 177.456 200.78 177.494 200.915C177.579 201.216 177.828 201.378 178.096 201.308C178.455 201.215 178.813 201.121 179.172 201.027C179.289 200.996 179.405 200.885 179.465 200.768C179.526 200.648 179.552 200.47 179.514 200.335Z" fill="#DC8058"/>
<path d="M225.455 163.088C221.154 165.08 216.936 167.306 212.82 169.764C212.261 170.098 212.755 171.069 213.313 170.735C217.354 168.322 221.492 166.128 225.715 164.172C226.292 163.905 226.04 162.817 225.455 163.088Z" fill="#DC8058"/>
<path d="M105.38 384.643C113.717 375.05 113.717 359.497 105.379 349.904C97.0416 340.311 83.5236 340.311 75.1862 349.904C66.8487 359.497 66.8489 375.051 75.1867 384.643C83.5245 394.236 97.0424 394.236 105.38 384.643Z" fill="#E8E8E8"/>
<path d="M69.5273 361.544C71.0892 361.085 78.0772 356.525 78.4461 355.708C78.6824 355.184 77.7379 351.149 76.9081 348.13C73.3257 351.441 70.6609 356.086 69.5273 361.544Z" fill="#2C2E3A"/>
<path d="M83.8762 390.703C84.9244 389.952 85.6936 389.325 85.8096 389.069C86.1854 388.237 83.5776 378.532 83.1898 378.142C82.8019 377.752 74.504 377.057 73.9558 377.916C73.9558 377.916 73.3114 379.288 72.5977 381.013C75.2374 385.512 79.1577 389.001 83.8762 390.703Z" fill="#2C2E3A"/>
<path d="M92.5851 344.732C92.926 346.881 93.0958 349.059 93.1115 351.242C92.6408 351.64 87.7939 355.771 86.8301 357.82C86.8099 357.804 86.7969 357.784 86.7728 357.771C84.5271 356.584 82.1794 355.671 79.7701 355.037C79.233 354.895 79.0977 355.868 79.6329 356.009C81.9692 356.623 84.238 357.516 86.4159 358.667C86.497 358.71 86.5717 358.714 86.6421 358.704C86.6056 360.862 87.8539 366.583 89.0572 367.773C86.9005 370.503 84.9091 373.401 83.0982 376.45C82.7892 376.97 83.4476 377.6 83.7585 377.076C85.6431 373.903 87.7258 370.895 89.9842 368.068C92.2673 368.239 98.6725 367.687 99.6079 367.191C101.941 369.326 104.059 371.751 105.92 374.433C105.907 374.493 104.039 383.031 104.876 384.654C104.928 384.755 104.997 384.867 105.081 384.988C108.032 381.73 110.194 377.476 111.131 372.589C109.447 372.96 107.633 373.453 106.649 373.905C104.699 371.086 102.471 368.535 100.012 366.306C100.662 363.849 101.518 356.923 101.417 356.052C102.357 355.241 103.351 354.512 104.395 353.891C104.6 353.769 104.73 353.521 104.64 353.254C104.564 353.027 104.294 352.849 104.087 352.972C102.918 353.667 101.808 354.477 100.762 355.392C99.2849 354.254 95.6518 351.939 93.9641 351.324C93.9576 349.077 93.7865 346.837 93.4358 344.626C93.3383 344.007 92.486 344.107 92.5851 344.732Z" fill="#2C2E3A"/>
<path d="M86.9499 388.715C86.8606 388.934 86.9411 389.286 87.1607 389.368C88.9794 390.045 90.8571 390.448 92.7681 390.54C92.9988 390.551 93.2188 390.418 93.2589 390.133C93.2925 389.894 93.1377 389.579 92.905 389.568C91.0768 389.48 89.2591 389.121 87.5173 388.472C87.296 388.39 87.0564 388.454 86.9499 388.715Z" fill="#2C2E3A"/>
<path opacity="0.55" d="M308.517 436.165C329.528 436.165 346.561 434.427 346.561 432.283C346.561 430.139 329.528 428.401 308.517 428.401C287.506 428.401 270.473 430.139 270.473 432.283C270.473 434.427 287.506 436.165 308.517 436.165Z" fill="#7A9759"/>
<path d="M330.128 68.403C332.059 63.4995 330.56 57.1392 326.771 54.0019C326.748 52.6032 326.568 51.1808 326.176 49.8983C325.611 48.0462 324.529 46.5162 322.961 45.6915C322.437 45.4163 321.893 45.2172 321.338 45.0705C319.732 42.1272 317.347 39.7482 314.338 39.0405C311.189 38.2992 308.155 39.4238 305.604 41.4503C305.111 41.409 304.612 41.4188 304.118 41.4833C303.491 41.5654 302.881 41.724 302.286 41.9337C304.784 40.2075 307.477 38.8512 310.291 37.9365C311.164 37.6527 310.793 36.0852 309.916 36.3702C303.046 38.604 296.911 43.3197 292.44 49.692C292.652 49.2882 292.869 48.8877 293.096 48.4954C295.104 45.0237 297.749 42.0597 300.813 39.8333C301.579 39.2764 300.871 37.8705 300.1 38.4308C296.775 40.8469 293.931 44.0693 291.775 47.8538C290.865 49.4502 290.098 51.1482 289.459 52.9088C290.268 49.9362 291.56 47.1402 293.264 44.7162C293.83 43.9107 292.837 42.7545 292.266 43.5675C289.8 47.0749 288.038 51.2929 287.411 55.7644C287.089 58.0665 287.238 60.246 288.083 62.3802C288.873 64.3774 290.117 66.0938 291.329 67.767C291.383 67.8409 291.441 67.8934 291.5 67.9358C292.304 69.2284 293.288 70.3767 294.411 71.3198C294.77 74.1019 295.755 81.6735 297.991 82.857C298.337 83.04 298.751 82.9703 298.957 82.5657C299.071 82.3403 299.076 82.0219 298.973 81.7737C301.569 83.1293 304.205 84.3837 306.875 85.5345C307.089 85.6272 307.414 85.5282 307.561 85.3257C307.716 85.1134 307.87 84.9012 308.024 84.6893C309.454 86.6562 311.235 88.2608 313.275 89.3265C315.604 90.5438 318.371 88.4978 320.614 86.5527C321.67 85.6369 325.557 81.3582 326.473 80.2118C328.317 77.9029 329.447 73.2158 330.128 68.403Z" fill="#4E3333"/>
<path d="M328.109 98.5953C328.109 98.5953 322.734 91.3353 321.799 85.9575C320.864 80.5796 320.397 86.2263 318.761 87.8396C317.125 89.4528 310.718 83.6632 310.484 82.3188C310.251 80.9745 312.359 81.6776 313.06 78.72C313.762 75.7623 314.32 67.9417 310.815 67.404C307.309 66.8662 305.206 72.7818 305.44 76.0083C305.673 79.2352 302.006 79.7576 302.006 79.7576C302.006 79.7576 300.356 73.3162 298.486 72.5096C296.616 71.703 295.433 71.037 294.965 68.8856C294.498 66.7346 293.298 62.064 293.298 62.064C293.298 62.064 291.884 72.7815 294.455 82.4613C297.026 92.1412 299.042 99.156 307.935 96.3847C308.839 96.1031 312.083 105.696 312.924 105.858C321.517 107.518 328.109 98.5953 328.109 98.5953Z" fill="#E38E6C"/>
<path d="M294.161 74.0749C294.088 73.9437 293.986 73.8484 293.854 73.803C293.538 73.6935 293.196 73.6455 292.866 73.6699C292.729 73.68 292.602 73.7292 292.502 73.8432C292.413 73.9459 292.346 74.1143 292.352 74.2617C292.358 74.4147 292.401 74.5737 292.502 74.6802C292.599 74.7825 292.73 74.8635 292.866 74.8534C292.998 74.8437 293.129 74.8493 293.26 74.8635C293.368 74.8834 293.475 74.9078 293.58 74.9438C293.706 74.9873 293.864 74.9599 293.977 74.8842C294.084 74.8125 294.185 74.6715 294.213 74.5302C294.244 74.3798 294.237 74.2095 294.161 74.0749Z" fill="#4E3333"/>
<path d="M326.95 94.4395C325.561 93.4405 320.004 92.5416 319.223 92.8412C318.442 93.1409 330.77 100.433 330.77 100.433C330.77 100.433 328.339 95.4385 326.95 94.4395Z" fill="#6264A3"/>
<path d="M346.754 201.347C346.754 201.347 346.532 224.087 344.311 235.84C344.311 235.84 341.424 248.871 338.759 260.624C336.094 272.378 334.096 296.906 334.096 296.906C334.096 296.906 302.34 295.117 301.007 292.818C299.675 290.518 305.227 251.682 305.227 251.682C305.227 251.682 300.294 257.865 297.184 262.975C294.075 268.085 284.352 289.752 283.908 290.774C283.908 290.774 281.687 283.875 274.803 282.853C267.918 281.831 257.481 284.897 256.371 284.386C255.26 283.875 272.804 237.884 279.022 222.043C285.24 206.202 294.789 182.951 294.789 182.951C294.789 182.951 308.779 176.052 324.769 176.563C340.758 177.074 346.754 201.347 346.754 201.347Z" fill="#6264A3"/>
<path d="M275.949 127.305C275.949 127.305 295.572 94.3042 299.5 90.7256C303.429 87.147 319.308 92.6089 321.109 93.174C322.91 93.7391 332.241 101.273 335.187 104.286C338.134 107.3 344.354 114.457 346.646 118.412C348.938 122.367 368.591 149.234 370.228 151.305C371.865 153.377 354.34 167.005 352.703 167.005C351.067 167.005 347.956 163.615 347.956 163.615C347.956 163.615 346.483 195.634 346.647 203.168C346.647 203.168 340.426 194.316 335.515 189.984C330.604 185.652 313.743 181.131 309.159 181.508C304.576 181.884 294.239 183.899 294.239 183.899C294.239 183.899 295.33 177.356 296.803 174.154C298.276 170.952 294.754 167.382 295.572 164.557C296.39 161.731 297.045 162.673 296.882 159.283C296.718 155.893 293.444 146.476 293.444 145.911C293.444 145.345 296.227 139.507 296.227 139.507L275.949 127.305Z" fill="#E8E8E8"/>
<path d="M352.951 161.821C352.951 161.821 351.006 166.09 352.14 166.983C353.275 167.876 356.261 165.334 357.156 164.098C358.052 162.861 352.951 161.821 352.951 161.821Z" fill="#1B1720"/>
<path d="M352.958 161.822C352.958 161.822 356.515 155.819 359.939 152.653C363.888 149.002 366.921 147.785 370.094 151.355C373.267 154.925 378.627 160.929 380.672 167.501C382.717 174.073 376.652 186.163 370.376 198.658C364.1 211.153 362.972 213.343 362.478 215.453C361.984 217.562 361.561 224.134 360.926 226.244C360.292 228.353 359.513 230.24 357.882 230.24C356.25 230.24 355.434 228.926 355.434 228.926C355.434 228.926 353.885 229.912 352.865 229.348C351.846 228.785 351.519 227.8 351.519 227.8C351.519 227.8 350.704 228.645 349.766 228.222C348.828 227.8 348.624 226.345 348.624 226.345C348.624 226.345 347.481 227.378 346.136 226.674C344.79 225.97 344.79 224.328 344.708 223.718C344.627 223.108 343.77 222.92 342.873 221.935C341.975 220.949 343.118 218.979 344.545 217.758C345.972 216.538 347.033 212.596 347.685 211.423C348.338 210.25 351.682 208.373 352.253 207.576C352.824 206.778 358.599 190.706 360.151 182.998C361.702 175.29 360.856 169.124 360.856 169.124L352.958 161.822Z" fill="#E98E63"/>
<path d="M365.422 174.263C363.507 171.297 361.164 168.749 358.469 166.736C357.796 166.234 357.172 167.471 357.841 167.971C360.347 169.843 362.567 172.225 364.348 174.985C364.548 175.295 364.886 175.452 365.199 175.242C365.464 175.063 365.623 174.575 365.422 174.263Z" fill="#DC8058"/>
<path d="M360.321 221.791C360.163 220.479 358.931 219.517 357.826 219.769C357.64 219.206 357.201 218.729 356.785 218.382C356.337 218.009 355.803 217.858 355.328 218.01C355.127 217.154 354.617 216.4 353.85 216.164C353.862 216.161 353.873 216.159 353.885 216.156C355.153 215.812 356.599 215.422 357.414 214.158C357.614 213.847 357.458 213.359 357.191 213.179C356.874 212.966 356.541 213.124 356.34 213.436C356.056 213.876 355.558 214.094 355.123 214.264C354.522 214.5 353.905 214.691 353.285 214.847C352.032 215.163 350.758 215.307 349.477 215.303C349.007 215.301 348.815 215.793 348.897 216.201C348.668 217.413 348.321 218.591 347.83 219.697C347.45 220.554 346.969 221.6 346.107 221.847C345.331 222.068 345.66 223.448 346.437 223.226C347.428 222.942 349.904 218.885 349.927 218.83C349.966 218.737 350.501 217.713 350.902 217.699C351.302 217.685 351.309 218.318 351.302 218.394C351.231 219.186 351.055 219.711 350.905 220.413C350.828 220.775 350.545 221.39 350.879 221.478C351.2 221.562 351.564 221.051 351.707 220.686C352.007 219.926 352.256 219.369 352.457 218.738C352.508 218.578 352.714 218.036 352.739 217.967C353.074 217.035 354.537 218.049 354.271 219.219C354.035 219.807 353.904 220.477 353.737 221.068C353.463 222.041 353.188 223.014 352.914 223.986C352.81 224.354 353.035 224.767 353.348 224.866C353.684 224.973 354.008 224.735 354.112 224.367C354.531 222.884 354.914 221.382 355.371 219.915C355.405 219.805 355.585 219.42 355.888 219.418C356.143 219.416 356.351 219.65 356.523 219.863C356.589 219.944 356.759 220.52 356.719 220.932C356.623 221.297 356.585 221.697 356.528 222.066C356.403 222.89 356.277 223.713 356.152 224.536C356.096 224.904 356.237 225.325 356.586 225.416C356.888 225.495 357.29 225.311 357.35 224.917C357.452 224.247 357.854 221.591 357.882 221.436C357.891 221.387 358.138 220.922 358.788 221.426C359.206 221.75 359.403 222.151 359.43 222.214C359.572 222.55 359.68 222.872 359.97 222.764C360.325 222.632 360.369 222.189 360.321 221.791Z" fill="#DC8058"/>
<path d="M281.297 125.721C281.297 125.721 276.828 125.269 275.922 127.395C274.714 130.228 278.564 131.846 281.96 132.823L281.297 125.721Z" fill="#1B1720"/>
<path d="M291.958 189.877C290.015 182.577 285.445 165.069 286.241 163.239C287.223 160.979 299.242 138.024 297.147 134.669C292.74 127.608 281.296 125.724 281.296 125.724C278.677 130.433 272.434 147.694 270.853 152.88C265.854 169.272 281.875 200.124 285.267 206.375C287.761 200.183 290.181 194.231 291.958 189.877Z" fill="#E98E63"/>
<path d="M280.241 162.504C278.186 163.754 275.366 162.931 274.084 160.696C273.646 159.931 272.569 160.647 273.011 161.418C274.674 164.32 278.194 165.366 280.868 163.739C281.576 163.309 280.949 162.074 280.241 162.504Z" fill="#DC8058"/>
<path d="M348.097 134.279C348.029 144.108 347.961 153.937 347.894 163.766C347.874 166.54 347.855 169.314 347.836 172.089C347.83 173.009 349.073 173.01 349.079 172.089C349.147 162.26 349.214 152.431 349.282 142.602L349.34 134.279C349.347 133.359 348.104 133.358 348.097 134.279Z" fill="#B0A973"/>
<path d="M310.35 121.789C308.162 125.24 305.744 128.488 303.128 131.516C304.881 127.688 306.528 123.796 308.065 119.846C308.921 117.645 309.743 115.427 310.533 113.194C310.834 112.342 309.632 111.971 309.334 112.813C306.568 120.631 303.374 128.248 299.782 135.608C298.767 137.689 297.719 139.749 296.641 141.789C296.225 142.577 297.299 143.296 297.714 142.51C299.205 139.69 300.634 136.828 302.005 133.929C302.101 133.932 302.202 133.897 302.291 133.799C305.511 130.266 308.443 126.406 311.066 122.271C311.38 121.774 310.661 121.298 310.35 121.789Z" fill="#B3C8D7"/>
<path d="M344.483 132.163C343.284 135.56 340.552 137.777 337.859 139.49C334.62 141.548 331.2 143.279 327.749 144.803C325.753 145.685 323.731 146.484 321.688 147.206C321.18 147.386 321.396 148.307 321.908 148.125C325.689 146.789 329.394 145.18 332.999 143.306C336.161 141.662 339.482 139.94 342.135 137.315C343.498 135.966 344.604 134.34 345.283 132.417C345.483 131.849 344.682 131.601 344.483 132.163Z" fill="#B3C8D7"/>
<path d="M321.696 152.122C316.107 156.769 309.3 158.575 302.876 161.09C301.069 161.798 299.283 162.57 297.54 163.466C297.054 163.716 297.475 164.537 297.958 164.289C304.195 161.085 310.996 159.623 317.18 156.263C318.907 155.325 320.566 154.233 322.114 152.945C322.543 152.589 322.13 151.762 321.696 152.122Z" fill="#B3C8D7"/>
<path d="M331.972 167.492C328.693 166.837 325.838 164.776 322.719 163.561C319.423 162.277 315.9 162.141 312.458 162.438C310.499 162.607 308.551 162.91 306.605 163.216C306.079 163.299 306.303 164.218 306.825 164.136C310.24 163.598 313.692 163.074 317.145 163.316C318.845 163.435 320.533 163.756 322.157 164.352C323.7 164.917 325.166 165.712 326.647 166.457C328.296 167.286 329.971 168.056 331.752 168.411C332.273 168.515 332.497 167.597 331.972 167.492Z" fill="#B3C8D7"/>
<path d="M337.116 192.739C337.102 192.126 336.274 192.124 336.288 192.739C336.569 205.051 333.682 217.372 328.136 227.901C326.573 230.869 324.801 233.683 322.836 236.315C322.49 236.779 323.074 237.456 323.422 236.99C330.528 227.472 335.138 215.593 336.615 203.165C337.025 199.71 337.196 196.225 337.116 192.739Z" fill="#474393"/>
<path d="M335.845 243.696C330.117 242.901 324.427 241.768 318.797 240.323C319.345 239.914 319.896 239.512 320.454 239.121C321.136 238.642 320.512 237.405 319.827 237.886C318.855 238.569 317.898 239.28 316.956 240.014C316.914 240.039 316.876 240.07 316.841 240.105C310.856 244.788 305.484 250.503 300.981 257.026C299.486 259.192 298.083 261.439 296.781 263.764C296.347 264.54 297.422 265.258 297.854 264.486C302.328 256.497 308.03 249.405 314.624 243.678C315.522 242.898 316.437 242.146 317.365 241.417C323.463 243.029 329.632 244.264 335.844 245.126C336.637 245.236 336.63 243.805 335.845 243.696Z" fill="#474393"/>
<path d="M257.328 284.419C257.328 284.419 263.252 278.577 272.772 277.847C282.292 277.116 284.893 283.985 284.333 291.261C283.773 298.536 257.328 284.419 257.328 284.419Z" fill="#1B1720"/>
<path d="M256.37 284.386C256.37 284.386 261.768 280.037 271.077 279.794C280.386 279.551 283.198 286.662 283.907 290.774C284.617 294.885 288.002 305.352 288.213 311.681C288.425 318.009 287.79 326.772 290.117 333.101C292.445 339.429 294.56 336.995 294.983 342.837C295.179 345.538 288.834 352.761 284.386 362.8C279.214 374.474 275.579 389.184 271.712 392.979C268.565 396.068 265.013 395.895 261.942 394.213C257.994 392.051 255.807 386.871 255.774 383.405C255.633 368.557 270.337 343.202 270.971 339.308C271.606 335.413 267.692 330.18 261.557 312.897C255.421 295.616 255.203 290.682 256.37 284.386Z" fill="#E98E63"/>
<path d="M290.118 333.101C287.79 326.772 288.425 318.009 288.213 311.681C288.089 307.956 286.865 302.798 285.735 298.346C284.608 296.987 283.339 295.789 281.938 294.816C278.698 292.564 274.866 291.714 271.14 292.534C269.189 292.963 267.331 293.81 265.595 294.91C263.797 296.05 262.121 297.461 260.67 299.134C259.733 300.215 258.883 301.423 258.202 302.742C259.043 305.583 260.141 308.909 261.557 312.897C267.692 330.18 271.606 335.413 270.972 339.308C270.337 343.202 255.634 368.557 255.774 383.405C255.807 386.871 257.994 392.051 261.942 394.213C265.013 395.895 268.565 396.067 271.712 392.979C275.579 389.184 279.215 374.474 284.386 362.8C288.834 352.761 295.179 345.538 294.983 342.837C294.56 336.995 292.445 339.429 290.118 333.101Z" fill="#E8E8E8"/>
<path d="M265.054 304.263C266.888 302.2 269.087 300.584 271.512 299.609C272.768 299.104 274.068 298.785 275.401 298.744C276.702 298.704 278.007 298.913 279.259 299.319C281.842 300.156 284.196 301.801 286.196 303.837C286.575 304.223 286.939 304.629 287.295 305.045C287.103 304.1 286.893 303.143 286.671 302.189C286.45 301.903 286.222 301.625 285.98 301.358C285.096 300.386 284.09 299.577 283.013 298.915C281.686 298.1 280.255 297.596 278.775 297.306C277.372 297.031 275.921 296.911 274.502 297.067C273.244 297.206 272.003 297.553 270.813 298.04C268.337 299.054 266.042 300.7 264.132 302.774C262.48 304.568 261.086 306.732 260.258 309.174C260.456 309.758 260.662 310.358 260.876 310.973C261.945 308.5 263.336 306.197 265.054 304.263Z" fill="#6264A3"/>
<path d="M290.118 333.101C289.631 331.775 289.279 330.339 289.016 328.845C288.6 328.649 288.159 328.514 287.719 328.428C286.624 328.213 285.489 328.258 284.39 328.413C282.09 328.737 279.683 329.681 278.072 331.682C277.644 332.214 277.284 332.831 277.064 333.513C276.837 334.215 276.751 334.972 276.617 335.702C276.488 336.407 276.294 337.081 275.983 337.709C275.653 338.375 275.23 338.991 274.812 339.587C274.049 340.679 273.052 342.005 271.786 342.263C271.138 342.395 270.573 342.143 270.174 341.606C266.998 349.18 255.651 370.352 255.774 383.405C255.807 386.871 257.994 392.051 261.942 394.213C265.013 395.895 268.565 396.067 271.712 392.979C275.579 389.184 279.215 374.474 284.386 362.8C288.834 352.761 295.179 345.538 294.983 342.837C294.561 336.995 292.445 339.429 290.118 333.101Z" fill="#6264A3"/>
<path d="M290.817 334.779C289.782 334.95 288.568 335.32 287.206 336.04C282.71 338.417 278.944 343.17 278.093 344.848C277.242 346.525 275.055 351.139 273.719 352.956C272.383 354.773 266.915 362.043 263.148 369.033C259.381 376.023 257.194 379.238 257.68 385.11C257.934 388.169 258.353 390.355 259.47 392.262C260.194 393.035 261.016 393.709 261.937 394.213C265.008 395.895 268.56 396.068 271.707 392.98C275.574 389.185 279.21 374.474 284.382 362.8C288.829 352.761 295.174 345.538 294.979 342.837C294.599 337.592 292.854 339.015 290.817 334.779Z" fill="#E8E8E8"/>
<path d="M265.451 395.498C265.451 395.498 258.075 394.4 258.498 383.933C258.921 373.466 277.537 347.657 284.518 341.815C291.5 335.973 293.412 337.33 295.105 340.494C296.797 343.658 289.863 359.443 287.324 363.094C284.785 366.745 277.771 397.903 265.451 395.498Z" fill="#1B1720"/>
<path d="M331.37 292.248C331.37 292.248 334.068 294.346 334.068 296.257C334.068 298.167 331.696 298.985 329.957 298.712L331.37 292.248Z" fill="#1B1720"/>
<path d="M301.937 292.247C301.937 292.247 302.978 288.052 315.22 288.352C327.462 288.651 331.369 292.247 331.369 292.247C331.369 292.247 331.373 309.1 332.155 312.995C332.936 316.891 338.662 333.902 339.183 348.586C339.703 363.27 333.452 398.332 333.713 406.123C333.973 413.914 336.578 429.497 335.536 432.194C334.494 434.891 287.611 434.592 286.049 432.194C284.486 429.797 286.049 425.901 287.351 424.703C288.653 423.504 305.844 414.814 311.574 409.12C317.304 403.426 314.933 378.532 314.11 368.684C313.048 355.983 311.349 329.29 305.619 319.101C299.888 308.912 301.937 292.247 301.937 292.247Z" fill="#E98E63"/>
<path d="M339.182 348.586C338.915 341.035 337.27 332.871 335.629 326.189C335.403 326.118 335.179 326.044 334.952 325.98C331.585 325.027 328.058 324.685 324.608 325.153C323.016 325.369 321.479 325.819 319.949 326.358C318.196 326.976 316.468 327.695 314.792 328.551C313.044 329.443 311.338 330.481 309.785 331.771C309.774 331.78 309.764 331.79 309.753 331.798C312.303 343.956 313.365 359.766 314.11 368.684C314.933 378.533 317.304 403.426 311.574 409.12C305.844 414.814 288.653 423.505 287.351 424.703C286.048 425.902 284.486 429.798 286.048 432.195C287.611 434.593 334.494 434.892 335.536 432.195C336.578 429.498 333.973 413.915 333.713 406.124C333.452 398.332 339.703 363.27 339.182 348.586Z" fill="#E8E8E8"/>
<path d="M317.556 340.571C321.632 338.256 326.144 336.535 330.731 336.546C332.915 336.551 335.106 336.979 337.126 337.949C337.476 338.118 337.818 338.307 338.154 338.506C338.08 338.032 337.942 336.985 337.862 336.515C335.788 335.247 333.627 334.811 331.294 334.531C328.843 334.237 326.284 334.689 323.873 335.255C321.385 335.84 318.966 336.805 316.678 338.071C314.84 339.088 313.081 340.301 311.438 341.692C311.567 342.616 311.688 343.545 311.806 344.474C313.641 343.022 315.559 341.705 317.556 340.571Z" fill="#6264A3"/>
<path d="M335.536 432.195C336.313 430.184 334.859 418.245 334.064 410.477C324.791 412.684 324.917 410.326 321.758 411.584C317.269 413.372 312.201 414.46 310.135 414.6C307.922 414.749 309.163 412.569 310.363 410.011C303.343 414.501 288.245 423.881 287.351 424.703C286.048 425.902 284.486 429.798 286.048 432.195C287.612 434.592 334.495 434.892 335.536 432.195Z" fill="#6264A3"/>
<path d="M321.956 428.587C316.366 428.447 311.628 432.361 310.048 432.361C308.469 432.361 290 431.942 287.691 431.382C286.978 431.21 286.195 430.89 285.453 430.53C285.538 431.124 285.721 431.693 286.048 432.195C287.611 434.592 334.494 434.892 335.536 432.195C335.814 431.473 335.832 429.826 335.703 427.656C332.085 428.06 325.774 428.682 321.956 428.587Z" fill="#E8E8E8"/>
<path d="M293.958 186.576C290.043 191.959 288.393 199.209 289.519 206.109C289.666 207.012 290.864 206.63 290.717 205.729C289.68 199.37 291.228 192.549 294.837 187.588C295.347 186.886 294.472 185.869 293.958 186.576Z" fill="#474393"/>
<path d="M289.453 208.239C285.464 216.141 281.667 224.171 278.073 232.32C274.494 240.436 271.114 248.668 267.94 257.003C266.154 261.691 264.434 266.411 262.777 271.161C262.579 271.73 263.38 271.978 263.577 271.414C266.521 262.972 269.672 254.625 273.028 246.387C276.37 238.181 279.914 230.083 283.653 222.106C285.763 217.604 287.936 213.142 290.169 208.719C290.437 208.188 289.721 207.708 289.453 208.239Z" fill="#474393"/>
<path d="M335.128 285.946C334.616 285.7 334.099 285.47 333.584 285.244C331.927 284.516 330.242 283.871 328.535 283.319C321.941 281.186 314.964 280.412 308.177 281.625C308.919 273.634 309.661 265.644 310.402 257.653C310.641 255.088 310.879 252.523 311.117 249.959C311.173 249.349 310.344 249.354 310.288 249.959C309.449 258.995 308.61 268.031 307.771 277.068C307.625 278.639 307.479 280.209 307.333 281.78C305.58 282.135 303.773 282.56 302.129 283.363C301.823 283.512 301.524 283.686 301.237 283.877C301.177 284.523 301.123 285.144 301.074 285.741C301.553 285.251 302.145 284.886 302.737 284.609C304.126 283.96 305.644 283.6 307.112 283.276C307.14 283.269 307.168 283.265 307.196 283.259C307.15 283.76 307.103 284.261 307.057 284.762C307 285.372 307.829 285.367 307.885 284.762C307.937 284.204 307.989 283.646 308.041 283.089C310.963 282.531 313.939 282.366 316.898 282.528C320.195 282.709 323.468 283.304 326.669 284.228C329.475 285.038 332.325 286.04 334.977 287.418C335.025 286.938 335.076 286.447 335.128 285.946Z" fill="#474393"/>
<path d="M287.716 281.749C286.877 278.755 285.296 275.978 282.88 274.396C280.206 272.645 276.975 271.967 273.932 271.851C270.784 271.73 267.911 272.138 263.824 273.706C262.375 274.261 260.477 275.273 258.632 276.46C258.362 277.247 258.112 277.986 257.883 278.675C259.939 277.24 262.249 275.904 263.726 275.273C267.133 273.817 269.653 273.329 272.534 273.269C275.434 273.208 278.392 273.662 281.079 274.966C283.599 276.189 285.355 278.504 286.307 281.431C286.585 282.288 286.791 283.162 286.945 284.047C287.224 283.435 287.516 282.798 287.818 282.141C287.784 282.011 287.752 281.879 287.716 281.749Z" fill="#474393"/>
</svg>
