<svg width="450" height="450" viewBox="0 0 450 450" fill="none" xmlns="http://www.w3.org/2000/svg">
<path d="M435.108 405.736C435.108 406.473 434.781 407.045 434.372 407.536C433.881 408.027 433.308 408.273 432.572 408.273H18.7356C17.3447 408.273 16.1992 407.127 16.1992 405.736C16.1992 405 16.5265 404.427 16.9356 403.936C17.4265 403.445 17.9992 403.2 18.7356 403.2H432.572C433.963 403.2 435.108 404.345 435.108 405.736Z" fill="#4A5B6B"/>
<path d="M366.277 113.579C347.302 103.922 324.822 108.269 304.957 122.913C292.477 132.113 277.089 135.317 262.369 131.863C262.167 131.816 261.966 131.768 261.762 131.721C243.314 127.388 228.511 112.889 221.586 93.7191C214.762 74.8281 203.172 59.9205 187.291 51.8367C145.002 30.3141 88.3429 65.3115 60.7399 130.005C33.1387 194.699 45.0457 264.591 87.3349 286.114C108.84 297.058 134.058 293.386 157.283 278.628C179.268 264.658 205.003 259.573 229.816 265.68C232.483 266.337 235.149 267 237.817 267.668C252.94 271.458 266.685 279.587 278.936 289.988C281.82 292.436 284.953 294.543 288.334 296.264C322.031 313.415 366.798 286.42 388.322 235.973C409.845 185.526 399.975 130.729 366.277 113.579Z" fill="#FEE4E8"/>
<path d="M397.803 237.836C396.161 234.816 394.123 232.076 391.789 229.659L393.319 224.399L379.11 215.801L375.166 219.593C371.931 218.641 368.56 218.107 365.113 218.047L362.476 213.257L346.36 217.221L346.245 222.688C343.219 224.338 340.48 226.376 338.062 228.71L332.805 227.189L324.206 241.399L328.008 245.348C327.054 248.573 326.526 251.943 326.467 255.383L321.668 258.014L325.635 274.146L331.107 274.252C332.756 277.271 334.788 280.019 337.13 282.435L335.593 287.698L349.8 296.29L353.746 292.504C356.98 293.456 360.359 293.989 363.806 294.049L366.436 298.838L382.551 294.875L382.659 289.412C385.687 287.768 388.432 285.722 390.855 283.378L396.105 284.901L404.706 270.699L400.911 266.748C401.858 263.524 402.391 260.146 402.45 256.706L407.249 254.074L403.282 237.943L397.803 237.836ZM369.303 275.741C358.422 278.417 347.44 271.77 344.764 260.891C342.087 250.01 348.733 239.021 359.612 236.346C370.493 233.669 381.477 240.322 384.153 251.203C386.83 262.082 380.184 273.064 369.303 275.741Z" fill="#E3E3E3"/>
<path d="M366.435 299.353C366.25 299.353 366.074 299.252 365.982 299.085L363.496 294.556C360.256 294.475 357.027 293.978 353.889 293.08L350.16 296.658C349.991 296.822 349.733 296.849 349.533 296.729L335.326 288.137C335.124 288.017 335.031 287.774 335.097 287.549L336.55 282.575C334.314 280.233 332.383 277.607 330.801 274.761L325.628 274.662C325.394 274.657 325.19 274.495 325.134 274.268L321.167 258.137C321.111 257.91 321.216 257.672 321.421 257.559L325.957 255.071C326.04 251.822 326.535 248.602 327.429 245.49L323.835 241.757C323.671 241.587 323.644 241.33 323.765 241.128L332.363 226.919C332.484 226.719 332.727 226.626 332.95 226.691L337.922 228.129C340.287 225.879 342.913 223.946 345.735 222.378L345.843 217.21C345.849 216.976 346.011 216.773 346.238 216.717L362.353 212.753C362.58 212.697 362.817 212.802 362.931 213.007L365.424 217.534C368.655 217.615 371.88 218.112 375.023 219.01L378.751 215.424C378.92 215.262 379.178 215.234 379.379 215.354L393.588 223.953C393.788 224.073 393.884 224.315 393.817 224.541L392.372 229.515C394.625 231.884 396.555 234.508 398.114 237.321L403.294 237.419C403.528 237.424 403.731 237.586 403.787 237.813L407.754 253.943C407.81 254.169 407.706 254.407 407.501 254.52L402.965 257.01C402.884 260.243 402.389 263.466 401.494 266.598L405.081 270.333C405.243 270.503 405.272 270.76 405.152 270.962L396.551 285.164C396.431 285.363 396.189 285.455 395.963 285.392L390.998 283.952C388.619 286.22 385.987 288.157 383.172 289.716L383.069 294.88C383.064 295.114 382.902 295.317 382.675 295.373L366.56 299.337C366.516 299.349 366.477 299.353 366.435 299.353ZM353.745 291.982C353.794 291.982 353.844 291.989 353.891 292.004C357.128 292.958 360.467 293.471 363.813 293.526C363.998 293.53 364.169 293.633 364.257 293.795L366.695 298.237L382.038 294.464L382.137 289.399C382.14 289.214 382.245 289.043 382.409 288.954C385.328 287.37 388.048 285.367 390.491 283.004C390.624 282.874 390.816 282.827 390.995 282.878L395.864 284.291L404.054 270.769L400.535 267.104C400.405 266.969 400.358 266.778 400.41 266.598C401.359 263.367 401.872 260.034 401.93 256.693C401.933 256.508 402.036 256.337 402.2 256.248L406.649 253.808L402.871 238.452L397.79 238.355C397.604 238.351 397.433 238.247 397.345 238.085C395.759 235.165 393.765 232.452 391.414 230.021C391.284 229.886 391.238 229.695 391.29 229.517L392.708 224.639L379.179 216.452L375.524 219.969C375.39 220.097 375.2 220.146 375.018 220.094C371.776 219.14 368.441 218.627 365.103 218.569C364.918 218.565 364.747 218.465 364.659 218.301L362.213 213.86L346.869 217.635L346.763 222.704C346.76 222.889 346.655 223.058 346.493 223.148C343.565 224.745 340.85 226.743 338.422 229.088C338.287 229.218 338.096 229.265 337.918 229.214L333.04 227.803L324.854 241.332L328.38 244.993C328.509 245.128 328.556 245.321 328.504 245.501C327.555 248.71 327.042 252.04 326.983 255.397C326.979 255.582 326.877 255.753 326.713 255.842L322.263 258.282L326.042 273.64L331.116 273.737C331.301 273.741 331.472 273.843 331.56 274.007C333.173 276.961 335.171 279.677 337.5 282.077C337.63 282.212 337.679 282.404 337.626 282.582L336.201 287.462L349.728 295.641L353.385 292.131C353.484 292.034 353.614 291.982 353.745 291.982ZM364.461 276.848C355.112 276.848 346.592 270.488 344.261 261.013C342.935 255.617 343.786 250.026 346.662 245.272C349.539 240.518 354.095 237.168 359.491 235.842C364.887 234.515 370.476 235.368 375.23 238.247C379.982 241.125 383.332 245.682 384.659 251.079C387.398 262.215 380.565 273.505 369.429 276.245C367.766 276.651 366.099 276.848 364.461 276.848ZM364.493 236.267C362.909 236.267 361.314 236.459 359.736 236.846C354.609 238.106 350.28 241.289 347.548 245.807C344.816 250.323 344.006 255.636 345.267 260.765C346.529 265.893 349.71 270.222 354.226 272.954C358.742 275.688 364.052 276.498 369.18 275.235C374.309 273.973 378.638 270.792 381.37 266.276C384.102 261.762 384.912 256.45 383.651 251.322C382.389 246.194 379.208 241.865 374.692 239.13C371.565 237.239 368.057 236.267 364.493 236.267Z" fill="#070706"/>
<path d="M156.254 132.934V403.99H354.495V132.934C354.495 109.143 335.21 89.858 311.419 89.858H199.33C175.539 89.8598 156.254 109.145 156.254 132.934Z" fill="white"/>
<path d="M354.498 404.509H156.257C155.97 404.509 155.738 404.276 155.738 403.99V132.934C155.738 108.896 175.293 89.3394 199.332 89.3394H311.424C335.461 89.3394 355.018 108.895 355.018 132.934V403.99C355.016 404.276 354.784 404.509 354.498 404.509ZM156.775 403.472H353.98V132.934C353.98 109.467 334.889 90.3762 311.422 90.3762H199.332C175.866 90.3762 156.775 109.467 156.775 132.934V403.472Z" fill="#070706"/>
<path d="M331.21 313.219V334.695C331.21 336.886 329.434 338.662 327.243 338.662H184.809C182.619 338.662 180.844 336.886 180.844 334.695V313.219C180.844 311.029 182.62 309.254 184.809 309.254H327.243C329.436 309.252 331.21 311.029 331.21 313.219Z" fill="#FFE2C8"/>
<path d="M327.248 339.179H184.814C182.341 339.179 180.328 337.167 180.328 334.694V313.218C180.328 310.745 182.341 308.732 184.814 308.732H327.248C329.721 308.732 331.733 310.745 331.733 313.218V334.694C331.732 337.169 329.721 339.179 327.248 339.179ZM184.812 309.771C182.911 309.771 181.363 311.317 181.363 313.22V334.695C181.363 336.596 182.909 338.144 184.812 338.144H327.246C329.147 338.144 330.695 336.598 330.695 334.695V313.22C330.695 311.319 329.149 309.771 327.246 309.771H184.812Z" fill="#070706"/>
<path d="M331.212 230.596V252.072C331.212 254.27 329.436 256.045 327.245 256.045H268.842C266.652 256.045 264.875 254.268 264.875 252.072V230.596C264.875 228.406 266.652 226.629 268.842 226.629H327.245C329.437 226.631 331.212 228.406 331.212 230.596Z" fill="#FFE2C8"/>
<path d="M327.248 256.565H268.845C266.372 256.565 264.359 254.551 264.359 252.074V230.598C264.359 228.125 266.372 226.112 268.845 226.112H327.248C329.721 226.112 331.733 228.125 331.733 230.598V252.074C331.732 254.549 329.721 256.565 327.248 256.565ZM268.845 227.149C266.944 227.149 265.396 228.695 265.396 230.598V252.074C265.396 253.978 266.942 255.528 268.845 255.528H327.248C329.149 255.528 330.697 253.978 330.697 252.074V230.598C330.697 228.697 329.15 227.149 327.248 227.149H268.845Z" fill="#070706"/>
<path d="M180.844 252.073V230.597C180.844 228.407 182.62 226.63 184.809 226.63H252.873C255.063 226.63 256.838 228.407 256.838 230.597V252.073C256.838 254.271 255.061 256.046 252.873 256.046H184.809C182.62 256.046 180.844 254.269 180.844 252.073Z" fill="#FFE2C8"/>
<path d="M252.877 256.565H184.814C182.341 256.565 180.328 254.551 180.328 252.074V230.598C180.328 228.125 182.341 226.112 184.814 226.112H252.877C255.35 226.112 257.363 228.125 257.363 230.598V252.074C257.363 254.549 255.35 256.565 252.877 256.565ZM184.814 227.149C182.913 227.149 181.365 228.695 181.365 230.598V252.074C181.365 253.978 182.911 255.528 184.814 255.528H252.877C254.778 255.528 256.326 253.978 256.326 252.074V230.598C256.326 228.697 254.78 227.149 252.877 227.149H184.814Z" fill="#070706"/>
<path d="M331.21 272.829V294.305C331.21 296.496 329.434 298.272 327.243 298.272H184.809C182.619 298.272 180.844 296.496 180.844 294.305V272.829C180.844 270.639 182.62 268.862 184.809 268.862H327.243C329.436 268.864 331.21 270.64 331.21 272.829Z" fill="#FFE2C8"/>
<path d="M327.248 298.791H184.814C182.341 298.791 180.328 296.778 180.328 294.305V272.829C180.328 270.356 182.341 268.346 184.814 268.346H327.248C329.721 268.346 331.733 270.358 331.733 272.829V294.305C331.732 296.78 329.721 298.791 327.248 298.791ZM184.812 269.382C182.911 269.382 181.363 270.929 181.363 272.829V294.305C181.363 296.206 182.909 297.754 184.812 297.754H327.246C329.147 297.754 330.695 296.208 330.695 294.305V272.829C330.695 270.929 329.149 269.382 327.246 269.382H184.812Z" fill="#070706"/>
<path d="M301.679 355.466V380.238C301.679 382.83 299.578 384.936 296.986 384.936H215.056C212.464 384.936 210.363 382.828 210.363 380.238V355.466C210.363 352.874 212.464 350.773 215.056 350.773H296.986C299.578 350.775 301.679 352.876 301.679 355.466Z" fill="#FFB839"/>
<path d="M296.989 385.456H215.059C212.186 385.456 209.848 383.116 209.848 380.239V355.468C209.848 352.595 212.186 350.257 215.059 350.257H296.989C299.862 350.257 302.2 352.595 302.2 355.468V380.239C302.2 383.116 299.862 385.456 296.989 385.456ZM215.059 351.294C212.758 351.294 210.884 353.166 210.884 355.468V380.239C210.884 382.545 212.756 384.419 215.059 384.419H296.989C299.291 384.419 301.163 382.543 301.163 380.239V355.468C301.163 353.166 299.291 351.294 296.989 351.294H215.059Z" fill="#070706"/>
<path d="M288.203 106.07H220.296C217.155 106.07 214.34 104.134 213.217 101.2L206.262 89.8596H302.238L295.283 101.2C294.159 104.132 291.344 106.07 288.203 106.07Z" fill="black"/>
<path d="M278.797 99.3192C278.448 99.6684 277.971 99.879 277.438 99.879H247.661C247.135 99.879 246.653 99.6684 246.302 99.3192C245.958 98.9754 245.742 98.493 245.742 97.9674C245.742 96.9036 246.603 96.0486 247.661 96.0486H277.325C278.243 96.0486 279.096 96.6372 279.307 97.5264C279.471 98.214 279.231 98.8854 278.797 99.3192Z" fill="white"/>
<path d="M242.055 97.9686C242.055 99.0252 241.195 99.8802 240.137 99.8802H231.16C230.242 99.8802 229.396 99.2916 229.193 98.4024C229.038 97.7166 229.27 97.0506 229.704 96.6096C230.053 96.2658 230.53 96.0498 231.063 96.0498H240.137C241.195 96.0498 242.055 96.903 242.055 97.9686Z" fill="white"/>
<path d="M304.747 283.005H194.188V287.012H304.747V283.005Z" fill="white"/>
<path d="M257.936 321.953H194.188V325.96H257.936V321.953Z" fill="white"/>
<path d="M304.751 321.954H271.582V325.961H304.751V321.954Z" fill="white"/>
<path d="M340.176 137.063V194.347C340.176 201.505 334.379 207.303 327.22 207.303H184.827C177.669 207.303 171.871 201.505 171.871 194.347V137.063C171.871 129.912 177.669 124.107 184.827 124.107H327.22C334.379 124.107 340.176 129.912 340.176 137.063Z" fill="#FFF0E1"/>
<path d="M327.223 207.821H184.83C177.4 207.821 171.355 201.776 171.355 194.346V137.063C171.355 129.632 177.4 123.588 184.83 123.588H327.223C334.653 123.588 340.698 129.632 340.698 137.063V194.346C340.698 201.776 334.653 207.821 327.223 207.821ZM184.83 124.625C177.972 124.625 172.392 130.205 172.392 137.063V194.346C172.392 201.204 177.972 206.784 184.83 206.784H327.223C334.081 206.784 339.661 201.204 339.661 194.346V137.063C339.661 130.205 334.081 124.625 327.223 124.625H184.83Z" fill="#070706"/>
<path d="M234.006 165.705C234.006 171.23 232.187 176.318 229.105 180.411C224.632 186.364 217.511 190.207 209.498 190.207C201.484 190.207 194.365 186.355 189.897 180.402C186.825 176.309 184.996 171.221 184.996 165.705C184.996 152.175 195.967 141.204 209.498 141.204C223.035 141.204 234.006 152.175 234.006 165.705Z" fill="#FF571C"/>
<path d="M209.496 168.478C214.135 168.478 217.895 164.717 217.895 160.079C217.895 155.44 214.135 151.68 209.496 151.68C204.858 151.68 201.098 155.44 201.098 160.079C201.098 164.717 204.858 168.478 209.496 168.478Z" fill="white"/>
<path d="M226.965 182.126C222.898 187.038 216.427 190.209 209.143 190.209C201.858 190.209 195.387 187.031 191.328 182.12C194.772 176.407 201.462 172.535 209.143 172.535C216.831 172.533 223.519 176.411 226.965 182.126Z" fill="white"/>
<path d="M209.489 190.726C201.544 190.726 194.248 187.078 189.475 180.715C186.199 176.353 184.469 171.164 184.469 165.706C184.469 151.911 195.694 140.686 209.489 140.686C223.288 140.686 234.516 151.911 234.516 165.706C234.516 171.18 232.784 176.373 229.51 180.724C224.731 187.081 217.434 190.726 209.489 190.726ZM209.489 141.723C196.264 141.723 185.506 152.482 185.506 165.706C185.506 170.939 187.165 175.912 190.304 180.094C194.88 186.192 201.873 189.691 209.489 189.691C217.105 189.691 224.101 186.196 228.682 180.103C231.821 175.934 233.479 170.955 233.479 165.708C233.479 152.483 222.717 141.723 209.489 141.723Z" fill="#070706"/>
<path d="M277.679 147.38H243.113V156.317H277.679V147.38Z" fill="#FFC0CC"/>
<path d="M326.797 163.071H243.113V166.894H326.797V163.071Z" fill="#FFC0CC"/>
<path d="M326.797 171.639H243.113V175.462H326.797V171.639Z" fill="#FFC0CC"/>
<path d="M275.308 180.207H243.113V184.03H275.308V180.207Z" fill="#FFC0CC"/>
<path d="M297.179 180.207H288.766V184.03H297.179V180.207Z" fill="#FFC0CC"/>
<path d="M315.523 180.207H306.605V184.03H315.523V180.207Z" fill="#FFC0CC"/>
<path d="M227.12 239.333H194.188V243.34H227.12V239.333Z" fill="white"/>
<path d="M244.405 239.334H232.172V243.341H244.405V239.334Z" fill="white"/>
<path d="M303.45 239.334H272.047V243.341H303.45V239.334Z" fill="white"/>
<path d="M235.697 372.914C235.697 373.067 235.692 373.197 235.685 373.303C235.676 373.409 235.661 373.501 235.643 373.577C235.625 373.652 235.6 373.719 235.571 373.773C235.541 373.827 235.492 373.89 235.425 373.96C235.359 374.03 235.229 374.12 235.037 374.23C234.844 374.34 234.61 374.446 234.333 374.545C234.056 374.644 233.739 374.729 233.382 374.797C233.026 374.864 232.641 374.898 232.225 374.898C231.415 374.898 230.682 374.772 230.031 374.524C229.377 374.273 228.823 373.901 228.366 373.404C227.909 372.907 227.558 372.286 227.315 371.543C227.07 370.799 226.949 369.934 226.949 368.945C226.949 367.939 227.082 367.046 227.351 366.265C227.619 365.486 227.993 364.829 228.476 364.3C228.956 363.769 229.536 363.367 230.209 363.094C230.882 362.818 231.626 362.681 232.436 362.681C232.765 362.681 233.082 362.708 233.386 362.764C233.69 362.818 233.973 362.89 234.232 362.978C234.491 363.067 234.725 363.169 234.932 363.284C235.139 363.4 235.285 363.5 235.366 363.581C235.449 363.664 235.505 363.733 235.535 363.787C235.566 363.842 235.591 363.913 235.609 363.997C235.627 364.084 235.641 364.183 235.65 364.3C235.659 364.415 235.665 364.559 235.665 364.73C235.665 364.913 235.659 365.068 235.647 365.196C235.634 365.324 235.613 365.428 235.582 365.506C235.551 365.585 235.515 365.642 235.472 365.68C235.429 365.716 235.38 365.734 235.326 365.734C235.235 365.734 235.119 365.68 234.979 365.574C234.839 365.468 234.657 365.349 234.434 365.218C234.21 365.086 233.946 364.967 233.638 364.861C233.33 364.755 232.963 364.701 232.536 364.701C232.067 364.701 231.647 364.796 231.28 364.989C230.911 365.18 230.598 365.455 230.339 365.812C230.079 366.168 229.883 366.6 229.748 367.106C229.613 367.612 229.547 368.182 229.547 368.816C229.547 369.511 229.619 370.114 229.761 370.623C229.903 371.132 230.108 371.55 230.373 371.879C230.637 372.209 230.958 372.454 231.332 372.616C231.707 372.778 232.13 372.859 232.599 372.859C233.026 372.859 233.395 372.808 233.706 372.707C234.018 372.607 234.284 372.495 234.507 372.373C234.729 372.252 234.912 372.14 235.056 372.043C235.199 371.946 235.31 371.897 235.389 371.897C235.451 371.897 235.499 371.91 235.535 371.935C235.573 371.959 235.604 372.007 235.627 372.081C235.652 372.155 235.67 372.256 235.681 372.387C235.692 372.52 235.697 372.695 235.697 372.914Z" fill="white"/>
<path d="M246.213 374.396C246.213 374.464 246.2 374.52 246.177 374.565C246.153 374.612 246.094 374.648 246.002 374.678C245.91 374.709 245.777 374.731 245.601 374.743C245.424 374.756 245.183 374.761 244.879 374.761C244.623 374.761 244.418 374.756 244.265 374.743C244.114 374.731 243.993 374.709 243.903 374.675C243.815 374.641 243.752 374.599 243.716 374.547C243.68 374.495 243.649 374.432 243.624 374.36L242.564 371.717C242.436 371.419 242.31 371.154 242.19 370.922C242.067 370.69 241.932 370.497 241.783 370.342C241.633 370.186 241.461 370.07 241.266 369.989C241.072 369.91 240.845 369.871 240.589 369.871H239.841V374.38C239.841 374.441 239.821 374.495 239.781 374.543C239.742 374.592 239.677 374.632 239.585 374.662C239.493 374.693 239.371 374.718 239.22 374.736C239.067 374.754 238.872 374.763 238.635 374.763C238.402 374.763 238.21 374.754 238.055 374.736C237.898 374.718 237.776 374.693 237.684 374.662C237.592 374.632 237.528 374.592 237.492 374.543C237.456 374.495 237.438 374.441 237.438 374.38V363.634C237.438 363.365 237.506 363.173 237.643 363.054C237.78 362.935 237.949 362.876 238.15 362.876H241.214C241.525 362.876 241.781 362.881 241.983 362.894C242.184 362.906 242.368 362.921 242.532 362.939C243.007 363.005 243.435 363.122 243.817 363.286C244.197 363.45 244.521 363.666 244.785 363.931C245.05 364.195 245.253 364.51 245.394 364.872C245.534 365.236 245.604 365.651 245.604 366.121C245.604 366.517 245.554 366.879 245.453 367.205C245.352 367.531 245.205 367.822 245.008 368.078C244.814 368.333 244.573 368.557 244.287 368.746C244 368.935 243.674 369.088 243.307 369.203C243.484 369.289 243.651 369.392 243.806 369.514C243.961 369.637 244.108 369.784 244.245 369.959C244.382 370.132 244.512 370.331 244.634 370.553C244.755 370.776 244.873 371.028 244.99 371.307L245.988 373.638C246.079 373.87 246.141 374.039 246.171 374.146C246.202 374.252 246.213 374.335 246.213 374.396ZM243.113 366.366C243.113 365.975 243.025 365.646 242.848 365.38C242.672 365.111 242.382 364.922 241.979 364.813C241.858 364.782 241.718 364.759 241.563 364.741C241.407 364.723 241.192 364.714 240.919 364.714H239.841V368.071H241.066C241.408 368.071 241.707 368.029 241.963 367.946C242.218 367.864 242.433 367.748 242.604 367.599C242.775 367.45 242.902 367.271 242.987 367.064C243.07 366.854 243.113 366.623 243.113 366.366Z" fill="white"/>
<path d="M254.985 373.764C254.985 373.94 254.976 374.088 254.962 374.206C254.946 374.325 254.924 374.422 254.894 374.494C254.863 374.568 254.825 374.62 254.78 374.655C254.733 374.689 254.683 374.705 254.629 374.705H248.685C248.484 374.705 248.315 374.646 248.178 374.527C248.041 374.408 247.973 374.214 247.973 373.945V363.63C247.973 363.361 248.041 363.169 248.178 363.05C248.315 362.931 248.484 362.872 248.685 362.872H254.593C254.647 362.872 254.696 362.888 254.739 362.917C254.782 362.947 254.818 363 254.849 363.077C254.879 363.153 254.903 363.252 254.917 363.37C254.931 363.489 254.94 363.64 254.94 363.824C254.94 363.995 254.933 364.139 254.917 364.258C254.901 364.377 254.879 364.474 254.849 364.546C254.818 364.62 254.782 364.672 254.739 364.706C254.696 364.74 254.647 364.756 254.593 364.756H250.368V367.647H253.945C253.999 367.647 254.049 367.663 254.096 367.698C254.141 367.732 254.179 367.784 254.211 367.854C254.242 367.924 254.265 368.018 254.28 368.137C254.296 368.256 254.303 368.401 254.303 368.571C254.303 368.749 254.296 368.895 254.28 369.01C254.265 369.125 254.242 369.219 254.211 369.289C254.181 369.359 254.143 369.409 254.096 369.44C254.049 369.471 254.001 369.485 253.945 369.485H250.368V372.822H254.629C254.683 372.822 254.733 372.838 254.78 372.873C254.825 372.907 254.863 372.959 254.894 373.033C254.924 373.105 254.948 373.202 254.962 373.321C254.978 373.44 254.985 373.587 254.985 373.764Z" fill="white"/>
<path d="M266.572 373.811C266.646 374.031 266.691 374.205 266.709 374.331C266.727 374.459 266.704 374.554 266.635 374.619C266.569 374.684 266.45 374.724 266.279 374.738C266.108 374.754 265.874 374.761 265.575 374.761C265.264 374.761 265.023 374.758 264.848 374.749C264.673 374.74 264.542 374.722 264.45 374.695C264.358 374.668 264.295 374.63 264.259 374.58C264.222 374.531 264.193 374.466 264.168 374.389L263.372 372.011H258.928L258.177 374.324C258.154 374.409 258.121 374.481 258.082 374.538C258.042 374.596 257.977 374.643 257.889 374.675C257.801 374.707 257.677 374.731 257.515 374.743C257.353 374.756 257.14 374.761 256.879 374.761C256.599 374.761 256.379 374.752 256.221 374.734C256.062 374.716 255.952 374.671 255.891 374.601C255.83 374.531 255.808 374.432 255.826 374.304C255.844 374.176 255.891 374.005 255.963 373.791L259.612 363.292C259.648 363.187 259.691 363.105 259.74 363.04C259.788 362.975 259.866 362.926 259.972 362.894C260.078 362.862 260.226 362.84 260.416 362.829C260.605 362.82 260.856 362.817 261.167 362.817C261.527 362.817 261.813 362.822 262.027 362.829C262.24 362.838 262.407 362.86 262.526 362.894C262.645 362.928 262.731 362.977 262.782 363.045C262.834 363.112 262.877 363.204 262.913 363.319L266.572 373.811ZM261.14 365.133H261.131L259.457 370.162H262.812L261.14 365.133Z" fill="white"/>
<path d="M274.638 363.861C274.638 364.037 274.631 364.189 274.617 364.315C274.601 364.439 274.579 364.54 274.548 364.617C274.518 364.694 274.48 364.748 274.435 364.786C274.39 364.822 274.338 364.84 274.284 364.84H271.321V374.378C271.321 374.44 271.301 374.494 271.262 374.542C271.222 374.591 271.157 374.63 271.065 374.661C270.974 374.692 270.851 374.717 270.696 374.735C270.54 374.753 270.347 374.762 270.115 374.762C269.883 374.762 269.69 374.753 269.534 374.735C269.379 374.717 269.255 374.692 269.165 374.661C269.073 374.63 269.008 374.591 268.968 374.542C268.929 374.494 268.909 374.44 268.909 374.378V364.84H265.946C265.885 364.84 265.833 364.822 265.791 364.786C265.748 364.748 265.712 364.693 265.682 364.617C265.651 364.541 265.628 364.441 265.613 364.315C265.597 364.19 265.59 364.039 265.59 363.861C265.59 363.677 265.597 363.523 265.613 363.395C265.628 363.267 265.651 363.164 265.682 363.089C265.712 363.013 265.748 362.957 265.791 362.925C265.835 362.891 265.885 362.875 265.946 362.875H274.287C274.341 362.875 274.392 362.891 274.439 362.925C274.484 362.959 274.521 363.013 274.552 363.089C274.583 363.164 274.606 363.267 274.62 363.395C274.631 363.523 274.638 363.679 274.638 363.861Z" fill="white"/>
<path d="M283.048 373.764C283.048 373.94 283.039 374.088 283.025 374.206C283.008 374.325 282.987 374.422 282.956 374.494C282.926 374.568 282.888 374.62 282.843 374.655C282.798 374.689 282.746 374.705 282.692 374.705H276.748C276.546 374.705 276.377 374.646 276.24 374.527C276.104 374.408 276.035 374.214 276.035 373.945V363.63C276.035 363.361 276.104 363.169 276.24 363.05C276.377 362.931 276.546 362.872 276.748 362.872H282.656C282.71 362.872 282.758 362.888 282.801 362.917C282.845 362.947 282.881 363 282.911 363.077C282.942 363.153 282.965 363.252 282.98 363.37C282.994 363.489 283.003 363.64 283.003 363.824C283.003 363.995 282.996 364.139 282.98 364.258C282.963 364.377 282.942 364.474 282.911 364.546C282.881 364.62 282.845 364.672 282.801 364.706C282.758 364.74 282.71 364.756 282.656 364.756H278.431V367.647H282.008C282.062 367.647 282.112 367.663 282.159 367.698C282.204 367.732 282.242 367.784 282.274 367.854C282.305 367.924 282.328 368.018 282.342 368.137C282.359 368.256 282.366 368.401 282.366 368.571C282.366 368.749 282.359 368.895 282.342 369.01C282.328 369.125 282.305 369.219 282.274 369.289C282.243 369.359 282.206 369.409 282.159 369.44C282.112 369.471 282.063 369.485 282.008 369.485H278.431V372.822H282.692C282.746 372.822 282.796 372.838 282.843 372.873C282.888 372.907 282.926 372.959 282.956 373.033C282.987 373.105 283.01 373.202 283.025 373.321C283.039 373.44 283.048 373.587 283.048 373.764Z" fill="white"/>
<path d="M199.055 263.349C199.055 263.349 204.212 259.268 219.562 271.1C229.863 279.04 227.691 284.515 227.691 284.515L214.63 285.925L206.508 284.53L192.992 275.656L199.055 263.349Z" fill="#070706"/>
<path d="M214.625 286.441C214.595 286.441 214.566 286.438 214.537 286.434L206.415 285.037C206.345 285.025 206.279 285 206.219 284.96L192.703 276.088C192.483 275.944 192.406 275.659 192.523 275.425L198.585 263.121C198.62 263.05 198.668 262.991 198.728 262.942C198.951 262.764 204.381 258.747 219.874 270.688C230.364 278.773 228.262 284.465 228.168 284.704C228.098 284.883 227.934 285.009 227.742 285.028L214.681 286.438C214.663 286.441 214.645 286.441 214.625 286.441ZM206.698 284.035L214.641 285.401L227.276 284.037C227.501 282.849 227.74 278.059 219.242 271.509C205.548 260.955 200.173 263.301 199.453 263.707L193.657 275.472L206.698 284.035Z" fill="#070706"/>
<path d="M209.402 258.831C209.647 264.438 198.59 275.965 198.59 275.965C198.791 275.631 202.111 261.74 201.866 256.133C201.621 250.526 203.759 247.687 206.546 247.567C209.332 247.444 209.156 253.224 209.402 258.831Z" fill="#FC9FAD"/>
<path d="M198.59 275.966C198.59 275.966 223.003 234.193 227.321 236.493C231.64 238.794 223.892 251.968 223.892 251.968C223.892 251.968 228.365 251.831 228.306 255.296C228.306 255.296 232.478 254.956 232.34 258.281C232.34 258.281 237.054 258.556 234.822 265.112C232.59 271.667 217.787 291.284 217.787 291.284L198.59 275.966Z" fill="#FC9FAD"/>
<path d="M220.111 257.442C220 257.442 219.886 257.406 219.791 257.33C219.566 257.152 219.528 256.826 219.705 256.601L223.481 251.811C223.657 251.586 223.985 251.547 224.208 251.725C224.433 251.901 224.473 252.227 224.295 252.452L220.518 257.244C220.416 257.373 220.264 257.442 220.111 257.442Z" fill="#070706"/>
<path d="M224.991 260.941C224.892 260.941 224.791 260.912 224.703 260.853C224.465 260.694 224.401 260.372 224.561 260.134L228.015 254.967C228.173 254.729 228.496 254.664 228.733 254.824C228.971 254.983 229.036 255.305 228.875 255.543L225.421 260.71C225.322 260.86 225.158 260.941 224.991 260.941Z" fill="#070706"/>
<path d="M228.831 263.473C228.724 263.473 228.616 263.441 228.523 263.371C228.292 263.201 228.244 262.876 228.415 262.645L231.883 257.958C232.053 257.729 232.375 257.677 232.609 257.85C232.839 258.019 232.888 258.345 232.717 258.575L229.248 263.263C229.146 263.399 228.989 263.473 228.831 263.473Z" fill="#070706"/>
<path d="M227.691 284.511C227.691 284.511 202.724 335.181 180.9 337.129C148.248 340.047 139.23 292.361 139.23 292.361L142.357 252.698C142.73 252.774 143.108 252.855 143.473 252.936C155.06 255.603 164.436 264.092 168.668 275.195L177.929 295.715L199.053 263.349C194.413 278.125 213.398 285.923 227.691 284.511Z" fill="#789AFE"/>
<path d="M178.12 337.772C165.763 337.772 155.176 330.329 147.369 316.087C141.067 304.591 138.747 292.577 138.724 292.457C138.672 292.176 138.855 291.904 139.136 291.85C139.42 291.8 139.689 291.982 139.743 292.262C139.829 292.721 148.516 336.735 178.099 336.735C178.999 336.735 179.917 336.694 180.856 336.611C200.626 334.847 223.462 291.647 226.81 285.104C217.895 285.728 206.404 282.891 200.874 276.087C197.872 272.392 197.071 267.934 198.561 263.192C198.646 262.921 198.937 262.766 199.211 262.852C199.485 262.939 199.636 263.23 199.551 263.502C198.151 267.957 198.867 271.971 201.68 275.432C207.176 282.193 218.903 284.857 227.642 283.993C227.833 283.966 228.011 284.058 228.119 284.214C228.227 284.369 228.241 284.569 228.159 284.738C227.134 286.817 202.811 335.693 180.95 337.644C179.996 337.73 179.053 337.772 178.12 337.772Z" fill="#070706"/>
<path d="M177.931 296.233C177.918 296.233 177.904 296.233 177.891 296.231C177.702 296.217 177.536 296.1 177.459 295.927L168.198 275.407C168.081 275.146 168.196 274.838 168.457 274.721C168.718 274.604 169.024 274.72 169.143 274.981L178.015 294.638L198.622 263.065C198.778 262.825 199.099 262.757 199.338 262.913C199.577 263.07 199.646 263.39 199.489 263.632L178.364 295.997C178.269 296.145 178.105 296.233 177.931 296.233Z" fill="#070706"/>
<path d="M100.62 229.759C96.4138 235.255 89.5972 237.911 83.2972 240.777C76.999 243.643 70.4308 247.468 67.9252 253.919C65.4844 260.203 67.7722 267.701 72.535 272.471C77.2996 277.241 84.127 279.531 90.8572 279.923C97.5874 280.316 104.296 278.978 110.841 277.362C117.845 275.634 125.129 273.368 130.041 268.087C136.313 261.346 137.277 251.015 135.089 242.073C133.062 233.797 128.484 226.231 122.328 220.369C119.216 217.404 115.692 214.868 111.878 212.884C108.596 211.178 103.61 208.868 104.024 214.751C104.409 220.239 104.125 225.18 100.62 229.759Z" fill="#070706"/>
<path d="M156.25 267.924V403.99H68.3906C68.3906 403.99 70.9376 343.299 71.7854 328.854C72.9248 309.443 61.7324 279.245 75.7796 263.037C90.356 246.215 125.173 249.741 143.632 252.914C150.93 254.169 156.25 260.516 156.25 267.924Z" fill="#789AFE"/>
<path d="M128.544 223.317L130.449 250.263C145.164 269.7 101.231 272.668 103.499 249.855C104.54 243.76 105.051 233.824 105.486 223.316L128.544 223.317Z" fill="#FC9FAD"/>
<path d="M130.278 246.391C130.278 246.391 122.815 242.327 119.44 237.44C116.065 232.553 130.278 233.289 130.278 233.289V246.391Z" fill="#070706"/>
<path d="M144.543 207.52C152.544 221.377 148.437 235.067 139.723 239.609C129.819 244.768 117.524 241.596 109.524 227.74C101.523 213.883 101.081 195.012 110.752 189.428C120.422 183.845 136.542 193.664 144.543 207.52Z" fill="#FC9FAD"/>
<path d="M108.626 212.062C108.626 212.062 128.975 199.827 131.043 187.92C131.043 187.92 114.824 176.92 101.66 190.339C90.1546 202.066 101.019 221.971 101.019 221.971L108.626 212.062Z" fill="#070706"/>
<path d="M105.962 226.239C110.419 226.239 114.033 222.625 114.033 218.168C114.033 213.71 110.419 210.097 105.962 210.097C101.504 210.097 97.8906 213.71 97.8906 218.168C97.8906 222.625 101.504 226.239 105.962 226.239Z" fill="#FC9FAD"/>
<path d="M105.698 222.636C105.58 222.636 105.461 222.629 105.342 222.613C104.032 222.443 102.86 221.4 102.426 220.014C102.064 218.86 102.188 217.506 102.773 216.205C103.164 215.337 103.675 214.705 104.294 214.327C105.344 213.69 106.769 213.751 107.927 214.484C108.838 215.058 109.579 216.023 110.072 217.277C110.177 217.544 110.045 217.844 109.779 217.949C109.516 218.053 109.212 217.924 109.108 217.655C108.82 216.926 108.287 215.935 107.374 215.359C106.559 214.842 105.538 214.783 104.834 215.211C104.397 215.477 104.023 215.954 103.718 216.628C103.238 217.699 103.13 218.791 103.416 219.702C103.726 220.694 104.572 221.466 105.473 221.581C106.123 221.67 106.944 221.356 107.189 220.69C107.353 220.249 107.216 219.704 106.865 219.391C106.516 219.077 105.956 219.006 105.538 219.218C105.283 219.346 104.971 219.245 104.842 218.991C104.712 218.735 104.815 218.424 105.068 218.294C105.864 217.891 106.886 218.023 107.554 218.617C108.222 219.211 108.47 220.212 108.161 221.049C107.812 221.999 106.791 222.636 105.698 222.636Z" fill="#070706"/>
<path d="M133.659 228.833C133.004 228.833 132.365 228.703 131.766 228.441C130.695 227.973 129.276 226.869 128.607 224.275C128.535 223.998 128.702 223.716 128.979 223.644C129.251 223.573 129.539 223.739 129.611 224.016C130.059 225.75 130.947 226.95 132.181 227.49C133.308 227.983 134.629 227.875 135.909 227.186C136.159 227.049 136.476 227.145 136.611 227.397C136.746 227.649 136.653 227.964 136.401 228.099C135.493 228.586 134.561 228.833 133.659 228.833Z" fill="#070706"/>
<path d="M134.753 220.362C134.574 220.362 134.4 220.27 134.304 220.102C134.16 219.854 134.245 219.537 134.493 219.395C134.868 219.177 135.257 218.952 135.543 218.661C135.815 218.383 135.964 218.059 135.951 217.773C135.937 217.415 135.685 217.053 135.383 216.652L132.202 212.429C132.029 212.2 132.076 211.876 132.305 211.704C132.531 211.529 132.857 211.576 133.03 211.806L136.211 216.027C136.526 216.445 136.959 217.019 136.988 217.73C137.012 218.31 136.761 218.896 136.286 219.382C135.901 219.777 135.431 220.048 135.015 220.29C134.929 220.34 134.839 220.362 134.753 220.362Z" fill="#070706"/>
<path d="M140.493 207.013C140.239 207.998 139.071 208.34 137.884 207.778C136.695 207.211 135.944 205.955 136.198 204.97C136.452 203.985 137.62 203.643 138.806 204.207C139.987 204.77 140.746 206.027 140.493 207.013Z" fill="#070706"/>
<path d="M138.025 200.047C139.175 200.891 136.974 201.267 135.71 202.824C134.398 204.426 134.79 205.828 134.067 205.961C133.437 206.21 132.114 204.8 132.85 202.27C133.572 199.672 136.909 199.102 138.025 200.047Z" fill="#070706"/>
<path d="M130.078 215.296C129.825 216.281 128.656 216.623 127.47 216.061C126.28 215.494 125.53 214.238 125.784 213.253C126.037 212.269 127.206 211.927 128.392 212.488C129.573 213.053 130.33 214.312 130.078 215.296Z" fill="#070706"/>
<path d="M127.134 208.211C128.284 209.055 126.083 209.431 124.819 210.988C123.507 212.59 123.899 213.993 123.176 214.126C122.546 214.374 121.223 212.965 121.959 210.434C122.679 207.837 126.016 207.268 127.134 208.211Z" fill="#070706"/>
<path d="M156.257 321.001C155.97 321.001 155.738 320.769 155.738 320.483V292.127C155.738 291.841 155.97 291.609 156.257 291.609C156.543 291.609 156.775 291.841 156.775 292.127V320.483C156.775 320.769 156.543 321.001 156.257 321.001Z" fill="#070706"/>
<path d="M128.296 320.483C132.677 323.595 137.638 357.316 127.109 361.604C127.109 361.604 109.363 354.166 109.513 353.792C109.662 353.417 115.877 327.285 115.877 327.285L128.296 320.483Z" fill="#070706"/>
<path d="M127.107 362.122C127.039 362.122 126.97 362.11 126.907 362.083C126.862 362.065 122.418 360.2 118.048 358.315C108.749 354.303 108.787 354.21 109.03 353.601C109.215 353.005 113.672 334.316 115.373 327.165C115.407 327.022 115.499 326.9 115.629 326.83L128.047 320.028C128.22 319.932 128.434 319.945 128.596 320.06C131.744 322.297 134.91 338.357 133.582 349.818C132.808 356.485 130.637 360.726 127.305 362.083C127.24 362.11 127.174 362.122 127.107 362.122ZM110.099 353.589C111.748 354.514 121.097 358.522 127.105 361.042C130.702 359.41 132.052 353.995 132.55 349.699C133.868 338.341 130.803 323.674 128.232 321.109L116.329 327.629C114.923 333.535 110.826 350.737 110.099 353.589ZM110.018 353.9C110.005 353.943 109.996 353.972 109.993 353.985C110.004 353.956 110.013 353.927 110.018 353.9Z" fill="#070706"/>
<path d="M151.886 322.978C151.592 332.685 130.7 331.818 130.7 331.818L118.652 331.384L122.366 326.086C122.364 326.086 152.213 312.039 151.886 322.978Z" fill="#FC9FAD"/>
<path d="M139.457 360.825L158.991 362.883C162.737 363.277 166.092 360.561 166.486 356.815L170.003 323.407C170.398 319.661 167.681 316.306 163.936 315.912L144.402 313.854C140.656 313.46 137.301 316.176 136.907 319.922L133.39 353.33C132.995 357.076 135.712 360.431 139.457 360.825Z" fill="#34CEC3"/>
<path d="M159.714 363.611C159.453 363.611 159.188 363.598 158.922 363.57L139.388 361.512C137.394 361.302 135.599 360.328 134.337 358.769C133.075 357.21 132.496 355.252 132.706 353.257L136.224 319.849C136.657 315.731 140.36 312.723 144.478 313.168L164.012 315.225C168.13 315.659 171.127 319.362 170.694 323.48L167.175 356.888C166.771 360.738 163.506 363.611 159.714 363.611ZM143.69 314.507C140.596 314.507 137.93 316.851 137.599 319.993L134.082 353.401C133.729 356.762 136.175 359.784 139.534 360.137L159.067 362.194C162.439 362.54 165.448 360.101 165.803 356.742L169.322 323.334C169.675 319.974 167.229 316.951 163.87 316.597L144.336 314.539C144.118 314.518 143.902 314.507 143.69 314.507Z" fill="#070706"/>
<path d="M120.008 327.658C120.008 327.658 149.371 321.503 152.255 326.439C153.713 328.934 151.972 332.019 151.972 332.019C151.972 332.019 156.047 335.79 152.982 338.803C152.982 338.803 156.967 342.131 153.954 344.95C153.954 344.95 157.883 349.294 150.208 353.151C142.531 357.008 123.665 357.903 123.665 357.903L120.008 327.658Z" fill="#FC9FAD"/>
<path d="M144.326 333.637C144.068 333.637 143.845 333.447 143.813 333.184C143.777 332.899 143.978 332.64 144.261 332.604L151.769 331.652C152.057 331.618 152.314 331.818 152.348 332.1C152.384 332.385 152.185 332.644 151.9 332.68L144.392 333.632C144.369 333.637 144.347 333.637 144.326 333.637Z" fill="#070706"/>
<path d="M145.6 340.978C145.361 340.978 145.145 340.81 145.093 340.565C145.035 340.285 145.215 340.011 145.494 339.953L153.043 338.387C153.324 338.332 153.598 338.508 153.655 338.789C153.713 339.07 153.533 339.343 153.254 339.401L145.705 340.967C145.671 340.974 145.636 340.978 145.6 340.978Z" fill="#070706"/>
<path d="M146.791 346.553C146.541 346.553 146.32 346.371 146.28 346.115C146.235 345.833 146.428 345.568 146.712 345.521L153.856 344.393C154.144 344.348 154.405 344.54 154.45 344.825C154.495 345.109 154.303 345.372 154.018 345.419L146.874 346.547C146.845 346.551 146.818 346.553 146.791 346.553Z" fill="#070706"/>
<path d="M79.7018 259.344C67.496 265.475 27.6656 320.544 47.8274 348.624C68.8892 377.959 127.099 361.604 127.099 361.604C122.295 358.908 119.412 327.857 128.286 320.483L76.9802 326.261L91.535 298.008C95.4158 283.916 90.8042 268.852 79.7018 259.344Z" fill="#789AFE"/>
<path d="M92.4403 366.646C84.8641 366.646 76.9297 365.881 69.6145 363.726C69.3391 363.645 69.1825 363.357 69.2635 363.082C69.3445 362.806 69.6343 362.652 69.9079 362.731C92.2513 369.317 120.535 362.747 126.019 361.352C124.023 359.048 122.812 352.971 122.32 347.607C121.487 338.492 122.243 326.524 126.862 321.165L77.0377 326.776C76.8433 326.797 76.6615 326.711 76.5535 326.554C76.4455 326.398 76.4329 326.193 76.5193 326.023L91.0741 297.771C91.2055 297.517 91.5151 297.416 91.7725 297.547C92.0263 297.679 92.1271 297.992 91.9957 298.246L77.8837 325.638L128.228 319.97C128.462 319.945 128.673 320.071 128.763 320.281C128.853 320.492 128.793 320.737 128.617 320.883C123.674 324.99 122.41 337.219 123.352 347.514C123.998 354.584 125.643 360.193 127.353 361.152C127.537 361.255 127.639 361.456 127.614 361.665C127.589 361.872 127.441 362.045 127.24 362.103C127.011 362.167 110.777 366.646 92.4403 366.646Z" fill="#070706"/>
<path d="M94.4412 172.064C108.073 172.064 119.125 161.013 119.125 147.381C119.125 133.748 108.073 122.697 94.4412 122.697C80.809 122.697 69.7578 133.748 69.7578 147.381C69.7578 161.013 80.809 172.064 94.4412 172.064Z" fill="#34CEC3"/>
<path d="M94.444 172.582C80.548 172.582 69.2422 161.276 69.2422 147.38C69.2422 133.484 80.548 122.178 94.444 122.178C108.34 122.178 119.646 133.484 119.646 147.38C119.646 161.276 108.34 172.582 94.444 172.582ZM94.444 123.213C81.1186 123.213 70.2772 134.055 70.2772 147.38C70.2772 160.705 81.1186 171.547 94.444 171.547C107.769 171.547 118.611 160.705 118.611 147.38C118.611 134.055 107.769 123.213 94.444 123.213Z" fill="#070706"/>
<path d="M91.1565 155.874C90.6255 155.874 90.0963 155.672 89.6913 155.267L84.6387 150.214C83.8288 149.406 83.8288 148.092 84.6387 147.282C85.4487 146.472 86.7609 146.472 87.5709 147.282L91.1583 150.87L102.534 139.494C103.344 138.684 104.657 138.684 105.467 139.494C106.277 140.302 106.277 141.616 105.467 142.426L92.6253 155.267C92.2185 155.67 91.6875 155.874 91.1565 155.874Z" fill="white"/>
<path d="M199.055 263.349C199.055 263.349 204.212 259.268 219.562 271.1C229.863 279.04 227.691 284.515 227.691 284.515L214.63 285.925L206.508 284.53L192.992 275.656L199.055 263.349Z" fill="#070706"/>
<path d="M214.625 286.441C214.595 286.441 214.566 286.438 214.537 286.434L206.415 285.037C206.345 285.025 206.279 285 206.219 284.96L192.703 276.088C192.483 275.944 192.406 275.659 192.523 275.425L198.585 263.121C198.62 263.05 198.668 262.991 198.728 262.942C198.951 262.764 204.381 258.747 219.874 270.688C230.364 278.773 228.262 284.465 228.168 284.704C228.098 284.883 227.934 285.009 227.742 285.028L214.681 286.438C214.663 286.441 214.645 286.441 214.625 286.441ZM206.698 284.035L214.641 285.401L227.276 284.037C227.501 282.849 227.74 278.059 219.242 271.509C205.548 260.955 200.173 263.301 199.453 263.707L193.657 275.472L206.698 284.035Z" fill="#070706"/>
<path d="M209.402 258.831C209.647 264.438 198.59 275.965 198.59 275.965C198.791 275.631 202.111 261.74 201.866 256.133C201.621 250.526 203.759 247.687 206.546 247.567C209.332 247.444 209.156 253.224 209.402 258.831Z" fill="#FC9FAD"/>
<path d="M198.59 275.966C198.59 275.966 223.003 234.193 227.321 236.493C231.64 238.794 223.892 251.968 223.892 251.968C223.892 251.968 228.365 251.831 228.306 255.296C228.306 255.296 232.478 254.956 232.34 258.281C232.34 258.281 237.054 258.556 234.822 265.112C232.59 271.667 217.787 291.284 217.787 291.284L198.59 275.966Z" fill="#FC9FAD"/>
<path d="M220.111 257.442C220 257.442 219.886 257.406 219.791 257.33C219.566 257.152 219.528 256.826 219.705 256.601L223.481 251.811C223.657 251.586 223.985 251.547 224.208 251.725C224.433 251.901 224.473 252.227 224.295 252.452L220.518 257.244C220.416 257.373 220.264 257.442 220.111 257.442Z" fill="#070706"/>
<path d="M224.991 260.941C224.892 260.941 224.791 260.912 224.703 260.853C224.465 260.694 224.401 260.372 224.561 260.134L228.015 254.967C228.173 254.729 228.496 254.664 228.733 254.824C228.971 254.983 229.036 255.305 228.875 255.543L225.421 260.71C225.322 260.86 225.158 260.941 224.991 260.941Z" fill="#070706"/>
<path d="M228.831 263.473C228.724 263.473 228.616 263.441 228.523 263.371C228.292 263.201 228.244 262.876 228.415 262.645L231.883 257.958C232.053 257.729 232.375 257.677 232.609 257.85C232.839 258.019 232.888 258.345 232.717 258.575L229.248 263.263C229.146 263.399 228.989 263.473 228.831 263.473Z" fill="#070706"/>
<path d="M227.691 284.511C227.691 284.511 202.724 335.181 180.9 337.129C148.248 340.047 139.23 292.361 139.23 292.361L142.357 252.698C142.73 252.774 143.108 252.855 143.473 252.936C155.06 255.603 164.436 264.092 168.668 275.195L177.929 295.715L199.053 263.349C194.413 278.125 213.398 285.923 227.691 284.511Z" fill="#789AFE"/>
<path d="M178.12 337.772C165.763 337.772 155.176 330.329 147.369 316.087C141.067 304.591 138.747 292.577 138.724 292.457C138.672 292.176 138.855 291.904 139.136 291.85C139.42 291.8 139.689 291.982 139.743 292.262C139.829 292.721 148.516 336.735 178.099 336.735C178.999 336.735 179.917 336.694 180.856 336.611C200.626 334.847 223.462 291.647 226.81 285.104C217.895 285.728 206.404 282.891 200.874 276.087C197.872 272.392 197.071 267.934 198.561 263.192C198.646 262.921 198.937 262.766 199.211 262.852C199.485 262.939 199.636 263.23 199.551 263.502C198.151 267.957 198.867 271.971 201.68 275.432C207.176 282.193 218.903 284.857 227.642 283.993C227.833 283.966 228.011 284.058 228.119 284.214C228.227 284.369 228.241 284.569 228.159 284.738C227.134 286.817 202.811 335.693 180.95 337.644C179.996 337.73 179.053 337.772 178.12 337.772Z" fill="#070706"/>
<path d="M177.931 296.233C177.918 296.233 177.904 296.233 177.891 296.231C177.702 296.217 177.536 296.1 177.459 295.927L168.198 275.407C168.081 275.146 168.196 274.838 168.457 274.721C168.718 274.604 169.024 274.72 169.143 274.981L178.015 294.638L198.622 263.065C198.778 262.825 199.099 262.757 199.338 262.913C199.577 263.07 199.646 263.39 199.489 263.632L178.364 295.997C178.269 296.145 178.105 296.233 177.931 296.233Z" fill="#070706"/>
<path d="M100.62 229.759C96.4138 235.255 89.5972 237.911 83.2972 240.777C76.999 243.643 70.4308 247.468 67.9252 253.919C65.4844 260.203 67.7722 267.701 72.535 272.471C77.2996 277.241 84.127 279.531 90.8572 279.923C97.5874 280.316 104.296 278.978 110.841 277.362C117.845 275.634 125.129 273.368 130.041 268.087C136.313 261.346 137.277 251.015 135.089 242.073C133.062 233.797 128.484 226.231 122.328 220.369C119.216 217.404 115.692 214.868 111.878 212.884C108.596 211.178 103.61 208.868 104.024 214.751C104.409 220.239 104.125 225.18 100.62 229.759Z" fill="#070706"/>
<path d="M156.25 267.924V403.99H68.3906C68.3906 403.99 70.9376 343.299 71.7854 328.854C72.9248 309.443 61.7324 279.245 75.7796 263.037C90.356 246.215 125.173 249.741 143.632 252.914C150.93 254.169 156.25 260.516 156.25 267.924Z" fill="#789AFE"/>
<path d="M128.544 223.317L130.449 250.263C145.164 269.7 101.231 272.668 103.499 249.855C104.54 243.76 105.051 233.824 105.486 223.316L128.544 223.317Z" fill="#FC9FAD"/>
<path d="M130.278 246.391C130.278 246.391 122.815 242.327 119.44 237.44C116.065 232.553 130.278 233.289 130.278 233.289V246.391Z" fill="#070706"/>
<path d="M144.543 207.52C152.544 221.377 148.437 235.067 139.723 239.609C129.819 244.768 117.524 241.596 109.524 227.74C101.523 213.883 101.081 195.012 110.752 189.428C120.422 183.845 136.542 193.664 144.543 207.52Z" fill="#FC9FAD"/>
<path d="M108.626 212.062C108.626 212.062 128.975 199.827 131.043 187.92C131.043 187.92 114.824 176.92 101.66 190.339C90.1546 202.066 101.019 221.971 101.019 221.971L108.626 212.062Z" fill="#070706"/>
<path d="M105.962 226.239C110.419 226.239 114.033 222.625 114.033 218.168C114.033 213.71 110.419 210.097 105.962 210.097C101.504 210.097 97.8906 213.71 97.8906 218.168C97.8906 222.625 101.504 226.239 105.962 226.239Z" fill="#FC9FAD"/>
<path d="M105.698 222.636C105.58 222.636 105.461 222.629 105.342 222.613C104.032 222.443 102.86 221.4 102.426 220.014C102.064 218.86 102.188 217.506 102.773 216.205C103.164 215.337 103.675 214.705 104.294 214.327C105.344 213.69 106.769 213.751 107.927 214.484C108.838 215.058 109.579 216.023 110.072 217.277C110.177 217.544 110.045 217.844 109.779 217.949C109.516 218.053 109.212 217.924 109.108 217.655C108.82 216.926 108.287 215.935 107.374 215.359C106.559 214.842 105.538 214.783 104.834 215.211C104.397 215.477 104.023 215.954 103.718 216.628C103.238 217.699 103.13 218.791 103.416 219.702C103.726 220.694 104.572 221.466 105.473 221.581C106.123 221.67 106.944 221.356 107.189 220.69C107.353 220.249 107.216 219.704 106.865 219.391C106.516 219.077 105.956 219.006 105.538 219.218C105.283 219.346 104.971 219.245 104.842 218.991C104.712 218.735 104.815 218.424 105.068 218.294C105.864 217.891 106.886 218.023 107.554 218.617C108.222 219.211 108.47 220.212 108.161 221.049C107.812 221.999 106.791 222.636 105.698 222.636Z" fill="#070706"/>
<path d="M133.659 228.833C133.004 228.833 132.365 228.703 131.766 228.441C130.695 227.973 129.276 226.869 128.607 224.275C128.535 223.998 128.702 223.716 128.979 223.644C129.251 223.573 129.539 223.739 129.611 224.016C130.059 225.75 130.947 226.95 132.181 227.49C133.308 227.983 134.629 227.875 135.909 227.186C136.159 227.049 136.476 227.145 136.611 227.397C136.746 227.649 136.653 227.964 136.401 228.099C135.493 228.586 134.561 228.833 133.659 228.833Z" fill="#070706"/>
<path d="M134.753 220.362C134.574 220.362 134.4 220.27 134.304 220.102C134.16 219.854 134.245 219.537 134.493 219.395C134.868 219.177 135.257 218.952 135.543 218.661C135.815 218.383 135.964 218.059 135.951 217.773C135.937 217.415 135.685 217.053 135.383 216.652L132.202 212.429C132.029 212.2 132.076 211.876 132.305 211.704C132.531 211.529 132.857 211.576 133.03 211.806L136.211 216.027C136.526 216.445 136.959 217.019 136.988 217.73C137.012 218.31 136.761 218.896 136.286 219.382C135.901 219.777 135.431 220.048 135.015 220.29C134.929 220.34 134.839 220.362 134.753 220.362Z" fill="#070706"/>
<path d="M140.493 207.013C140.239 207.998 139.071 208.34 137.884 207.778C136.695 207.211 135.944 205.955 136.198 204.97C136.452 203.985 137.62 203.643 138.806 204.207C139.987 204.77 140.746 206.027 140.493 207.013Z" fill="#070706"/>
<path d="M138.025 200.047C139.175 200.891 136.974 201.267 135.71 202.824C134.398 204.426 134.79 205.828 134.067 205.961C133.437 206.21 132.114 204.8 132.85 202.27C133.572 199.672 136.909 199.102 138.025 200.047Z" fill="#070706"/>
<path d="M130.078 215.296C129.825 216.281 128.656 216.623 127.47 216.061C126.28 215.494 125.53 214.238 125.784 213.253C126.037 212.269 127.206 211.927 128.392 212.488C129.573 213.053 130.33 214.312 130.078 215.296Z" fill="#070706"/>
<path d="M127.134 208.211C128.284 209.055 126.083 209.431 124.819 210.988C123.507 212.59 123.899 213.993 123.176 214.126C122.546 214.374 121.223 212.965 121.959 210.434C122.679 207.837 126.016 207.268 127.134 208.211Z" fill="#070706"/>
<path d="M156.257 321.001C155.97 321.001 155.738 320.769 155.738 320.483V292.127C155.738 291.841 155.97 291.609 156.257 291.609C156.543 291.609 156.775 291.841 156.775 292.127V320.483C156.775 320.769 156.543 321.001 156.257 321.001Z" fill="#070706"/>
<path d="M128.296 320.483C132.677 323.595 137.638 357.316 127.109 361.604C127.109 361.604 109.363 354.166 109.513 353.792C109.662 353.417 115.877 327.285 115.877 327.285L128.296 320.483Z" fill="#070706"/>
<path d="M127.107 362.122C127.039 362.122 126.97 362.11 126.907 362.083C126.862 362.065 122.418 360.2 118.048 358.315C108.749 354.303 108.787 354.21 109.03 353.601C109.215 353.005 113.672 334.316 115.373 327.165C115.407 327.022 115.499 326.9 115.629 326.83L128.047 320.028C128.22 319.932 128.434 319.945 128.596 320.06C131.744 322.297 134.91 338.357 133.582 349.818C132.808 356.485 130.637 360.726 127.305 362.083C127.24 362.11 127.174 362.122 127.107 362.122ZM110.099 353.589C111.748 354.514 121.097 358.522 127.105 361.042C130.702 359.41 132.052 353.995 132.55 349.699C133.868 338.341 130.803 323.674 128.232 321.109L116.329 327.629C114.923 333.535 110.826 350.737 110.099 353.589ZM110.018 353.9C110.005 353.943 109.996 353.972 109.993 353.985C110.004 353.956 110.013 353.927 110.018 353.9Z" fill="#070706"/>
<path d="M151.886 322.978C151.592 332.685 130.7 331.818 130.7 331.818L118.652 331.384L122.366 326.086C122.364 326.086 152.213 312.039 151.886 322.978Z" fill="#FC9FAD"/>
<path d="M139.457 360.825L158.991 362.883C162.737 363.277 166.092 360.561 166.486 356.815L170.003 323.407C170.398 319.661 167.681 316.306 163.936 315.912L144.402 313.854C140.656 313.46 137.301 316.176 136.907 319.922L133.39 353.33C132.995 357.076 135.712 360.431 139.457 360.825Z" fill="#34CEC3"/>
<path d="M159.714 363.611C159.453 363.611 159.188 363.598 158.922 363.57L139.388 361.512C137.394 361.302 135.599 360.328 134.337 358.769C133.075 357.21 132.496 355.252 132.706 353.257L136.224 319.849C136.657 315.731 140.36 312.723 144.478 313.168L164.012 315.225C168.13 315.659 171.127 319.362 170.694 323.48L167.175 356.888C166.771 360.738 163.506 363.611 159.714 363.611ZM143.69 314.507C140.596 314.507 137.93 316.851 137.599 319.993L134.082 353.401C133.729 356.762 136.175 359.784 139.534 360.137L159.067 362.194C162.439 362.54 165.448 360.101 165.803 356.742L169.322 323.334C169.675 319.974 167.229 316.951 163.87 316.597L144.336 314.539C144.118 314.518 143.902 314.507 143.69 314.507Z" fill="#070706"/>
<path d="M120.008 327.658C120.008 327.658 149.371 321.503 152.255 326.439C153.713 328.934 151.972 332.019 151.972 332.019C151.972 332.019 156.047 335.79 152.982 338.803C152.982 338.803 156.967 342.131 153.954 344.95C153.954 344.95 157.883 349.294 150.208 353.151C142.531 357.008 123.665 357.903 123.665 357.903L120.008 327.658Z" fill="#FC9FAD"/>
<path d="M144.326 333.637C144.068 333.637 143.845 333.447 143.813 333.184C143.777 332.899 143.978 332.64 144.261 332.604L151.769 331.652C152.057 331.618 152.314 331.818 152.348 332.1C152.384 332.385 152.185 332.644 151.9 332.68L144.392 333.632C144.369 333.637 144.347 333.637 144.326 333.637Z" fill="#070706"/>
<path d="M145.6 340.978C145.361 340.978 145.145 340.81 145.093 340.565C145.035 340.285 145.215 340.011 145.494 339.953L153.043 338.387C153.324 338.332 153.598 338.508 153.655 338.789C153.713 339.07 153.533 339.343 153.254 339.401L145.705 340.967C145.671 340.974 145.636 340.978 145.6 340.978Z" fill="#070706"/>
<path d="M146.791 346.553C146.541 346.553 146.32 346.371 146.28 346.115C146.235 345.833 146.428 345.568 146.712 345.521L153.856 344.393C154.144 344.348 154.405 344.54 154.45 344.825C154.495 345.109 154.303 345.372 154.018 345.419L146.874 346.547C146.845 346.551 146.818 346.553 146.791 346.553Z" fill="#070706"/>
<path d="M79.7018 259.344C67.496 265.475 27.6656 320.544 47.8274 348.624C68.8892 377.959 127.099 361.604 127.099 361.604C122.295 358.908 119.412 327.857 128.286 320.483L76.9802 326.261L91.535 298.008C95.4158 283.916 90.8042 268.852 79.7018 259.344Z" fill="#789AFE"/>
<path d="M92.4403 366.646C84.8641 366.646 76.9297 365.881 69.6145 363.726C69.3391 363.645 69.1825 363.357 69.2635 363.082C69.3445 362.806 69.6343 362.652 69.9079 362.731C92.2513 369.317 120.535 362.747 126.019 361.352C124.023 359.048 122.812 352.971 122.32 347.607C121.487 338.492 122.243 326.524 126.862 321.165L77.0377 326.776C76.8433 326.797 76.6615 326.711 76.5535 326.554C76.4455 326.398 76.4329 326.193 76.5193 326.023L91.0741 297.771C91.2055 297.517 91.5151 297.416 91.7725 297.547C92.0263 297.679 92.1271 297.992 91.9957 298.246L77.8837 325.638L128.228 319.97C128.462 319.945 128.673 320.071 128.763 320.281C128.853 320.492 128.793 320.737 128.617 320.883C123.674 324.99 122.41 337.219 123.352 347.514C123.998 354.584 125.643 360.193 127.353 361.152C127.537 361.255 127.639 361.456 127.614 361.665C127.589 361.872 127.441 362.045 127.24 362.103C127.011 362.167 110.777 366.646 92.4403 366.646Z" fill="#070706"/>
<path d="M95.5895 348.599C93.4097 348.599 91.6367 346.826 91.6367 344.646C91.6367 342.466 93.4097 340.693 95.5895 340.693C97.7693 340.693 99.5423 342.466 99.5423 344.646C99.5423 346.826 97.7675 348.599 95.5895 348.599ZM95.5895 341.73C93.9821 341.73 92.6735 343.039 92.6735 344.646C92.6735 346.254 93.9821 347.562 95.5895 347.562C97.1969 347.562 98.5055 346.254 98.5055 344.646C98.5055 343.039 97.1969 341.73 95.5895 341.73Z" fill="white"/>
<path d="M53.6112 334.893C49.9014 334.893 46.8828 331.875 46.8828 328.165C46.8828 324.455 49.9014 321.437 53.6112 321.437C57.3228 321.437 60.3396 324.455 60.3396 328.165C60.3396 331.875 57.321 334.893 53.6112 334.893ZM53.6112 322.472C50.472 322.472 47.9196 325.026 47.9196 328.165C47.9196 331.304 50.4738 333.858 53.6112 333.858C56.7504 333.858 59.3046 331.304 59.3046 328.165C59.3046 325.026 56.7504 322.472 53.6112 322.472Z" fill="white"/>
<path d="M72.9772 293.963C70.9162 293.963 69.2422 292.287 69.2422 290.228C69.2422 288.167 70.918 286.493 72.9772 286.493C75.0364 286.493 76.7122 288.169 76.7122 290.228C76.7122 292.287 75.0364 293.963 72.9772 293.963ZM72.9772 287.528C71.4886 287.528 70.2772 288.74 70.2772 290.228C70.2772 291.717 71.4886 292.926 72.9772 292.926C74.4658 292.926 75.6754 291.715 75.6754 290.228C75.6754 288.74 74.464 287.528 72.9772 287.528Z" fill="white"/>
<path d="M126.886 306.378C123.601 306.378 120.926 303.705 120.926 300.419C120.926 297.132 123.599 294.459 126.886 294.459C130.172 294.459 132.845 297.132 132.845 300.419C132.845 303.705 130.171 306.378 126.886 306.378ZM126.886 295.496C124.171 295.496 121.963 297.704 121.963 300.419C121.963 303.133 124.171 305.342 126.886 305.342C129.6 305.342 131.809 303.133 131.809 300.419C131.809 297.704 129.6 295.496 126.886 295.496Z" fill="white"/>
<path d="M70.6887 350.572C69.1389 350.572 67.8789 349.312 67.8789 347.762C67.8789 346.212 69.1389 344.952 70.6887 344.952C72.2385 344.952 73.4985 346.212 73.4985 347.762C73.5003 349.312 72.2385 350.572 70.6887 350.572ZM70.6887 345.989C69.7113 345.989 68.9157 346.784 68.9157 347.762C68.9157 348.741 69.7113 349.537 70.6887 349.537C71.6679 349.537 72.4635 348.741 72.4635 347.762C72.4635 346.784 71.6679 345.989 70.6887 345.989Z" fill="white"/>
<path d="M102.596 280.091C100.342 280.091 98.5078 278.257 98.5078 276.003C98.5078 273.749 100.342 271.915 102.596 271.915C104.849 271.915 106.683 273.749 106.683 276.003C106.682 278.258 104.849 280.091 102.596 280.091ZM102.596 272.952C100.913 272.952 99.5446 274.322 99.5446 276.003C99.5446 277.686 100.914 279.054 102.596 279.054C104.279 279.054 105.647 277.686 105.647 276.003C105.645 274.322 104.277 272.952 102.596 272.952Z" fill="white"/>
<path d="M136.432 385.455C133.88 385.455 131.805 383.378 131.805 380.827C131.805 378.275 133.882 376.2 136.432 376.2C138.983 376.2 141.06 378.277 141.06 380.827C141.062 383.38 138.985 385.455 136.432 385.455ZM136.432 377.235C134.452 377.235 132.84 378.846 132.84 380.827C132.84 382.807 134.451 384.42 136.432 384.42C138.412 384.42 140.025 382.809 140.025 380.827C140.025 378.846 138.412 377.235 136.432 377.235Z" fill="white"/>
<path d="M105.675 393.358C101.723 393.358 98.5078 390.143 98.5078 386.19C98.5078 382.237 101.723 379.022 105.675 379.022C109.628 379.022 112.843 382.237 112.843 386.19C112.843 390.143 109.628 393.358 105.675 393.358ZM105.675 380.057C102.293 380.057 99.5428 382.808 99.5428 386.19C99.5428 389.572 102.293 392.323 105.675 392.323C109.058 392.323 111.808 389.572 111.808 386.19C111.808 382.808 109.056 380.057 105.675 380.057Z" fill="white"/>
<path d="M192.099 316.781C189.068 316.781 186.602 314.315 186.602 311.283C186.602 308.252 189.068 305.786 192.099 305.786C195.13 305.786 197.596 308.252 197.596 311.283C197.596 314.315 195.13 316.781 192.099 316.781ZM192.099 306.823C189.64 306.823 187.638 308.825 187.638 311.283C187.638 313.742 189.64 315.744 192.099 315.744C194.558 315.744 196.559 313.742 196.559 311.283C196.559 308.825 194.559 306.823 192.099 306.823Z" fill="white"/>
<path d="M170.896 301.943C168.41 301.943 166.387 299.919 166.387 297.434C166.387 294.948 168.41 292.925 170.896 292.925C173.382 292.925 175.405 294.948 175.405 297.434C175.403 299.921 173.382 301.943 170.896 301.943ZM170.896 293.963C168.981 293.963 167.424 295.52 167.424 297.435C167.424 299.351 168.981 300.908 170.896 300.908C172.811 300.908 174.368 299.351 174.368 297.435C174.368 295.52 172.809 293.963 170.896 293.963Z" fill="white"/>
</svg>
