<svg width="34" height="48" viewBox="0 0 34 48" fill="none" xmlns="http://www.w3.org/2000/svg">
<path d="M34 45.1175C31.1644 45.1601 28.6762 45.2027 26.4939 45.2453C26.8692 45.1033 26.9248 44.9471 26.9248 44.9471C26.9248 44.9471 27.0916 44.7199 26.4939 44.4643C25.8962 44.2087 25.3123 43.5271 24.9509 43.5697C24.6034 43.6123 24.2559 43.7401 24.0335 43.7401C24.0335 43.7401 24.4783 43.5271 24.7007 43.3141C24.7007 43.3141 23.5748 43.6691 22.9215 43.3851C22.9215 43.3851 23.3941 43.1721 23.825 42.8882C23.825 42.8882 23.7694 42.4906 23.269 42.59C22.7686 42.6752 22.4767 42.9308 21.9902 42.9592C21.5037 42.9876 21.2535 42.9024 21.2535 42.9024C21.2535 42.9024 21.879 42.519 22.3377 42.3486C22.713 42.2066 23.3385 42.1356 23.3385 42.1356C23.4497 42.0788 23.825 41.0138 25.7572 37.8331C26.0908 37.2935 26.6885 36.4274 27.1194 35.7884C27.5364 35.1636 27.8839 34.3968 27.8283 33.914C27.7727 33.4029 27.2167 31.2587 26.1742 30.5203C25.1455 29.782 24.6173 29.3702 24.6173 29.3702C24.6173 29.3702 25.4235 29.6258 26.0074 30.0234C26.5912 30.4209 27.0221 30.4209 27.0221 30.4209C27.0221 30.4209 26.6329 29.6826 26.4939 29.3702C26.3549 29.0578 24.9648 28.3478 24.5061 28.2342C24.0613 28.1206 22.3099 29.1998 21.9485 29.7678C22.0041 29.5406 22.1014 29.3276 22.2126 29.1714C22.5879 28.6744 23.7277 28.007 23.7277 28.007C23.7277 28.007 21.462 28.7028 20.6975 29.7252C20.6975 29.7252 21.6705 28.0638 23.3524 27.3822C24.3532 26.9705 25.354 27.0273 25.354 27.0273C24.8258 26.1469 23.1161 24.0311 23.1022 24.0311C21.601 23.7188 18.5568 24.3151 18.5568 24.3151C19.0711 23.9459 20.6836 23.6478 21.5454 23.5058C21.879 23.449 22.1153 23.4206 22.1153 23.4206C22.1153 23.4206 22.1153 23.3354 22.1014 23.1792C22.0458 22.526 21.6705 19.6293 21.1701 18.2093C20.4751 16.2214 19.7244 14.6736 19.7244 14.6736C19.7244 14.6736 20.6836 15.6534 21.6566 17.045C22.3099 17.9821 22.7269 19.6435 22.7269 19.6435C22.435 16.4202 20.0025 12.6999 20.0025 12.6999C21.2952 13.7223 22.4628 15.2984 23.2273 16.6332C23.0605 13.6939 22.2404 11.1379 21.1562 10.3996C21.5315 10.641 22.4489 11.2515 22.9493 12.0467C22.9493 12.0467 23.8528 10.783 24.2976 10.2718C24.9092 9.57599 25.5208 9.1358 25.5208 9.1358C25.5208 9.1358 25.493 9.0648 25.4374 8.95121C25.5347 8.85181 25.632 8.73822 25.7433 8.62462C26.341 8.05664 26.4661 7.73005 26.4661 7.73005C26.1603 7.94304 25.6182 8.07083 25.6182 8.07083C25.6182 8.07083 26.1881 7.65905 26.5495 7.23306C26.9109 6.82127 27.1333 6.55148 27.1333 6.55148C26.9804 6.94907 26.8831 7.36086 26.8831 7.36086C27.1611 7.21886 27.8839 6.90647 28.4538 6.0261C29.0237 5.13153 29.9133 3.91036 30.2747 3.44178C30.6361 2.97319 31.0809 2.22062 31.0809 2.22062C31.0809 2.50461 31.1365 2.98739 31.1365 2.98739C31.2617 2.8454 31.8455 2.36261 31.915 2.30581C32.1235 2.17802 32.6239 2.12122 32.7073 2.06442C32.8463 1.95082 32.8602 1.69523 32.8602 1.69523C32.7629 1.82303 32.5266 1.85143 32.5266 1.85143C32.5961 1.72363 32.7768 1.72363 32.7351 1.39704C32.7073 1.21245 32.5544 1.07045 32.5544 1.07045C32.5544 1.07045 32.6378 1.73783 32.3876 1.75203L31.7899 1.82303C31.7899 1.82303 32.1513 1.68103 32.2347 1.51064C32.3181 1.35444 32.2069 0.885857 32.1096 0.772261C31.9984 0.672864 31.6509 0.559266 31.7065 0.545067C31.7621 0.530867 32.2347 0.374673 32.4154 0.346274C32.5961 0.317875 32.7351 0.190078 32.5544 0.0906813C32.3737 -0.00871561 31.7204 0.00548417 31.7204 0.00548417C31.4146 -0.0513141 30.9975 0.346273 30.8168 0.587666C30.6361 0.829058 30.7195 1.22665 30.6361 1.69523C30.5527 2.17802 29.7187 2.98739 29.7187 2.98739C29.8577 2.6892 29.9272 2.22062 29.9272 2.22062C29.9272 2.22062 29.0376 3.08679 28.0368 3.41338C27.036 3.73997 25.7294 4.98953 25.1177 5.67111C24.8258 5.9977 24.4088 6.23909 23.9779 6.45209C24.5478 6.72188 24.8119 7.54545 24.9231 7.91464C24.9509 8.01404 24.9648 8.08503 24.9787 8.09923C24.9787 8.09923 24.52 7.48865 24.0474 7.20466C23.7416 7.02007 23.4497 6.89227 23.2134 6.82127C23.0327 6.76447 22.8937 6.72188 22.8103 6.70768L20.7531 7.38926C20.6836 7.26146 20.5307 7.16206 20.5307 7.16206C20.5168 7.54545 20.2249 8.66722 19.641 9.292C19.5298 9.41979 19.363 9.54759 19.2101 9.66118C19.0016 9.74638 18.807 9.41979 18.8487 9.3062C18.8765 9.2352 19.1823 9.1784 19.1823 9.1784C19.1823 9.1784 19.0294 9.1074 18.9043 9.1074C18.7375 9.1074 18.5707 9.0932 18.5707 9.0932C18.5707 9.0932 18.8487 8.93701 19.0572 8.92281C19.2657 8.90861 19.5715 8.83761 19.5715 8.83761C19.5715 8.83761 19.3491 8.75242 19.1545 8.69562C18.946 8.63882 18.6263 8.61042 18.6263 8.61042C18.6263 8.61042 18.6263 8.61042 18.7514 8.48262C18.8765 8.35483 19.2101 8.14183 19.2101 8.14183L18.8348 6.97747C18.8348 6.97747 18.6819 6.86387 18.5012 6.83547C18.3205 6.80707 17.7645 6.59408 17.7645 6.59408L18.529 6.60828L18.2371 5.20252C18.2371 5.20252 18.7792 5.30192 19.0989 5.23092C19.4047 5.17412 20.1415 4.70554 20.1415 4.70554L20.5863 5.75631C20.5863 5.75631 20.5585 5.14573 20.5168 4.89013C20.4751 4.63454 20.2388 3.68317 20.1276 3.48438C19.933 3.17199 19.5159 2.98739 19.5159 2.98739C18.3622 2.50461 16.5413 2.6608 15.888 3.82517C15.6934 4.18016 15.5266 4.70554 15.7768 5.54331C15.9436 6.0687 16.0548 6.22489 16.0548 6.22489C16.0548 6.22489 15.6239 6.26749 15.61 6.43788C15.5961 6.62248 15.6934 7.14786 15.9297 7.40346C16.166 7.65905 16.4996 7.90044 16.4996 7.90044C16.4996 7.90044 16.4996 7.90044 16.6386 8.31223C16.6803 8.42582 16.7359 8.56782 16.8054 8.70981C16.5552 8.99381 16.1382 9.40559 15.7212 9.63279C15.054 9.98777 14.0948 10.5984 14.0392 10.641C13.7612 10.8113 13.5388 10.9675 13.4137 11.1095C13.8029 10.9533 14.2477 10.8114 14.6231 10.6836C15.054 10.5416 15.3876 10.4422 15.3876 10.4422C15.3876 10.4422 15.2625 10.5416 15.054 10.6978C14.8038 10.8823 14.4424 11.1237 13.9836 11.3935C13.1913 11.8479 12.2322 12.7709 11.7735 13.3531C11.148 14.205 10.592 14.9576 10.592 14.9576C10.592 14.9576 10.8144 15.057 11.0924 15.2132C10.8978 15.7954 10.4669 17.1018 10.2306 17.4709C9.92477 17.9395 9.59117 18.5217 9.59117 18.5217L9.93867 18.4365C10.3835 18.4223 10.7727 18.7063 10.7727 18.7063C10.7727 18.7063 9.67457 19.2317 9.02126 20.1405C8.36795 21.0492 8.35405 22.2136 8.35405 22.2136C8.18724 22.0432 7.75634 21.6314 7.53393 21.4042C7.52003 21.4468 7.50613 21.4894 7.49223 21.532C7.47833 21.5604 7.46443 21.5888 7.46443 21.6172C7.56173 22.0432 7.72854 22.739 7.88144 23.0088C8.27065 23.6762 9.02126 24.1731 9.02126 24.1731C9.02126 24.1731 7.45053 23.4632 7.00572 22.8526C7.00572 22.8526 7.24203 23.6194 7.63123 24.1305C7.56173 24.1163 7.49223 24.0879 7.42273 24.0595C7.15863 23.9601 6.89452 23.7614 6.67212 23.5342C6.64432 23.9601 6.74162 24.1731 6.95012 24.3151C7.20033 24.4855 7.24203 24.6417 7.50613 24.6701C7.77024 24.6985 7.65903 24.6985 8.00654 24.9115C8.35405 25.1103 8.21504 24.7411 8.57645 24.8405C8.93786 24.9541 8.96566 24.7269 8.96566 24.7269C8.96566 24.7269 9.24366 24.9115 9.36876 24.7553C9.47997 24.5849 9.45217 24.3293 9.53557 23.8465C9.61897 23.3638 9.49387 23.378 9.25756 23.094C9.03516 22.81 8.78495 22.4692 8.78495 22.4692C8.78495 22.4692 8.88226 21.9864 9.27146 21.5462C9.66067 21.0918 10.3418 20.6658 10.731 20.2825C11.1619 19.8707 11.1758 19.4873 11.426 19.1181C11.6901 18.5501 11.6206 18.4081 11.8847 17.8685C11.9264 17.7691 12.6075 17.1302 12.5102 16.9172C12.2461 16.3918 11.9542 15.9232 11.704 15.5682C11.7874 15.625 11.8708 15.696 11.9403 15.7528C12.4546 16.193 12.9828 16.7468 12.9828 16.7468C12.9828 16.7468 13.4137 16.2356 13.789 15.838C13.789 15.838 14.5119 15.1848 15.8046 13.6655C15.8046 13.6655 15.193 15.2274 14.8733 15.98C14.8733 15.9942 14.8594 16.0084 14.8594 16.0226C15.4154 15.6108 15.9992 15.1138 15.9992 15.1138C15.9992 15.1138 14.6092 17.3857 14.2895 18.7205C14.2617 19.2033 14.4841 20.7084 14.3312 21.5888C14.4146 21.5462 14.4841 21.5178 14.5675 21.4894C15.5961 21.106 17 21.1344 17 21.1344C16.6386 21.1912 16.1938 21.3332 15.7351 21.5178C14.8872 21.8586 14.0114 22.3698 13.65 22.7958L13.6083 22.8242C13.3998 23.1366 13.233 23.4206 13.1496 23.6052C13.1496 23.6052 13.6222 23.2076 14.4424 22.9662L14.4285 22.9804C14.8594 22.8526 15.6934 22.6538 16.7081 22.5118C17.9452 22.3556 19.5298 22.6396 20.072 22.7532C20.1971 22.7816 20.2666 22.7958 20.2666 22.7958C20.2249 22.7958 20.1971 22.7958 20.1554 22.7958C18.5707 22.6964 17.4587 22.739 15.8741 23.2076C15.4154 23.3496 14.7621 23.6336 14.1643 23.9175L14.1504 23.9033C14.1504 23.9033 13.7056 24.1163 13.2469 24.3577C13.0384 24.4571 12.8299 24.5707 12.677 24.6701C12.5658 24.7411 12.4685 24.7979 12.399 24.8405C12.1905 24.9967 11.9403 25.8487 11.7596 26.5303C11.0507 27.6094 10.2167 28.8448 10.2167 28.8448C10.2167 28.8448 9.16026 30.279 8.95176 30.7191C8.95176 30.7191 8.45135 30.9321 7.67293 31.4291C7.67293 31.4291 8.18724 30.6623 8.91006 30.4067C8.91006 30.4067 8.24284 30.2222 7.92314 30.4067C7.92314 30.4067 8.08994 29.8814 8.78495 29.7394C8.78495 29.7394 8.27065 28.9726 7.63123 28.6034C7.40883 28.4756 7.22813 28.291 7.06132 28.0922C6.95012 27.652 7.21423 27.581 7.36713 27.2118C7.54783 26.7291 7.39493 26.4025 6.96402 26.2321C6.53311 26.0759 5.28209 26.3883 5.28209 26.3883C5.28209 26.3883 5.9354 25.9623 6.43581 25.9197C6.43581 25.9197 5.17089 25.8061 3.93377 25.4795C2.90515 25.2097 2.08504 25.2381 1.32052 25.5363C0.681112 25.7777 1.05642 26.5019 1.41782 26.7717C1.77923 27.0415 2.25184 27.2686 2.25184 27.2686C2.25184 27.2686 2.07114 26.7575 2.66885 26.5019C2.66885 26.5019 2.43254 27.0556 2.55765 27.4816L2.82175 27.6378C2.82175 27.6378 2.69665 26.9563 3.33606 26.6581C3.33606 26.6581 3.01635 27.3964 3.12755 27.8082L3.58626 27.9786C3.58626 27.9786 3.61406 26.9705 4.25347 26.7291C4.25347 26.7291 3.90597 27.6236 4.15617 28.0638C4.28128 28.2768 4.50368 28.3904 4.85119 28.4472C4.94849 28.5608 5.04579 28.6602 5.11529 28.7596C5.35159 29.143 5.4767 30.6055 6.03271 31.6563C6.58872 32.6929 7.53393 34.2548 8.52085 34.553C9.50777 34.837 10.6059 34.2264 11.4955 33.4312L12.3156 32.6361C12.3156 32.6361 11.5372 32.3805 11.009 31.7273C11.009 31.7273 11.5372 31.8409 11.8569 31.9403C12.1766 32.0539 12.9967 32.1249 12.9967 32.1249C12.9967 32.1249 11.8291 31.2871 11.4399 30.9605C11.2175 30.7759 11.0368 30.066 10.9256 29.5122C11.6901 30.2506 12.8716 31.3723 13.3859 31.7131C14.3729 32.3663 14.8038 32.2953 14.8038 32.2953C14.8038 32.2953 16.6803 30.0376 17.3058 29.5406C17.3058 29.5406 15.4988 29.8104 14.1087 29.853C14.1087 29.853 16.166 29.1714 17.2224 28.6744C17.2224 28.6744 15.7212 28.4614 15.0262 28.6318C15.0262 28.6318 16.8332 28.1774 18.0981 27.581C19.363 26.9989 21.74 26.1611 22.4767 26.1753C22.4767 26.1753 19.8495 26.8995 18.9599 27.9502C18.9599 27.9502 19.9051 27.7798 20.4334 27.865C20.4334 27.865 18.6263 29.1572 18.39 29.498C18.39 29.498 19.8356 31.0457 20.6558 31.8835C21.4759 32.7213 22.6991 32.9627 22.6991 32.9627C22.6991 32.9627 22.3655 32.5509 22.0458 31.5853C21.9207 31.2161 21.8651 30.8469 21.8512 30.5061C21.9346 30.8611 22.157 31.2587 22.4211 31.6989C22.7547 32.2243 24.0613 33.63 24.1725 33.8288C24.937 33.2325 25.5069 33.2325 25.5069 33.2325C25.1594 33.4597 24.3949 34.2264 24.3949 34.2264C24.3949 34.2264 23.13 35.8026 22.7269 36.7113C22.3238 37.6343 21.8234 39.5371 21.5732 40.0198C21.5732 40.0198 23.2134 37.5775 23.7694 36.6545C23.7694 36.6545 22.852 38.8413 22.1292 40.2186C21.4481 41.525 21.0311 42.2918 20.8365 42.6326C20.6975 42.874 20.5724 43.1012 20.3778 43.4703C20.3639 43.4703 20.3639 43.4845 20.35 43.4987C20.2527 43.6691 20.1554 43.8537 20.0859 44.0099C20.0581 44.0667 20.0303 44.1235 20.0164 44.1803C19.9886 44.2655 19.5715 45.0181 20.1415 45.2879C10.8144 45.4441 10.7727 45.4441 10.1194 45.4583C9.49387 46.2677 8.53475 46.7788 7.43663 46.7788C6.79722 46.7788 6.18561 46.5942 5.6713 46.2818C6.10221 46.4948 6.57482 46.6084 7.07522 46.6084C8.06214 46.6084 8.93786 46.1683 9.53557 45.4725C10.0499 44.8761 10.3696 44.0951 10.3696 43.2289C10.3696 42.093 9.82747 41.099 8.99346 40.4884C8.96566 40.4884 6.68602 40.389 5.5601 42.093C5.5601 42.093 5.6991 40.8008 6.50531 40.0624C6.56092 40.0056 6.61652 39.963 6.67212 39.9204C6.54702 39.9772 6.43581 40.0482 6.31071 40.1192C5.22649 40.8008 4.47588 42.0078 4.47588 44.0099C4.47588 44.0099 4.10057 42.9876 4.44808 41.6954C4.53148 41.383 4.65658 41.0564 4.83729 40.7298C4.18397 41.3404 3.76697 42.235 3.76697 43.2147C3.76697 44.4217 4.39248 45.4725 5.32379 46.0689L0 48L34 45.1175Z" fill="#E73725"/>
<path d="M20.5453 6.45209C20.5453 6.45209 20.3229 6.5942 20.0032 6.69367C19.6696 6.80736 19.1553 6.89263 19.1553 6.89263C19.1553 6.89263 19.2804 7.16264 19.614 7.21948C19.7947 7.2479 20.3229 7.07737 20.3229 7.07737C20.1978 7.07737 20.031 6.99211 20.031 6.99211C20.2117 6.92105 20.5453 6.45209 20.5453 6.45209Z" fill="#141414"/>
</svg>
