<svg width="134" height="224" viewBox="0 0 134 224" fill="none" xmlns="http://www.w3.org/2000/svg">
<path d="M70.776 50.7175C70.776 50.7175 86.1146 67.8229 88.7349 70.1934C88.7349 70.1934 114.044 75.2545 118.006 76.0233L117.047 80.0594C117.047 80.0594 95.3816 83.2626 84.5807 81.661C75.6333 80.3156 61.1895 62.3133 61.1895 62.3133L70.776 50.7175Z" fill="#A05544"/>
<path d="M88.3517 70.1935C86.7539 70.9623 85.6036 72.3717 85.2201 74.0374C85.1562 74.3578 85.6036 74.4859 85.6675 74.1656C86.0509 72.5639 87.0735 71.2826 88.6074 70.5779C88.9269 70.4498 88.6713 70.0654 88.3517 70.1935Z" fill="#742823"/>
<path d="M130.213 80.8924C130.213 80.8924 132.45 83.3909 131.811 84.0957C131.172 84.8004 129.574 82.6862 128.424 81.9815C127.273 81.2768 124.397 79.2908 124.397 79.2908L130.213 80.8924Z" fill="#742823"/>
<path d="M115.13 79.8032C115.13 79.8032 116.728 81.7252 118.517 83.3909C120.243 85.0566 120.882 87.5551 121.777 85.8894C122.672 84.2237 120.818 81.533 121.074 80.7642C121.521 79.4188 123.886 79.9313 127.721 81.2126C132.77 82.8783 134.176 82.1736 133.984 81.8533C133.345 80.6361 129.957 79.8673 126.315 77.8813C122.672 75.8952 118.39 75.3827 115.961 75.5749C115.961 75.639 115.066 78.0094 115.13 79.8032Z" fill="#A05544"/>
<path d="M50.8994 40.5311C50.8994 40.5311 51.7942 56.9959 61.7642 66.4134L75.6967 52.7676C75.6967 52.7676 72.5651 43.7984 66.7493 38.2888C57.61 29.7041 50.8994 40.5311 50.8994 40.5311Z" fill="#46495D"/>
<path d="M74.1635 50.269C70.201 53.9848 66.3025 57.7005 62.34 61.4804C62.0844 61.6726 62.4678 62.057 62.6596 61.8007C66.622 58.0849 70.5206 54.3692 74.483 50.5893C74.7387 50.3971 74.4191 50.0768 74.1635 50.269Z" fill="#D99A26"/>
<path d="M67.197 39.186C67.0052 40.2751 66.1105 45.8488 65.2158 52.8319C64.7045 56.6117 64.2571 60.7759 63.8736 64.8761C63.8736 65.1324 63.8097 65.3886 63.8097 65.5808C62.8511 76.1516 62.5954 85.9536 64.8962 86.5942L19.967 91.8476C19.967 91.8476 19.3279 86.9786 19.0084 79.6111C18.8805 76.6641 18.8166 73.3327 18.8805 69.7451C18.9445 66.1574 19.0723 62.3776 19.4557 58.4696C19.967 52.8319 18.4971 46.105 19.7753 40.9157C20.8618 36.4952 29.1062 33.8686 34.0913 31.2419C37.9898 29.1918 41.3771 27.8464 41.3771 27.8464C41.3771 27.8464 47.0651 29.4481 53.0727 31.5622C60.039 34.0608 67.5804 37.2 67.197 39.186Z" fill="#2C2F3F"/>
<path d="M24.1208 106.582C19.5831 103.892 18.7523 91.2067 18.944 79.6109C19.0079 76.1514 19.1997 72.756 19.3914 69.809C19.7749 63.4665 20.3501 58.9179 20.3501 58.9179L63.8732 64.8759C63.8732 64.94 63.8732 65.1963 63.8732 65.5807C63.8732 68.9121 64.2567 83.3267 70.2004 92.9365C79.0839 107.287 30.6397 110.49 24.1208 106.582Z" fill="#2C2F3F"/>
<path d="M34.0918 59.046C35.4339 58.2132 36.4565 57.7647 38.0543 55.2662H42.4641L44.0619 71.4747H46.3626L46.7461 75.3186H36.84L36.4565 71.4747H38.949L37.9264 60.8399L35.5617 62.1852L34.0918 59.046Z" fill="#46495D"/>
<path d="M46.6825 65.1963C46.1073 59.1101 48.5359 54.8818 52.6261 54.8818C57.4834 54.8818 60.1037 59.0461 60.7428 65.3885C61.3819 71.731 59.2729 75.639 54.7991 75.639C50.6449 75.703 47.3855 72.3076 46.6825 65.1963ZM55.7578 65.4526C55.4382 62.0571 54.2239 59.5586 53.0096 59.5586C52.1149 59.5586 51.1562 61.7368 51.5397 65.2604C51.9231 68.9762 53.3292 71.2825 54.3517 71.2825C55.5021 71.2825 56.1412 68.9121 55.7578 65.4526Z" fill="#46495D"/>
<path d="M24.2494 55.4585C22.5238 62.2494 21.7569 69.2325 21.5652 76.2157C21.3734 83.0066 21.8208 89.8615 23.0351 96.5884C23.6103 99.7916 24.3772 102.995 25.5276 106.07C25.5915 106.326 25.975 106.198 25.9111 105.942C23.8021 100.24 22.8434 94.0898 22.3321 88.0677C21.7569 81.0846 21.8208 73.9734 22.5877 66.9903C23.0351 63.1464 23.6742 59.3665 24.6329 55.5867C24.6968 55.3304 24.3133 55.2023 24.2494 55.4585Z" fill="#46495D"/>
<path d="M63.2351 79.0983C55.6936 85.8893 46.1709 90.3738 36.1369 91.8473C33.261 92.2958 30.3211 92.4239 27.3812 92.3598C27.1255 92.3598 27.1255 92.7442 27.3812 92.7442C37.6708 93.0005 47.9604 90.1176 56.6523 84.608C59.0809 83.0704 61.3816 81.2766 63.4907 79.3546C63.6824 79.1624 63.4268 78.9061 63.2351 79.0983Z" fill="#46495D"/>
<path d="M42.2712 10.1003C42.2712 10.1003 40.226 9.13931 40.7373 7.66581C41.2486 6.19231 43.4216 7.02516 43.4216 7.02516C43.4216 7.02516 41.8877 2.47653 44.5081 1.96401C47.1284 1.45149 48.0871 3.50158 49.1096 3.24531C50.0683 2.98905 52.433 -0.662663 55.245 0.106119C58.121 0.874902 55.8202 4.91101 57.4819 4.97507C59.1436 4.97507 61.6361 4.07816 63.2339 5.4876C64.7677 6.83296 64.9595 9.77996 62.9782 10.1644C60.997 10.5487 64.5121 11.766 63.7452 13.6239C62.9782 15.5458 58.8879 13.752 58.8879 13.752L42.2712 10.1003Z" fill="#2C2F3F"/>
<path d="M38.6924 29.8963C38.6924 29.8963 42.9744 38.1607 50.5798 34.8934L50.8354 29.7682L51.0271 26.3727L51.155 24.0023L42.9744 19.5178C42.0157 23.682 40.5458 27.0775 38.6924 29.8963Z" fill="#A05544"/>
<path d="M43.9326 23.4897C46.2334 29.4477 49.4928 31.1775 50.7711 31.1134L51.0267 26.4367L43.9326 23.4897Z" fill="#2C2F3F"/>
<path d="M42.847 16.8272C42.7831 17.2116 42.7192 17.532 42.6553 17.8523C42.5914 18.6211 42.5913 19.3258 42.7192 20.0305C42.9109 20.9915 43.2944 22.0806 43.8696 23.49C44.7643 25.7323 46.8095 27.0136 49.0463 27.5902C54.8622 29.1918 56.46 25.3479 57.6103 19.1977C58.3134 15.3537 59.9111 13.5599 59.3998 11.8942C59.3359 11.8302 59.3359 11.702 59.272 11.638C58.1855 9.71601 56.2682 8.30657 54.1592 7.66592C53.7757 7.53779 53.3283 7.47372 52.9449 7.34559C52.881 7.34559 52.7531 7.28153 52.6892 7.28153C52.6253 7.28153 52.6253 7.28153 52.5614 7.28153C52.4336 7.28153 52.3697 7.21746 52.2419 7.21746C52.1779 7.21746 52.114 7.21746 52.0501 7.1534C51.9223 7.1534 51.7306 7.08933 51.6028 7.08933C46.7455 6.44868 44.8282 9.01129 43.9335 11.7661C43.2944 13.688 43.1665 15.6741 42.847 16.8272Z" fill="#A05544"/>
<path d="M52.7539 17.0835C52.6259 17.4038 52.3701 17.596 52.1142 17.4679C51.8584 17.4038 51.7944 17.0835 51.9224 16.7631C52.0503 16.4428 52.3061 16.2506 52.562 16.3788C52.8178 16.4428 52.8818 16.7631 52.7539 17.0835Z" fill="#2C2F3F"/>
<path d="M56.5888 18.1726C56.4609 18.4929 56.2051 18.6851 55.9492 18.557C55.6934 18.4929 55.6294 18.1726 55.7573 17.8523C55.8852 17.5319 56.1411 17.3397 56.3969 17.4679C56.5888 17.596 56.6528 17.9163 56.5888 18.1726Z" fill="#2C2F3F"/>
<path d="M49.1096 17.9803C49.0457 18.3006 49.4931 18.685 50.0683 18.8772C50.7074 19.0053 51.2826 18.8772 51.3465 18.5568C51.4104 18.2365 50.963 17.8521 50.3878 17.6599C49.7487 17.5318 49.1735 17.6599 49.1096 17.9803Z" fill="#742823"/>
<path d="M57.3549 20.7993C57.0993 20.8634 56.7797 20.8634 56.3962 20.7993C55.7571 20.6712 55.3737 20.2868 55.4376 19.9024C55.5015 19.5821 56.0767 19.4539 56.7158 19.5821C57.0353 19.6461 57.3549 19.8383 57.4827 20.0305L57.3549 20.7993Z" fill="#742823"/>
<path d="M52.9451 15.2257C52.6255 14.9694 52.1142 14.9053 51.7947 15.2897C51.603 15.546 51.3473 15.6741 51.0917 15.4819C50.836 15.3538 50.7082 14.9694 50.8999 14.7772C51.4751 13.9444 52.6255 13.7522 53.4564 14.3287C53.712 14.5209 53.7759 14.7772 53.6481 15.0335C53.5203 15.2897 53.1368 15.4178 52.9451 15.2257Z" fill="#2C2F3F"/>
<path d="M57.0992 16.7632C56.9075 16.3148 56.5879 16.1226 56.1405 16.1226C55.4375 16.1226 55.4375 15.0975 56.1405 15.0334C56.9714 15.0334 57.6744 15.4178 58.0579 16.1866C58.3135 16.8273 57.4188 17.3398 57.0992 16.7632Z" fill="#2C2F3F"/>
<path d="M53.328 19.7101C53.2641 19.6461 53.2002 19.582 53.2002 19.4539C53.2002 19.3257 53.328 19.2617 53.4558 19.3258C53.8393 19.4539 54.0949 19.4539 54.2867 19.3898C53.9032 18.621 54.0949 17.596 54.0949 17.5319C54.0949 17.4038 54.2228 17.3397 54.3506 17.4038C54.4784 17.4038 54.5423 17.5319 54.4784 17.6601C54.4784 17.6601 54.2867 18.8132 54.734 19.4539C54.798 19.5179 54.798 19.582 54.734 19.6461C54.734 19.7101 54.6701 19.7742 54.6062 19.7742C54.6701 19.7101 54.0949 19.9664 53.328 19.7101Z" fill="#2C2F3F"/>
<path d="M44.5087 19.0055C43.6778 18.8133 43.0387 18.3648 42.6553 17.8523C42.5914 18.6211 42.5913 19.3258 42.7192 20.0305C43.4222 19.9024 43.9974 19.5821 44.5087 19.0055Z" fill="#2C2F3F"/>
<path d="M45.2753 12.0864C47.4482 13.3037 46.6813 17.3398 48.0234 16.9554C49.3656 16.571 48.7904 9.52381 51.8581 10.4207C54.8619 11.3817 54.3506 11.8302 55.7566 12.3427C58.1213 13.1115 58.377 11.8942 59.4634 11.8942C59.3995 11.8302 59.3995 11.702 59.3356 11.638C58.2491 9.71601 56.3318 8.30657 54.2228 7.66592C53.8393 7.53779 53.3919 7.47372 53.0085 7.34559C52.9446 7.34559 52.8167 7.28153 52.7528 7.28153C52.6889 7.28153 52.6889 7.28153 52.625 7.28153C52.4972 7.28153 52.4333 7.21746 52.3055 7.21746C52.2415 7.21746 52.1776 7.21746 52.1137 7.1534C51.9859 7.1534 51.7942 7.08933 51.6664 7.08933C46.8091 6.44868 44.8918 9.01129 43.9971 11.7661C44.3166 11.7661 44.764 11.8302 45.2753 12.0864Z" fill="#2C2F3F"/>
<path d="M48.0237 16.9552C46.6816 17.3395 47.4485 13.3034 45.2755 12.0862C44.8281 11.8299 44.3808 11.7659 43.9334 11.7659C43.2943 13.6238 43.1665 15.6098 42.8469 16.827C42.783 17.1474 42.7191 17.5317 42.6552 17.8521C42.3995 15.1613 42.08 12.0862 42.2078 10.8049C42.2078 10.5486 42.2717 10.2924 42.3356 10.1002C42.3995 10.0361 42.4635 10.0361 42.5274 9.97205C42.8469 9.77986 43.1665 9.65173 43.486 9.5236C43.9973 9.3314 44.5725 9.26733 45.2116 9.26733C47.1289 9.26733 49.1102 9.97205 50.5162 10.6127C48.9184 11.894 49.1102 16.6989 48.0237 16.9552Z" fill="#742823"/>
<path d="M47.1927 15.5459C47.1927 15.5459 46.4258 19.2617 44.4446 20.4149C42.4634 21.568 42.719 24.1306 43.6777 25.476C44.5724 26.6292 47.4484 31.4341 52.2417 29.5762C55.8207 28.2308 57.035 21.8883 57.035 21.8883C57.035 21.8883 53.5199 20.1586 50.4522 19.9023C48.7905 19.7742 48.8544 20.2867 48.0875 20.2227C47.2567 20.1586 47.9597 19.2617 48.407 18.3007C48.8544 17.2757 48.5988 16.2506 48.5988 16.2506L47.1927 15.5459Z" fill="#2C2F3F"/>
<path d="M55.2452 22.0165C55.2452 22.0165 53.903 21.5039 51.2827 20.543C51.2827 20.543 50.7075 23.49 52.6887 24.0025C54.3504 24.4509 55.2452 22.0165 55.2452 22.0165Z" fill="#F4F0DE"/>
<path d="M52.7527 25.0916C52.2414 25.1557 51.794 25.0275 51.5384 24.5791C51.4106 24.3869 51.7301 24.1306 51.858 24.3869C52.0497 24.7072 52.3692 24.7072 52.7527 24.7072C53.0084 24.7072 53.0084 25.0916 52.7527 25.0916Z" fill="#46495D"/>
<path d="M46.7455 18.0443C47.3207 17.2114 47.3846 16.1223 47.065 15.0973C46.6176 13.816 45.7229 11.83 44.4447 11.7018C42.5274 11.5096 41.9522 13.0472 41.6965 14.777C41.4409 16.5067 42.0161 18.9412 44.3808 19.1975C45.5312 19.3256 46.2981 18.749 46.7455 18.0443Z" fill="#A05544"/>
<path d="M44.636 17.2115C44.8916 16.5068 45.1472 15.8021 45.0194 15.0973C44.9555 14.4567 44.5081 13.4316 43.6773 13.4316C43.4217 13.4316 43.2938 13.0473 43.6134 12.9832C44.3803 12.9191 45.0194 13.5598 45.2751 14.2645C45.6585 15.2895 45.4029 16.3786 45.0194 17.3396C44.9555 17.5959 44.572 17.4678 44.636 17.2115Z" fill="#2C2F3F"/>
<path d="M35.8169 35.2778C38.5651 37.456 41.5689 39.6983 45.084 40.5952C48.0878 41.364 51.4111 41.0436 53.9037 39.0576C54.0954 38.9295 53.8397 38.6732 53.648 38.8013C51.1555 40.7233 47.7682 40.9796 44.8283 40.1467C41.5689 39.2498 38.7568 37.1356 36.1365 35.0215C35.8809 34.8934 35.6252 35.1496 35.8169 35.2778Z" fill="#46495D"/>
<path d="M12.2976 53.4724C12.2976 53.4724 0.34634 73.3326 0.218519 82.5579C0.0906972 91.7833 16.4518 118.627 16.4518 118.627L19.7752 116.705C19.7752 116.705 14.8541 85.1846 16.0684 83.4549C17.2827 81.7251 30.0009 57.3803 30.0009 57.3803L12.2976 53.4724Z" fill="#A05544"/>
<path d="M15.8764 83.3269C14.1508 82.1097 12.2335 81.4691 10.1244 81.2769C9.80488 81.2769 9.80488 81.7253 10.1244 81.7894C12.1057 81.9175 13.9591 82.6222 15.6207 83.7754C15.8764 83.9676 16.132 83.5191 15.8764 83.3269Z" fill="#742823"/>
<path d="M19.775 128.108C18.8803 128.236 13.384 128.108 11.7223 126.314C10.0606 124.521 11.4027 122.086 11.6584 121.253C11.914 120.42 13.5118 122.406 13.5118 122.406C13.5118 122.406 13.5757 121.381 14.1509 120.1C14.7261 118.819 13.7035 115.872 14.0231 114.462C14.3426 112.989 19.3277 112.668 19.3277 112.668C19.3277 112.668 21.5006 120.1 22.1397 122.406C22.2675 122.791 22.2675 123.175 22.1397 123.495C21.8841 124.713 21.1171 127.339 19.775 128.108Z" fill="#A05544"/>
<path d="M20.0944 124.841C19.9026 125.93 19.3275 126.891 18.4966 127.66C18.3049 127.852 18.5605 128.173 18.7523 127.98C19.7109 127.147 20.2861 126.058 20.4778 124.841C20.6057 124.649 20.1583 124.585 20.0944 124.841Z" fill="#742823"/>
<path d="M18.625 124.072C18.3693 125.418 17.9858 126.955 16.7076 127.724C16.452 127.852 16.6437 128.301 16.8994 128.108C18.3054 127.212 18.7528 125.674 19.0723 124.072C19.1362 123.816 18.6889 123.752 18.625 124.072Z" fill="#742823"/>
<path d="M16.5155 124.072C16.3876 125.418 15.6846 126.571 14.4703 127.275C14.2147 127.404 14.4064 127.852 14.6621 127.66C16.0042 126.891 16.835 125.61 16.9628 124.136C16.9628 123.816 16.5155 123.752 16.5155 124.072Z" fill="#742823"/>
<path d="M13.2559 122.278C13.2559 123.303 13.6393 124.264 14.3423 124.969C14.5341 125.161 14.9175 124.905 14.6619 124.713C14.0228 124.072 13.6393 123.303 13.6393 122.406C13.7032 122.086 13.2559 122.022 13.2559 122.278Z" fill="#742823"/>
<path d="M13.5755 123.944C13.5116 124.457 13.1281 124.841 12.6168 124.905C12.3612 124.969 12.4251 125.418 12.6808 125.354C13.3838 125.226 13.8951 124.713 14.0229 124.008C14.0229 123.688 13.5755 123.624 13.5755 123.944Z" fill="#742823"/>
<path d="M21.9478 37.9686C21.9478 37.9686 15.7485 39.6343 9.35742 55.6506L27.2524 64.6838C27.2524 64.6838 31.7901 57.5085 33.8991 49.7566C37.2225 37.5842 21.9478 37.9686 21.9478 37.9686Z" fill="#46495D"/>
<path d="M10.6361 53.6646C16.5159 56.4194 22.3957 59.2383 28.3394 61.9931C28.595 62.1212 28.8506 61.6727 28.595 61.5446C22.7152 58.7898 16.8354 55.9709 10.8918 53.2161C10.5722 53.088 10.3166 53.5365 10.6361 53.6646Z" fill="#D99A26"/>
<path d="M103.05 128.172C102.731 131.055 98.8322 139.192 93.4637 149.186C81.1929 172.121 61.5084 204.666 61.5084 204.666L55.6925 201.783C55.6925 201.783 62.5949 168.277 65.9821 156.746C67.3882 151.941 69.7529 146.815 72.0536 142.395C75.7605 135.348 79.4034 129.902 79.4034 129.902C67.2603 131.632 34.1546 112.605 24.1846 106.582L67.2603 98.1899C67.1964 98.1899 104.073 118.755 103.05 128.172Z" fill="#A05544"/>
<path d="M102.731 127.532C99.8552 128.685 96.7236 128.621 93.9116 127.404C93.592 127.276 93.4642 127.724 93.7837 127.852C96.6597 129.069 99.9192 129.133 102.859 127.98C103.179 127.916 103.051 127.468 102.731 127.532Z" fill="#742823"/>
<path d="M93.4646 149.186C81.1937 172.121 61.5092 204.666 61.5092 204.666L55.6934 201.783C55.6934 201.783 62.5957 168.277 65.983 156.746C67.389 151.941 69.7537 146.815 72.0545 142.395C77.9343 141.306 88.2239 146.367 93.4646 149.186Z" fill="#D9C4A0"/>
<path d="M71.0318 145.406C78.2537 146.047 85.22 148.545 91.2276 152.645C91.5471 152.902 91.8667 152.325 91.5471 152.069C85.4117 147.969 78.3176 145.47 71.0318 144.765C70.5844 144.701 70.5844 145.342 71.0318 145.406Z" fill="#2C2F3F"/>
<path d="M69.9448 148.161C77.1667 148.801 84.133 151.3 90.1406 155.4C90.4601 155.656 90.7797 155.08 90.4601 154.824C84.3247 150.723 77.2306 148.225 69.9448 147.52C69.5614 147.456 69.5614 148.097 69.9448 148.161Z" fill="#2C2F3F"/>
<path d="M56.6519 200.63C56.6519 200.63 55.6293 199.733 55.182 200.63C54.7346 201.527 53.8398 204.154 53.8398 204.154L50.3887 211.137C53.0729 214.981 58.1858 214.917 59.2083 215.749C61.573 217.607 68.0919 220.618 73.6521 222.348C73.6521 222.348 77.6785 218.761 70.5205 213.635C67.3889 211.393 64.5768 206.973 64.5768 205.051C64.5768 203.193 63.1069 201.271 62.7234 201.271C62.34 201.271 61.5091 203.769 60.2309 203.129C58.8249 202.488 56.6519 200.63 56.6519 200.63Z" fill="#2C2F3F"/>
<path d="M58.7608 214.148C59.1442 212.931 60.1029 211.97 61.3172 211.521C61.6367 211.393 61.5089 210.945 61.1894 211.073C59.7833 211.585 58.7608 212.674 58.3134 214.084C58.1856 214.34 58.6969 214.468 58.7608 214.148Z" fill="#D9C4A0"/>
<path d="M60.2941 215.045C60.6137 213.763 61.5084 212.674 62.7867 212.226C63.1062 212.098 62.9784 211.649 62.6588 211.777C61.2528 212.29 60.1663 213.443 59.7829 214.917C59.7189 215.237 60.2302 215.365 60.2941 215.045Z" fill="#D9C4A0"/>
<path d="M63.6818 212.546C62.4036 213.123 61.5728 214.34 61.445 215.75C61.3811 216.07 61.8923 216.07 61.9563 215.75C62.0841 214.532 62.851 213.507 64.0014 212.995C64.257 212.803 64.0014 212.418 63.6818 212.546Z" fill="#D9C4A0"/>
<path d="M50.0684 211.265C50.0684 211.265 52.1135 214.917 58.5046 215.686C58.5046 215.686 67.8994 221.644 73.6514 222.284C73.6514 222.284 74.3544 221.9 74.5461 220.811C74.5461 220.811 65.9182 217.543 63.3618 216.198C60.8053 214.853 59.5271 214.212 58.3128 213.764C57.0985 213.251 54.0308 207.998 52.0496 207.677C52.1135 207.613 50.5157 210.176 50.0684 211.265Z" fill="#D9C4A0"/>
<path d="M65.4072 114.591C65.4072 114.591 58.5687 145.79 52.8807 160.333C52.3694 161.678 51.8581 162.832 51.3468 163.857C45.4031 175.965 26.2299 209.279 26.2299 209.279C23.7374 210.176 22.0118 208.574 20.4141 206.332C20.4141 206.332 27.5721 179.873 28.9142 170.391C29.6811 164.625 31.6623 158.539 33.0045 154.567C33.8992 152.005 34.6022 150.403 34.6022 150.403L38.7564 114.142L65.4072 114.591Z" fill="#A05544"/>
<path d="M54.6065 153.735C52.5614 153.735 50.5802 153.286 48.7268 152.453C48.4711 152.325 48.2155 152.774 48.4711 152.902C50.4524 153.799 52.4975 154.247 54.6065 154.247C54.9261 154.183 54.9261 153.735 54.6065 153.735Z" fill="#742823"/>
<path d="M52.8807 160.333C52.3694 161.679 51.8581 162.832 51.3468 163.857C45.4031 175.965 26.2299 209.279 26.2299 209.279C23.7374 210.176 22.0118 208.574 20.4141 206.332C20.4141 206.332 27.5721 179.873 28.9142 170.391C29.6811 164.626 31.6623 158.539 33.0045 154.567C39.8429 153.927 48.5347 157.963 52.8807 160.333Z" fill="#D9C4A0"/>
<path d="M32.4937 157.13C39.0765 158.091 45.4036 160.205 51.2195 163.408C51.6029 163.6 51.9225 163.024 51.539 162.832C45.6592 159.628 39.2682 157.45 32.6854 156.489C32.238 156.425 32.1102 157.066 32.4937 157.13Z" fill="#2C2F3F"/>
<path d="M31.6622 159.757C38.1172 160.718 44.3804 162.704 50.1324 165.779C50.5158 165.971 50.8354 165.394 50.4519 165.202C44.6361 162.127 38.3089 160.077 31.79 159.116C31.4066 159.116 31.2787 159.757 31.6622 159.757Z" fill="#2C2F3F"/>
<path d="M20.7976 205.179C20.7976 205.179 17.7938 206.204 18.0494 208.318C18.3051 210.368 13.7674 214.981 13.8952 216.454C14.0231 217.992 23.8014 223.501 23.8014 223.501H38.5647C38.5647 223.501 38.1813 220.618 34.0271 218.504C29.8729 216.39 28.4669 216.518 27.9556 214.34C27.4443 212.162 28.5947 207.037 27.5082 206.588C26.4217 206.14 26.1022 208.959 24.76 208.51C23.4818 208.126 20.7976 205.179 20.7976 205.179Z" fill="#2C2F3F"/>
<path d="M20.7973 219.594C21.1807 218.377 22.1394 217.416 23.3537 216.967C23.6732 216.839 23.5454 216.39 23.2259 216.519C21.8198 217.031 20.7972 218.12 20.3499 219.53C20.2221 219.786 20.6694 219.914 20.7973 219.594Z" fill="#D9C4A0"/>
<path d="M22.3319 220.491C22.6515 219.209 23.5463 218.12 24.8245 217.672C25.144 217.544 25.0162 217.095 24.6966 217.223C23.2906 217.736 22.2041 218.889 21.8207 220.362C21.7568 220.683 22.2041 220.811 22.3319 220.491Z" fill="#D9C4A0"/>
<path d="M25.719 217.992C24.4407 218.568 23.6099 219.786 23.4821 221.195C23.4182 221.515 23.9295 221.515 23.9934 221.195C24.1212 219.978 24.8881 218.953 26.0385 218.44C26.2941 218.248 26.0385 217.864 25.719 217.992Z" fill="#D9C4A0"/>
<path d="M15.2379 213.699C15.2379 213.699 16.7079 213.955 17.5387 215.749C18.3696 217.543 20.4147 219.529 22.3959 220.426C24.3772 221.323 37.351 221.131 37.351 221.131C38.3736 221.9 38.757 222.668 38.5653 223.501H23.0989C23.0989 223.501 14.9823 219.017 14.0875 217.415C13.1928 215.813 13.8958 214.276 15.2379 213.699Z" fill="#D9C4A0"/>
<path d="M64.4483 124.585L59.5271 146.623C50.1962 145.79 40.5457 143.292 30.5756 139.512L25.9102 105.942L64.4483 124.585Z" fill="#EFBF46"/>
<path d="M30.5122 136.117C39.971 139.768 49.6854 142.587 59.6555 144.381C60.0389 144.445 60.2307 143.868 59.8472 143.74C49.8771 141.946 40.0988 139.128 30.7039 135.476C30.2566 135.348 30.1287 135.924 30.5122 136.117Z" fill="#2C2F3F"/>
<path d="M30.3208 113.309C30.3208 113.309 46.8736 123.431 65.9829 129.902L89.1185 112.22L71.2875 96.7163C71.2875 96.7163 18.8807 104.789 30.3208 113.309Z" fill="#EFBF46"/>
<path d="M33.8353 115.359C33.8353 115.359 23.7374 110.939 21.5645 103.251C52.3055 96.7164 70.3922 94.7303 70.2005 92.9365L89.118 112.22L33.8353 115.359Z" fill="#EFBF46"/>
<path d="M28.4674 102.803C37.4788 110.49 47.4489 116.897 58.1859 121.83C61.1897 123.175 64.2574 124.457 67.389 125.61C67.7725 125.738 67.9642 125.161 67.5807 124.969C56.652 120.933 46.3624 115.487 36.9675 108.697C34.2194 106.711 31.5351 104.596 28.9787 102.418C28.5953 102.034 28.1479 102.482 28.4674 102.803Z" fill="#2C2F3F"/>
<path d="M32.4294 101.137C41.1212 108.504 50.5161 114.975 60.8696 119.716C63.8095 121.061 66.8133 122.278 69.881 123.432C70.2645 123.56 70.4562 122.983 70.0727 122.791C59.5914 118.883 49.7491 113.566 40.7377 106.903C38.0535 104.917 35.4971 102.803 32.9406 100.624C32.5572 100.432 32.1098 100.881 32.4294 101.137Z" fill="#2C2F3F"/>
<path d="M86.3065 110.49C78.7651 116.513 71.0319 122.343 63.107 127.98C62.7874 128.237 63.107 128.749 63.4265 128.557C71.3514 122.919 79.0846 117.025 86.7539 111.003C87.0735 110.683 86.6261 110.234 86.3065 110.49Z" fill="#2C2F3F"/>
<path d="M89.757 98.6384C89.6931 99.0228 89.6292 99.3431 89.5653 99.7275C89.2457 102.354 89.757 104.981 90.9074 107.223C92.3773 110.17 94.9338 112.541 98.1932 113.758C98.8323 114.014 99.5353 114.206 100.174 114.334C102.028 114.719 103.817 114.655 105.543 114.27C108.035 113.758 110.272 112.541 112.062 110.747C113.915 108.953 115.257 106.582 115.833 103.828C115.96 103.123 116.088 102.354 116.088 101.649C116.152 100.624 116.024 99.5994 115.833 98.5743C115.066 94.6023 112.445 91.2068 108.866 89.349C107.78 88.8364 106.629 88.388 105.415 88.1317C104.648 88.0036 103.881 87.8755 103.178 87.8755C99.7271 87.8114 96.5315 89.0286 94.039 91.2069C91.93 93.1288 90.3961 95.6273 89.757 98.6384Z" fill="#D9C4A0"/>
<path d="M99.3434 116.448C102.859 117.345 106.501 116.833 109.633 115.039C109.889 114.911 109.633 114.462 109.377 114.59C106.374 116.32 102.859 116.769 99.4713 115.936C99.2156 115.872 99.0878 116.384 99.3434 116.448Z" fill="#2C2F3F"/>
<path d="M106.118 93.9614L111.039 99.3429L107.524 105.685L100.43 104.276L99.5352 97.0366L106.118 93.9614Z" fill="#2C2F3F"/>
<path d="M89.7572 98.6383C89.6933 99.0227 89.6293 99.343 89.5654 99.7274L90.0128 100.048L95.573 95.4351L93.9114 91.2708C91.9301 93.1287 90.3963 95.6272 89.7572 98.6383Z" fill="#2C2F3F"/>
<path d="M114.938 99.4714L116.089 101.65C116.153 100.625 116.025 99.5995 115.833 98.5745L114.938 99.4714Z" fill="#2C2F3F"/>
<path d="M103.114 87.9395L106.438 90.8224L108.866 89.3489C107.78 88.8364 106.629 88.3879 105.415 88.1317C104.648 88.0035 103.881 87.9395 103.114 87.9395Z" fill="#2C2F3F"/>
<path d="M90.9072 107.223C92.3772 110.17 94.9336 112.541 98.193 113.758L96.8509 107.8L90.9072 107.223Z" fill="#2C2F3F"/>
<path d="M105.606 114.27C108.099 113.758 110.336 112.541 112.125 110.747L108.802 109.722L105.606 114.27Z" fill="#2C2F3F"/>
<path d="M107.46 104.789C107.972 106.582 108.483 108.376 108.994 110.17C109.058 110.49 108.611 110.619 108.547 110.298C108.036 108.504 107.524 106.711 107.013 104.917C106.885 104.596 107.333 104.468 107.46 104.789Z" fill="#2C2F3F"/>
<path d="M110.592 99.0867C112.19 99.2148 113.788 99.2789 115.386 99.407C115.705 99.407 115.577 99.9195 115.322 99.9195C113.724 99.7914 112.126 99.7273 110.528 99.5992C110.209 99.5992 110.337 99.0867 110.592 99.0867Z" fill="#2C2F3F"/>
<path d="M106.694 90.2459C106.566 91.8475 106.374 93.385 106.246 94.9867C106.246 95.307 105.734 95.1789 105.734 94.9226C105.862 93.321 106.054 91.7834 106.182 90.1818C106.246 89.8615 106.694 89.9255 106.694 90.2459Z" fill="#2C2F3F"/>
<path d="M94.4224 94.8583C96.4676 95.563 98.5127 96.2677 100.622 96.9724C100.941 97.1006 100.814 97.549 100.558 97.4849C98.5127 96.7802 96.4676 96.0755 94.3585 95.3708C94.039 95.2427 94.1029 94.7302 94.4224 94.8583Z" fill="#2C2F3F"/>
<path d="M100.877 103.892C99.3435 105.301 97.9375 106.775 96.5314 108.313C96.3397 108.569 95.9562 108.248 96.148 107.992C97.554 106.455 98.96 104.981 100.494 103.572C100.75 103.38 101.133 103.7 100.877 103.892Z" fill="#2C2F3F"/>
</svg>
