<svg width="100" height="150" viewBox="0 0 100 150" fill="none" xmlns="http://www.w3.org/2000/svg">
<g opacity="0.32">
<path d="M61.3868 103.916C61.0938 103.825 60.8008 103.731 60.5313 103.623C53.8337 101.262 48.3126 96.3963 45.1292 90.0484C41.9459 83.7004 41.3484 76.3653 43.4625 69.5859C45.5766 62.8065 50.2375 57.1111 56.4648 53.6978C62.692 50.2845 70.0004 49.4192 76.8526 51.284C77.1456 51.3631 77.4385 51.448 77.7168 51.5389C81.156 52.6111 84.3502 54.3503 87.1172 56.657C89.8842 58.9637 92.1698 61.7928 93.8434 64.9829C95.517 68.1729 96.546 71.6613 96.8714 75.249C97.1969 78.8366 96.8125 82.4533 95.7403 85.8924C94.668 89.3315 92.9289 92.5258 90.6222 95.2928C88.3155 98.0598 85.4863 100.345 82.2963 102.019C75.8538 105.399 68.3324 106.081 61.3868 103.916Z" fill="#C8C5CC"/>
<path d="M78.0972 80.3643L74.3823 69.3809L62.7866 69.5215L59.3355 80.5928L68.7984 87.293L78.0972 80.3643ZM91.3804 94.3359L87.6685 83.3643L96.9585 76.4648C97.2533 82.8972 95.2836 89.2293 91.3921 94.3594L91.3804 94.3359ZM48.2056 94.9219C44.1733 89.8981 42.0341 83.6174 42.1616 77.1768L42.2613 77.1035L51.7476 83.8242L48.2905 94.9219H48.2056ZM61.3892 103.916C61.0962 103.825 60.8032 103.731 60.5337 103.623V103.591L69.856 96.6445L79.3247 103.351C73.5805 105.554 67.2608 105.753 61.3892 103.916ZM80.5435 62.3174L76.8198 51.3047L76.8462 51.2842C77.1392 51.3633 77.4322 51.4482 77.7105 51.5391C83.5833 53.3586 88.6702 57.1067 92.148 62.1768L80.5435 62.3174ZM46.7349 62.7393L46.6968 62.6221C50.2514 57.2493 55.58 53.2956 61.7525 51.4512L61.8198 51.501L58.3628 62.5986L46.7349 62.7393Z" fill="#58575D"/>
<path d="M37.3438 122.713C37.3397 123.636 37.1337 124.547 36.7403 125.382C36.5167 125.865 36.2489 126.327 35.9405 126.762C35.1747 127.786 34.1846 128.622 33.0459 129.205C28.3262 131.783 20.4893 131.962 16.7188 129.302L-27.1826 98.3203L-30.8066 95.7656L-36.874 91.4824C-44.1396 86.3584 -42.3818 76.6904 -37.7295 69.0293L-37.7031 68.9912L-35.2158 65.3467L-30.5283 58.7842L-29.2568 59.2324L-5.18065 67.7285L-3.81248 73.8809L0.230484 72.3018L3.82521 70.8984L7.73341 78.1465L9.81935 82.0166L12.1865 86.4111L14.0674 89.8975C14.1377 90.0234 14.208 90.1494 14.2813 90.2754C14.9942 91.5371 15.7354 92.793 16.5049 94.043C17.2744 95.293 18.0703 96.5293 18.8926 97.752C20.209 99.7051 21.586 101.62 23.0235 103.497C26.334 107.803 29.9571 111.858 33.8633 115.632C35.9141 117.979 37.3438 120.299 37.3438 122.713Z" fill="#BCFDDC"/>
<path d="M0.584961 73.8662L-11.8369 77.0039C-14.2472 77.0733 -16.6244 76.4302 -18.6708 75.155C-20.7173 73.8798 -22.3421 72.0292 -23.3418 69.835L-29.2568 59.2207L-47.8047 25.8545L-17.2627 13.3682L-0.856445 67.4121L-0.791992 67.7051L0.576172 73.8574L0.584961 73.8662Z" fill="#B79B7B"/>
<path d="M3.12988 85.3066C2.63986 85.3076 2.16354 85.1449 1.77664 84.8441C1.38975 84.5434 1.11448 84.122 0.994598 83.6469C0.874722 83.1717 0.917107 82.6701 1.11502 82.2219C1.31294 81.7736 1.65503 81.4043 2.08691 81.1728L10.2051 76.7988C10.7183 76.5222 11.3204 76.4607 11.8788 76.628C12.4373 76.7953 12.9065 77.1776 13.1831 77.6909C13.4597 78.2041 13.5211 78.8061 13.3538 79.3646C13.1865 79.9231 12.8042 80.3923 12.291 80.6689L4.16992 85.0429C3.85053 85.2159 3.49309 85.3065 3.12988 85.3066ZM7.47168 93.6328C6.98165 93.6338 6.50533 93.4711 6.11843 93.1703C5.73154 92.8696 5.45628 92.4482 5.3364 91.973C5.21652 91.4979 5.25891 90.9963 5.45683 90.548C5.65474 90.0998 5.99683 89.7305 6.42871 89.499L14.5469 85.1249C15.0587 84.8601 15.654 84.8069 16.2046 84.9767C16.7553 85.1466 17.2171 85.526 17.4907 86.0332C17.7643 86.5404 17.8276 87.1347 17.6672 87.6882C17.5067 88.2417 17.1352 88.7099 16.6328 88.9921L8.51172 93.3691C8.19233 93.542 7.83488 93.6326 7.47168 93.6328ZM11.1279 101.616C10.6389 101.616 10.1639 101.453 9.77814 101.152C9.39238 100.852 9.1179 100.431 8.99819 99.9568C8.87848 99.4826 8.92036 98.9821 9.11721 98.5344C9.31406 98.0868 9.65461 97.7176 10.085 97.4853L18.2031 93.1083C18.7131 92.8578 19.3003 92.8145 19.8415 92.9876C20.3827 93.1607 20.8357 93.5367 21.1056 94.0367C21.3755 94.5367 21.4413 95.1218 21.289 95.6692C21.1368 96.2166 20.7784 96.6838 20.2891 96.9726L12.168 101.367C11.8473 101.535 11.4899 101.621 11.1279 101.616ZM34.6152 125.007C32.5439 124.96 24.1211 121.523 13.6709 114.404C2.53809 106.828 -4.97071 99.0732 -6.4502 93.6445C-6.56773 93.1623 -6.84216 92.7329 -7.23036 92.4237C-7.61856 92.1145 -8.0985 91.9431 -8.59473 91.9365C-8.9309 91.938 -9.26228 92.0164 -9.56348 92.1657C-9.86468 92.315 -10.1277 92.5313 -10.3324 92.7979C-10.5372 93.0646 -10.6782 93.3745 -10.7446 93.7041C-10.8111 94.0336 -10.8012 94.374 -10.7158 94.6992C-7.05078 108.562 23.1572 127.207 33.0449 129.199C34.1836 128.616 35.1737 127.78 35.9395 126.756C36.2479 126.321 36.5157 125.86 36.7393 125.376C35.8135 125.016 34.9287 124.772 34.6152 125.007ZM-27.0254 98.0536C-27.0722 98.1459 -27.1251 98.2349 -27.1836 98.3203L-30.8076 95.7656C-29.8412 93.2715 -29.3888 90.6078 -29.4775 87.9345C-29.6152 81.4716 -32.3896 75.1142 -37.7305 69.0292L-37.7041 68.9912L-35.2168 65.3466C-35.0856 65.4387 -34.9656 65.5459 -34.8594 65.666C-26.8848 74.5312 -25.1445 82.7812 -25.0889 88.1425C-25.0186 94.0663 -26.9434 97.8954 -27.0254 98.0536ZM57.0977 139.277C54.0195 139.277 50.6143 138.628 46.8818 137.329C46.3313 137.137 45.8796 136.734 45.6261 136.209C45.3725 135.684 45.3379 135.08 45.5298 134.53C45.7217 133.979 46.1245 133.528 46.6494 133.274C47.1744 133.02 47.7786 132.986 48.3291 133.178C54.7744 135.425 59.8896 135.451 63.5635 133.263C67.0791 131.168 69.3525 126.996 70.3428 120.855C70.3801 120.563 70.4758 120.281 70.6242 120.027C70.7727 119.772 70.9708 119.55 71.2068 119.374C71.4429 119.197 71.712 119.07 71.9982 119C72.2843 118.929 72.5817 118.917 72.8727 118.964C73.1636 119.011 73.4421 119.116 73.6916 119.273C73.9411 119.43 74.1565 119.635 74.325 119.877C74.4935 120.119 74.6116 120.392 74.6724 120.68C74.7332 120.969 74.7353 121.266 74.6787 121.556C73.4746 129.038 70.4922 134.247 65.8135 137.036C63.3086 138.53 60.3936 139.277 57.0977 139.277Z" fill="#3C3B41"/>
<path d="M0.585937 73.8662L0.234375 72.2871L3.82324 70.8838L0.585937 73.8662Z" fill="#169DA3"/>
</g>
</svg>
