<svg width="30" height="30" viewBox="0 0 30 30" fill="none" xmlns="http://www.w3.org/2000/svg">
<g clip-path="url(#clip0_4226_17875)">
<path d="M26.3375 11.0248C26.1122 10.8568 25.9363 10.6311 25.8286 10.3715C25.7208 10.1119 25.685 9.82802 25.725 9.54981C26.25 6.2498 25.65 5.23731 25.2 4.7873C24.75 4.33731 23.75 3.74981 20.45 4.27481C20.1719 4.31215 19.889 4.27514 19.6299 4.16755C19.3708 4.05996 19.1448 3.88563 18.975 3.66231C16.8 0.762305 15.6625 0.424805 15 0.424805C14.3375 0.424805 13.2 0.762305 11.025 3.66231C10.8552 3.88563 10.6292 4.05996 10.3701 4.16755C10.111 4.27514 9.82805 4.31215 9.55 4.27481C6.25 3.74981 5.25 4.34981 4.8 4.7873C4.35 5.22481 3.75 6.2498 4.275 9.54981C4.31502 9.82802 4.27924 10.1119 4.17145 10.3715C4.06365 10.6311 3.88783 10.8568 3.6625 11.0248C0.7625 13.1998 0.4375 14.3373 0.4375 14.9998C0.4375 15.6623 0.7625 16.7998 3.6625 18.9748C3.88783 19.1428 4.06365 19.3685 4.17145 19.6281C4.27924 19.8877 4.31502 20.1716 4.275 20.4498C3.8 23.7748 4.35 24.7623 4.8 25.2123C5.25 25.6623 6.225 26.1998 9.55 25.7248C9.82822 25.6848 10.1121 25.7206 10.3717 25.8284C10.6313 25.9362 10.857 26.112 11.025 26.3373C13.2 29.2373 14.3375 29.5748 15 29.5748C15.6625 29.5748 16.8 29.2373 18.975 26.3373C19.143 26.112 19.3687 25.9362 19.6283 25.8284C19.8879 25.7206 20.1718 25.6848 20.45 25.7248C23.7875 26.1998 24.75 25.6498 25.2 25.2123C25.65 24.7748 26.2 23.7748 25.725 20.4498C25.685 20.1716 25.7208 19.8877 25.8286 19.6281C25.9363 19.3685 26.1122 19.1428 26.3375 18.9748C29.2375 16.7998 29.5625 15.6623 29.5625 14.9998C29.5625 14.3373 29.2375 13.1998 26.3375 11.0248Z" fill="#38E894"/>
<path d="M14.3723 19.3744C14.2078 19.3754 14.0447 19.3439 13.8924 19.2816C13.7401 19.2194 13.6016 19.1278 13.4848 19.0119L10.9848 16.5119C10.7494 16.2766 10.6172 15.9573 10.6172 15.6244C10.6172 15.2916 10.7494 14.9723 10.9848 14.7369C11.2202 14.5016 11.5394 14.3693 11.8723 14.3693C12.2052 14.3693 12.5244 14.5016 12.7598 14.7369L14.3723 16.3619L18.4848 12.2369C18.601 12.1198 18.7393 12.0268 18.8916 11.9633C19.0439 11.8999 19.2073 11.8672 19.3723 11.8672C19.5373 11.8672 19.7007 11.8999 19.853 11.9633C20.0053 12.0268 20.1436 12.1198 20.2598 12.2369C20.377 12.3531 20.47 12.4914 20.5334 12.6437C20.5969 12.796 20.6295 12.9594 20.6295 13.1244C20.6295 13.2895 20.5969 13.4528 20.5334 13.6052C20.47 13.7575 20.377 13.8957 20.2598 14.0119L15.2598 19.0119C15.143 19.1278 15.0045 19.2194 14.8522 19.2816C14.6999 19.3439 14.5368 19.3754 14.3723 19.3744Z" fill="white"/>
</g>
<defs>
<clipPath id="clip0_4226_17875">
<rect width="30" height="30" fill="white"/>
</clipPath>
</defs>
</svg>
