<svg width="77" height="45" viewBox="0 0 77 45" fill="none" xmlns="http://www.w3.org/2000/svg">
<path d="M11.9871 43.9569C11.3528 44.4896 10.4061 44.4076 9.87254 43.7737L1.17711 33.4436C0.643515 32.8097 0.725098 31.864 1.35932 31.3313C1.99355 30.7985 2.94026 30.8806 3.47385 31.5145L11.2031 40.6968L20.3901 32.9803C21.0243 32.4476 21.971 32.5297 22.5046 33.1636C23.0382 33.7975 22.9566 34.7432 22.3224 35.2759L11.9871 43.9569ZM75.4855 6.72684C65.8333 3.41048 50.8921 1.97709 37.9884 6.63235C31.5637 8.95019 25.6699 12.7664 21.1527 18.59C16.6372 24.4114 13.4318 32.3231 12.5161 42.9387L9.52572 42.6796C10.4832 31.5802 13.8588 23.0967 18.7798 16.7525C23.699 10.4105 30.0971 6.29067 36.9675 3.81203C50.6541 -1.1257 66.3157 0.405884 76.4602 3.89139L75.4855 6.72684Z" fill="#222222"/>
</svg>
