<svg width="212" height="157" viewBox="0 0 212 157" fill="none" xmlns="http://www.w3.org/2000/svg">
<path d="M113.896 144.488C111.176 149.088 106.025 151.709 100.666 151.555C97.9019 151.474 93.4029 151.37 89.42 151.393C79.911 151.448 74.2384 136.809 86.5457 134.444C97.3503 132.367 95.524 129.292 100.069 127.197C106.318 124.316 113.795 127.949 115.424 134.613C116.217 137.86 115.728 141.056 114.315 143.731C114.304 143.753 114.292 143.774 114.281 143.796C114.159 144.03 114.03 144.261 113.896 144.488Z" fill="#EDF6F7"/>
<path d="M75.4104 23.022C81.7942 23.022 86.9693 17.8684 86.9693 11.511C86.9693 5.15365 81.7942 0 75.4104 0C69.0266 0 63.8516 5.15365 63.8516 11.511C63.8516 17.8684 69.0266 23.022 75.4104 23.022Z" fill="#EDF6F7"/>
<path d="M64.3543 85.5186C64.3543 85.5186 55.7589 64.0567 53.7629 59.0274C51.2773 52.7634 46.1384 44.7578 49.323 42.952C52.9171 40.9135 54.1429 49.9681 56.6048 58.831C57.6309 62.5256 65.5404 84.7526 65.6034 84.9389C65.76 85.4013 64.5971 86.1273 64.3543 85.5186Z" fill="#F07D18"/>
<path d="M62.1363 82.2654C62.0917 82.3586 57.373 85.2437 56.3866 85.0473C55.3998 84.8508 57.0575 81.4704 57.1563 81.4115C57.2552 81.3526 59.3065 79.9683 59.3065 79.9683C59.3065 79.9683 62.7552 80.9771 62.1363 82.2654Z" fill="#FFB9A0"/>
<path d="M60.6279 82.237C60.5543 82.1714 58.8321 80.1971 59.0885 78.1924C59.3449 76.1878 59.9964 75.1422 60.263 74.2266C60.3837 73.8119 61.1214 73.796 61.1805 74.1696C61.2246 74.4476 61.2396 75.889 61.2396 75.889L63.0554 75.2996L64.1014 80.7628C64.1014 80.7628 61.7723 83.2589 60.6279 82.237Z" fill="#FFE5CF"/>
<path opacity="0.5" d="M60.6279 82.237C60.5543 82.1714 58.8321 80.1971 59.0885 78.1924C59.3449 76.1878 59.9964 75.1422 60.263 74.2266C60.3837 73.8119 61.1214 73.796 61.1805 74.1696C61.2246 74.4476 61.2396 75.889 61.2396 75.889L63.0554 75.2996L64.1014 80.7628C64.1014 80.7628 61.7723 83.2589 60.6279 82.237Z" fill="#FFB9A0"/>
<path d="M62.6168 78.7329C62.6168 78.7329 61.8669 79.0867 61.722 79.414C61.5771 79.7417 61.9062 80.069 62.3798 80.0299C62.8533 79.9908 64.0506 79.7157 64.511 79.5583C64.9715 79.401 64.7611 78.5234 64.3138 78.4838C63.8664 78.4447 62.9192 78.6542 62.6168 78.7329Z" fill="#FFE5CF"/>
<path d="M61.5553 78.1698C61.5553 78.1698 60.8418 78.6187 60.7735 78.9701C60.7047 79.3215 61.0982 79.5687 61.5514 79.4263C62.0046 79.2839 63.7685 78.7336 64.1829 78.4787C64.5974 78.2239 64.1878 77.3555 63.7389 77.3535C63.0482 77.3506 61.9639 77.9154 61.5553 78.1698Z" fill="#FFE5CF"/>
<path d="M61.3172 76.9711C61.3172 76.9711 60.5906 77.4254 60.5199 77.7801C60.4491 78.1349 60.849 78.3835 61.3104 78.2392C61.7719 78.0949 63.5677 77.5354 63.9894 77.2781C64.4116 77.0204 64.0209 76.0796 63.5643 76.0786C62.862 76.0772 61.7331 76.7139 61.3172 76.9711Z" fill="#FFE5CF"/>
<path d="M61.0601 75.8343C61.0601 75.8343 60.495 76.2532 60.4557 76.6095C60.4164 76.9652 60.8318 77.1767 61.2744 76.9952C61.7169 76.8137 63.1008 76.3083 63.4948 76.0182C63.8889 75.7285 63.4236 74.8336 62.9733 74.8713C62.2797 74.9287 61.4479 75.5451 61.0601 75.8343Z" fill="#FFE5CF"/>
<path d="M2.32775 146.773C2.32775 146.773 1.28562 147.667 0.650651 148.634C0.0156818 149.601 0.691851 151.752 1.26623 152.907C1.84061 154.062 5.04212 156.328 6.09491 156.332C7.14721 156.335 6.73908 152.928 7.05996 151.645C7.38035 150.361 7.78703 149.331 7.78703 149.331C7.78703 149.331 6.02511 146.491 2.32775 146.773Z" fill="#070540"/>
<path d="M6.09638 156.332C5.04408 156.328 1.84209 154.062 1.26771 152.907C0.749069 151.864 0.150938 150.012 0.506714 148.95C0.418982 149.065 0.334158 149.183 0.25612 149.302C-0.378849 150.269 0.29732 152.42 0.8717 153.575C1.44608 154.731 4.64807 156.996 5.70037 157C6.00477 157.001 6.18654 156.716 6.29947 156.281C6.23792 156.313 6.17103 156.332 6.09638 156.332Z" fill="#E6E8F4"/>
<path d="M51.5273 151.626C51.5273 151.626 51.5836 152.413 51.7668 152.728C51.95 153.043 55.881 154.086 57.3322 154.226C59.2003 154.406 62.0169 154.05 62.1764 153.605C62.3359 153.16 61.7091 151.874 61.08 151.269C60.4508 150.664 57.8518 149.081 56.9323 148.633C56.0133 148.184 51.6379 150.238 51.5273 151.626Z" fill="#070540"/>
<path d="M57.3327 154.226C55.8815 154.086 51.9505 153.043 51.7672 152.728C51.7672 152.728 51.7071 152.938 51.8904 153.253C52.0736 153.568 55.8795 154.642 57.3307 154.782C59.1988 154.962 62.0155 154.606 62.1749 154.161C62.2181 154.041 62.2026 153.859 62.1463 153.647C61.8327 154.072 59.1416 154.401 57.3327 154.226Z" fill="#E6E8F4"/>
<path d="M24.3189 97.3101C24.3189 97.3101 20.688 102.498 19.9774 105.878C19.2668 109.259 17.8199 122.82 17.5829 124.058C17.5243 124.365 14.3344 126.219 12.8992 128.329C8.55037 134.725 2.1968 146.263 2.13767 146.677C2.05866 147.227 6.94986 148.113 7.64057 149.789C8.87318 148.773 22.6845 130.113 24.3184 128.282C26.0644 126.325 32.2119 117.467 32.2119 117.467C32.2119 117.467 44.3209 129.225 44.9205 130.09C45.1163 130.372 45.0625 133.118 45.8415 136.09C47.4478 142.221 51.2057 151.127 51.5247 151.55C51.5247 151.55 54.9453 148.589 56.9185 148.537C56.9185 148.537 52.3405 131.348 51.1563 126.396C49.9722 121.443 40.5 104.374 39.4738 103.082C38.4487 101.791 25.3043 97.3887 24.3189 97.3101Z" fill="#6B78B7"/>
<g opacity="0.33">
<path d="M39.474 103.082C38.4479 101.791 25.3035 97.3887 24.3181 97.3101C24.3181 97.3101 20.6872 102.498 19.9766 105.878C19.8443 106.508 19.6862 107.491 19.5156 108.68C19.5176 108.677 23.0555 102.905 40.9713 105.531C40.2234 104.232 39.6795 103.341 39.474 103.082Z" fill="#6B78B7"/>
<path d="M36.1579 111.945C34.8948 113.53 32.2109 117.468 32.2109 117.468C32.2109 117.468 35.3005 120.468 38.4361 123.549C35.1362 119.339 37.4211 110.36 36.1579 111.945Z" fill="#6B78B7"/>
</g>
<path d="M57.2749 89.0562C57.2749 89.0562 58.38 89.4887 59.347 87.8572C60.314 86.2261 60.9848 82.7671 60.9848 82.7671L56.4853 84.0052C56.4853 84.0052 55.2619 87.6018 57.2749 89.0562Z" fill="#ACB3D8"/>
<path d="M40.0485 72.3716C37.9555 72.3933 32.5951 73.7651 30.7658 76.4268C28.082 80.3309 29.095 86.6987 27.161 89.6069C25.227 92.5157 22.9789 94.7559 23.3342 97.2322C23.6895 99.7085 36.9071 104.171 41.2883 102.967C44.896 101.975 48.3118 89.8522 49.7368 86.4626C49.7368 86.4626 54.9465 88.8602 57.275 89.0567C57.275 89.0567 55.8349 86.7175 57.2954 83.4158C58.7558 80.1141 59.3069 79.9688 59.3069 79.9688C59.3069 79.9688 57.4728 80.0562 53.3683 77.4226C49.2633 74.7889 45.5213 72.3146 40.0485 72.3716Z" fill="#E6E8F4"/>
<path d="M53.3683 77.4226C49.2638 74.789 45.5218 72.3146 40.049 72.3721C39.065 72.3822 36.6478 72.2326 38.8542 75.0163C42.2142 79.2559 51.3073 80.7648 49.7374 86.4626C49.7374 86.4626 54.947 88.8602 57.2755 89.0567C57.2755 89.0567 55.8355 86.7175 57.2959 83.4158C58.7563 80.1141 59.3074 79.9688 59.3074 79.9688C59.3074 79.9688 57.4728 80.0557 53.3683 77.4226Z" fill="#E6E8F4"/>
<path d="M38.1769 92.0506C38.1769 92.0506 38.8055 92.5155 43.3642 88.0741C47.9229 83.6328 41.0357 84.4384 39.2597 85.8339C37.4837 87.2289 35.9075 90.2033 38.1769 92.0506Z" fill="#ACB3D8"/>
<path d="M45.7357 83.947C45.7357 83.947 58.2112 83.5801 59.0657 83.4493C59.9208 83.3185 61.7714 80.1143 62.2275 79.6726C62.6836 79.231 65.2293 79.5838 65.5448 79.6726C65.8604 79.7615 65.7116 80.5473 65.6185 80.7047C65.6185 80.7047 66.3344 80.9668 66.4857 81.2617C66.5971 81.4784 66.3674 82.1788 66.3674 82.1788C66.3674 82.1788 66.854 82.3623 66.933 82.6162C66.9733 82.7455 66.8017 83.2533 66.8017 83.2533C66.8017 83.2533 67.3673 83.4889 67.3082 83.961C67.2704 84.2607 66.5312 85.0533 66.1929 84.9722C65.8546 84.8911 64.9404 84.7985 64.5488 85.0765C64.1571 85.3541 64.0621 85.7199 64.1435 85.9787C64.2124 86.1968 63.2623 87.21 62.0787 87.1709C60.8945 87.1318 59.4215 86.6009 56.6911 87.8197C53.9613 89.038 48.1792 90.0406 45.8899 90.0599C43.6006 90.0797 40.3448 87.8197 40.3051 87.8197C40.2653 87.8187 43.4096 84.0174 45.7357 83.947Z" fill="#FFE5CF"/>
<path opacity="0.5" d="M66.7986 83.253C66.7986 83.253 66.9706 82.7452 66.9299 82.6158C66.8509 82.3619 66.3643 82.1785 66.3643 82.1785C66.3643 82.1785 66.594 81.4786 66.4825 81.2614C66.3313 80.9664 65.6154 80.7043 65.6154 80.7043C65.7084 80.547 65.8573 79.7611 65.5417 79.6723C65.3338 79.6139 64.1588 79.4416 63.25 79.457C63.4647 79.4744 64.3338 79.5816 64.5156 79.8007C64.7032 80.0266 64.4812 80.6459 64.6983 80.9896C64.9155 81.3333 65.769 82.7978 65.9169 83.2105C66.0647 83.6232 65.9959 84.8589 65.3745 84.8898L65.373 84.8903C65.6978 84.8874 66.0182 84.9309 66.1898 84.9724C66.5281 85.0535 67.2673 84.2609 67.3051 83.9611C67.3642 83.4886 66.7986 83.253 66.7986 83.253Z" fill="#FFB9A0"/>
<path d="M45.7361 83.9469C45.7448 83.9338 43.5025 83.2788 40.6214 80.4487C37.7403 77.6186 33.596 76.3776 31.7018 77.6664C29.8076 78.9552 28.4242 82.9675 31.6034 85.7942C36.0239 89.7248 37.0515 92.0505 38.1775 92.0505C38.1775 92.0505 37.1683 91.8275 40.2075 89.037C43.2456 86.2465 44.6542 85.5586 45.7361 83.9469Z" fill="#F3F4FA"/>
<path d="M41.6446 76.5615C41.6446 76.5615 42.4739 76.9467 42.8702 76.7266C43.2664 76.5065 42.5845 74.0578 41.9395 73.59C41.2945 73.1228 41.3682 76.1397 41.6446 76.5615Z" fill="#ACB3D8"/>
<path d="M44.259 70.4923C44.259 70.4923 43.7617 71.6923 42.4215 71.784C41.0813 71.8758 42.4768 68.3081 42.4768 68.3081H44.5722C44.5722 68.3081 44.4432 69.8793 44.259 70.4923Z" fill="#070540"/>
<path d="M44.259 70.4923C44.259 70.4923 43.7617 71.6923 42.4215 71.784C41.0813 71.8758 42.4768 68.3081 42.4768 68.3081H44.5722C44.5722 68.3081 44.4432 69.8793 44.259 70.4923Z" fill="#070540"/>
<path d="M36.7011 68.2302C36.7011 68.2302 36.5077 66.0088 37.1155 65.0801C37.6778 64.2209 42.5186 63.8362 43.3688 65.2553C44.4977 67.1403 43.2883 70.7229 43.2883 70.7229C43.2883 70.7229 37.3322 74.1168 36.7011 68.2302Z" fill="#D14122"/>
<path d="M38.4385 73.7186C38.4385 73.7186 38.3634 74.519 38.3818 74.6657C38.4002 74.8124 40.9818 76.2866 41.6449 76.5618C41.6449 76.5618 43.3578 70.8572 43.2842 70.8755C43.21 70.8939 38.4385 73.7186 38.4385 73.7186Z" fill="#FFB9A0"/>
<path d="M36.6995 68.2297C36.7019 68.3099 36.9642 73.4757 37.033 74.0535C37.1018 74.6313 38.6606 74.8331 39.379 74.5165C40.0973 74.2003 41.8069 72.9897 42.0022 72.7005C42.1971 72.4114 42.3352 71.655 42.3352 71.655C42.3352 71.655 42.3076 72.0349 42.8602 71.9205C43.4127 71.8061 43.9546 71.0666 43.9789 70.623C44.0482 69.3617 42.722 69.1604 42.3488 70.875C42.3115 71.0463 41.8398 71.1409 41.8515 71.0077C41.8631 70.8749 41.9867 69.4809 42.0017 69.2333C42.0172 68.9857 41.4783 68.7105 41.4647 68.4769C41.4506 68.2428 41.865 66.6334 41.7545 66.3723C41.644 66.1107 39.9 66.8951 38.3892 66.5649C36.8788 66.2352 36.6598 66.8685 36.6995 68.2297Z" fill="#FFE5CF"/>
<path d="M36.8115 70.4014C38.2191 70.0466 39.6005 71.738 41.8864 70.6191C41.9276 70.1485 41.9916 69.4085 42.0027 69.2343C42.0182 68.9866 41.4792 68.7115 41.4656 68.4779C41.4516 68.2437 41.866 66.6344 41.7555 66.3733C41.645 66.1117 39.901 66.896 38.3902 66.5659C36.8793 66.2357 36.6598 66.869 36.6995 68.2302C36.7005 68.2645 36.7499 69.2483 36.8115 70.4014Z" fill="#FFB9A0"/>
<path d="M44.2623 70.492C44.2623 70.492 44.4993 69.0096 43.5178 69.1303C41.3293 69.3992 38.2209 67.4321 36.4342 67.7758C36.4342 67.7758 36.1017 65.302 37.9078 64.199C39.8602 63.0067 43.7601 63.7178 44.603 66.125C45.4222 68.4646 44.2623 70.492 44.2623 70.492Z" fill="#070540"/>
<path d="M42.4787 69.5083C42.4787 69.5083 41.3726 70.0735 40.1555 69.9219C38.9379 69.7708 37.5798 68.5187 34.9963 68.6013L34.8906 68.3812C34.8906 68.3812 36.1358 68.2508 36.433 68.1683C36.8799 68.0442 37.8755 67.9834 38.9379 68.3058C39.9558 68.6148 42.4787 69.1158 42.4787 69.1158V69.5083Z" fill="#070540"/>
<path d="M42.4787 69.1157C42.4787 69.1157 41.3726 69.7707 40.1555 69.6191C38.9379 69.4676 37.4736 68.2985 34.8906 68.381C34.8906 68.381 35.9866 67.8998 36.433 67.7757C36.8799 67.6516 37.8755 67.5908 38.9379 67.9133C40.0702 68.2574 41.9029 68.9974 42.4787 69.1157Z" fill="#6B78B7"/>
<path d="M66.0302 84.976C65.8324 84.5295 65.2033 84.3731 64.6245 84.627C64.0458 84.8809 63.737 85.4491 63.9348 85.8961C64.1326 86.3426 64.7617 86.499 65.3405 86.2451C65.9192 85.9907 66.228 85.4225 66.0302 84.976Z" fill="#FF946E"/>
<path d="M190.519 95.1913L189.016 95.7469L191.75 103.087L193.254 102.532L194.757 101.976L192.023 94.6357L190.519 95.1913Z" fill="#ACB3D8"/>
<path d="M193.252 102.532L191.062 103.341L191.571 104.705L193.76 103.896L195.949 103.087L195.441 101.723L193.252 102.532Z" fill="#070540"/>
<path d="M190.009 93.8275L188.156 94.5125L188.664 95.8766L190.518 95.1916L192.371 94.5072L191.863 93.1426L190.009 93.8275Z" fill="#070540"/>
<path d="M178.685 82.5659C178.682 82.563 178.678 82.5605 178.676 82.5576C178.69 82.5974 178.707 82.6343 178.722 82.6735C178.709 82.6376 178.697 82.6018 178.685 82.5659Z" fill="#6B78B7"/>
<path d="M191.446 78.5517C191.404 78.4267 191.361 78.3017 191.315 78.1772C189.702 73.8483 185.586 71.3764 182.122 72.6565C178.658 73.9366 177.156 78.4837 178.769 82.8126C178.816 82.9371 178.865 83.0602 178.915 83.1813L178.907 83.1842C181.262 89.5062 186.9 89.7789 188.621 94.34L189.403 94.0513L189.074 93.3326C188.138 91.4577 186.591 90.3166 184.964 89.1166C184.566 88.8236 184.166 88.5277 183.77 88.2179C185.141 88.7575 186.601 88.8357 187.962 88.3332C189.323 87.8307 190.379 86.8228 191.064 85.5234C190.967 86.0148 190.857 86.4989 190.748 86.9797C190.3 88.9467 189.875 90.8167 190.393 92.846L190.62 93.6019L191.397 93.3147C189.714 88.7392 193.809 84.8708 191.453 78.5488L191.446 78.5517ZM187.677 87.5681C184.642 88.6894 180.99 86.429 179.537 82.5287C178.084 78.6285 179.372 74.5429 182.407 73.4216C185.442 72.3002 189.093 74.5607 190.547 78.461C192 82.3612 190.712 86.4468 187.677 87.5681Z" fill="#6B78B7"/>
<path d="M191.219 77.9345C191.219 77.9306 191.22 77.9262 191.22 77.9229C191.235 77.9626 191.246 78.0014 191.261 78.0412C191.247 78.0053 191.233 77.9699 191.219 77.9345Z" fill="#6B78B7"/>
<mask id="mask0_4120_7723" style="mask-type:luminance" maskUnits="userSpaceOnUse" x="178" y="73" width="14" height="15">
<path d="M182.409 73.4216C185.444 72.3003 189.095 74.5608 190.548 78.461C192.001 82.3613 190.714 86.4469 187.679 87.5682C184.644 88.6895 180.992 86.429 179.539 82.5288C178.086 78.6285 179.373 74.5429 182.409 73.4216Z" fill="white"/>
</mask>
<g mask="url(#mask0_4120_7723)">
<path d="M189.078 72.4409L176.703 77.0122L176.808 77.2946L189.183 72.7233L189.078 72.4409Z" fill="#070540"/>
<path d="M189.43 73.3875L177.055 77.9565L177.16 78.2389L189.535 73.6699L189.43 73.3875Z" fill="#070540"/>
<path d="M189.782 74.3333L177.406 78.9023L177.511 79.1847L189.887 74.6157L189.782 74.3333Z" fill="#070540"/>
<path d="M190.133 75.2772L177.758 79.8462L177.863 80.1286L190.239 75.5596L190.133 75.2772Z" fill="#070540"/>
<path d="M190.484 76.2197L178.109 80.791L178.215 81.0734L190.589 76.5021L190.484 76.2197Z" fill="#070540"/>
<path d="M190.84 77.1673L178.465 81.7363L178.57 82.0187L190.946 77.4497L190.84 77.1673Z" fill="#070540"/>
<path d="M191.192 78.1121L178.816 82.6812L178.922 82.9636L191.297 78.3945L191.192 78.1121Z" fill="#070540"/>
<path d="M191.543 79.0565L179.168 83.6255L179.273 83.9079L191.649 79.3389L191.543 79.0565Z" fill="#070540"/>
<path d="M191.895 80.0013L179.52 84.5703L179.625 84.8527L192 80.2837L191.895 80.0013Z" fill="#070540"/>
<path d="M192.247 80.9452L179.871 85.5142L179.976 85.7966L192.352 81.2276L192.247 80.9452Z" fill="#070540"/>
<path d="M192.598 81.8919L180.223 86.4609L180.328 86.7433L192.703 82.1743L192.598 81.8919Z" fill="#070540"/>
<path d="M192.95 82.8358L180.574 87.4048L180.679 87.6872L193.055 83.1182L192.95 82.8358Z" fill="#070540"/>
<path d="M193.3 83.7783L180.926 88.3496L181.031 88.632L193.406 84.0607L193.3 83.7783Z" fill="#070540"/>
<path d="M177.237 71.8323L176.953 71.937L184.424 91.9818L184.708 91.8771L177.237 71.8323Z" fill="#070540"/>
<path d="M178.268 71.449L177.984 71.5537L185.455 91.5985L185.739 91.4938L178.268 71.449Z" fill="#070540"/>
<path d="M179.291 71.05L179.008 71.1548L186.481 91.1975L186.764 91.0927L179.291 71.05Z" fill="#070540"/>
<path d="M180.33 70.6872L180.047 70.792L187.514 90.8382L187.797 90.7334L180.33 70.6872Z" fill="#070540"/>
<path d="M181.354 70.2853L181.07 70.3901L188.539 90.4342L188.823 90.3294L181.354 70.2853Z" fill="#070540"/>
<path d="M182.385 69.905L182.102 70.0098L189.574 90.0524L189.858 89.9477L182.385 69.905Z" fill="#070540"/>
<path d="M183.412 69.5242L183.129 69.6289L190.602 89.6716L190.885 89.5669L183.412 69.5242Z" fill="#070540"/>
<path d="M184.455 69.1643L184.172 69.269L191.639 89.3153L191.922 89.2105L184.455 69.1643Z" fill="#070540"/>
<path d="M185.479 68.7801L185.195 68.8848L192.664 88.9296L192.948 88.8249L185.479 68.7801Z" fill="#070540"/>
</g>
<path d="M146.198 141.079C146.198 141.079 145.282 143.337 144.496 143.337C143.711 143.337 141.487 142.56 139.48 142.731C137.473 142.903 129.448 146.986 125.347 146.942L122.469 153.545C122.469 153.545 127.921 151.416 132.065 150.765C136.209 150.113 148.248 149.809 150.211 149.114C152.173 148.419 156.317 139.297 156.317 139.297L146.198 141.079Z" fill="#FFD2B3"/>
<path d="M146.197 141.079C146.197 141.079 145.871 141.881 145.441 142.528C146.001 142.36 147.375 143.076 148.901 144.619C150.06 145.789 151.211 146.747 152.456 146.589C154.33 143.669 156.316 139.297 156.316 139.297L146.197 141.079Z" fill="#FFB98B"/>
<path d="M125.028 146.668C125.028 146.668 127.005 147.276 132.931 144.791C132.931 144.791 136.019 147.247 134.129 150.664C134.129 150.664 130.058 151.243 127.383 152.17C124.708 153.097 122.148 153.85 122.148 153.85L125.028 146.668Z" fill="#E6E8F4"/>
<path d="M124.416 145.335C124.416 145.335 126.407 146.784 126.465 148.347C126.516 149.72 124.931 150.266 124.277 151.612C123.623 152.959 124.212 153.632 122.336 154.283C120.461 154.935 118.629 154.522 116.164 155.912C113.7 157.303 110.777 155.912 110.777 155.912L124.416 145.335Z" fill="#070540"/>
<path d="M115.89 154.793C119.381 152.406 119.794 150.644 121.299 149.645C122.804 148.646 124.657 146.974 124.439 145.497C124.382 145.105 123.383 144.271 123.123 144.094C122.404 143.602 109.817 155.093 109.828 155.752C109.906 155.825 110.72 156.358 110.83 156.402C111.784 156.787 113.897 156.154 115.89 154.793Z" fill="#E6E8F4"/>
<path d="M115.074 154.24C118.565 151.854 118.977 150.092 120.482 149.093C121.987 148.094 123.841 146.422 123.623 144.945C123.405 143.467 121.486 143.573 119.872 144.813C118.258 146.052 118.694 147.204 115.641 148.159C112.587 149.115 111.017 151.417 110.275 152.807C109.963 153.393 109.189 155.166 109.73 155.674C110.474 156.372 112.849 155.761 115.074 154.24Z" fill="white"/>
<path d="M173.703 132.275C173.703 132.275 180.042 132.333 181.903 132.622C183.765 132.912 184.986 136.966 186.672 138.182C188.359 139.399 191.732 140.267 195.222 144.727C198.711 149.187 198.479 149.708 198.479 149.708L203.713 149.302C203.713 149.302 185.975 127.236 184.521 126.078C183.067 124.919 175.739 123.298 175.739 123.298C175.739 123.298 174.227 130.711 173.703 132.275Z" fill="#FFD2B3"/>
<path d="M180.663 128.796C180.933 127.813 181.743 125.783 181.287 124.745C178.744 123.963 175.738 123.297 175.738 123.297C175.738 123.297 174.226 130.711 173.703 132.275C173.703 132.275 176.55 132.301 178.989 132.405C179.667 131.262 180.303 130.112 180.663 128.796Z" fill="#FFB98B"/>
<path d="M197.91 148.462C198.559 149.525 198.479 149.708 198.479 149.708L203.714 149.302C203.714 149.302 203.469 148.997 203.037 148.462H197.91Z" fill="#FFD2B3"/>
<path d="M191.22 141.107C191.143 140.998 194.234 138.096 194.873 138.125C195.513 138.154 201.357 146.175 202.114 146.957C202.87 147.739 197.9 148.309 197.274 147.865C196.647 147.421 195.514 145.537 193.855 143.859C191.901 141.88 191.385 141.34 191.22 141.107Z" fill="#E6E8F4"/>
<path d="M196.468 146.99C196.468 146.99 197.926 148.159 199.78 147.594C201.634 147.029 200.143 145.416 200.052 144.673C199.962 143.93 200.444 143.885 201.135 144.573C201.882 145.318 208.373 148.267 209.987 148.637C211.601 149.006 212.059 150.114 211.993 150.591C211.928 151.069 208.504 151.438 204.971 151.656C201.438 151.873 196.051 151.808 195.832 151.547C195.614 151.286 195.778 147.076 196.468 146.99Z" fill="#070540"/>
<path d="M211.904 150.709C211.903 150.708 211.902 150.707 211.902 150.706C211.356 151.128 208.212 151.456 204.969 151.655C201.548 151.866 196.391 151.811 195.868 151.571C195.755 151.899 195.807 152.308 195.86 152.371C196.078 152.632 201.436 152.749 204.969 152.532C208.502 152.315 211.926 151.946 211.992 151.468C212.011 151.327 211.993 150.926 211.904 150.709Z" fill="#E6E8F4"/>
<path d="M146.95 122.487C146.95 122.487 145.379 124.92 146.31 129.495C147.241 134.071 146.601 140.566 145.438 141.604C145.438 141.604 147.124 143.52 150.614 142.357C154.103 141.194 156.488 139.631 158.581 139.457C158.581 139.457 159.221 134.071 159.047 132.391C159.047 132.391 172.074 134.592 173.238 134.476C174.401 134.36 179.477 127.178 179.477 124.224C179.477 124.224 170.45 120.576 165.155 118.838C159.861 117.101 146.95 122.487 146.95 122.487Z" fill="#5BCFDE"/>
<g opacity="0.4">
<path d="M165.156 118.838C159.861 117.101 146.95 122.487 146.95 122.487C146.95 122.487 145.38 124.92 146.31 129.495C146.551 130.679 146.686 131.992 146.735 133.305C147.415 130.613 167.392 132.044 166.825 119.406C166.241 119.201 165.68 119.01 165.156 118.838Z" fill="#5BCFDE"/>
<path d="M158.809 137.322C158.974 135.623 159.15 133.373 159.048 132.391C159.048 132.391 155.485 131.811 153.755 131.638C152.026 131.465 159.036 135.188 158.809 137.322Z" fill="#5BCFDE"/>
</g>
<path d="M177.298 100.464C177.298 100.464 187.874 99.53 188.79 99.2476C189.706 98.9652 191.429 96.5981 191.734 96.3808C192.04 96.1636 194.148 96.3084 194.511 96.3808C194.875 96.4532 194.613 97.7276 194.613 97.7276C194.613 97.7276 195.271 99.4759 195.267 99.9644C195.265 100.286 194.947 101.159 194.613 101.116C194.278 101.072 194.453 100.652 194.104 100.58C193.755 100.507 193.246 101.782 192.824 102.013C192.403 102.245 191.835 102.289 190.905 102.158C189.974 102.028 183.861 105.09 182.094 105.373C180.327 105.655 175.377 105.221 174.984 105.221C174.592 105.221 175.815 100.598 177.298 100.464Z" fill="#FFD2B3"/>
<path d="M177.804 100.418C177.484 100.447 177.297 100.464 177.297 100.464C175.814 100.598 174.592 105.22 174.984 105.22C175.17 105.22 176.374 105.317 177.778 105.39C177.576 105.045 178.416 102.904 177.804 100.418Z" fill="#FFB98B"/>
<path d="M194.615 101.115C194.949 101.159 195.267 100.286 195.269 99.9642C195.273 99.4757 194.615 97.7273 194.615 97.7273C194.615 97.7273 194.877 96.453 194.513 96.3806C194.232 96.3246 192.916 96.2266 192.188 96.2841C192.376 96.2715 192.969 96.2691 192.957 96.7571C192.943 97.3363 193.757 98.7265 193.975 98.9727C194.193 99.2189 194.28 100.077 193.798 100.764L193.797 100.765C193.908 100.639 194.013 100.561 194.106 100.58C194.455 100.652 194.28 101.072 194.615 101.115Z" fill="#FFB98B"/>
<path d="M163.061 93.1809C163.182 92.9492 169.168 91.4866 169.691 91.1975C170.215 90.9079 170.622 89.6697 170.993 89.1706C171.363 88.671 173.049 87.4092 173.195 87.0472C173.34 86.6852 173.363 86.3979 173.639 86.3979C173.95 86.3979 174.155 87.0375 174.057 87.7133C173.959 88.3891 172.993 89.1822 172.884 89.3883C172.884 89.3883 175.06 89.2251 175.442 89.3661C175.823 89.507 175.644 89.8971 175.413 89.9815C175.04 90.1186 173.228 90.2021 173.13 90.3214C173.032 90.4406 175.804 90.2977 176.065 90.3943C176.437 90.5313 176.325 91.0493 176.009 91.1144C175.693 91.1796 173.777 91.335 173.603 91.4002C173.428 91.4654 176.26 91.3206 176.587 91.4074C176.914 91.4943 176.903 92.0808 176.478 92.1566C176.053 92.2324 173.643 92.4284 173.523 92.5259C173.403 92.6234 176.327 92.9608 176.513 93.1302C176.698 93.3001 176.554 93.7418 176.118 93.7852C175.682 93.8287 173.523 93.6226 173.338 93.6549C173.152 93.6877 171.658 94.3717 171.015 94.3389C170.943 94.3355 170.11 94.1878 169.915 94.223C168.367 94.5025 163.907 96.6409 163.643 96.6409C163.346 96.6414 162.81 93.6646 163.061 93.1809Z" fill="#FF946E"/>
<path d="M168.318 91.6348C166.387 92.1807 163.15 93.0114 163.061 93.1809C162.81 93.6645 163.346 96.6414 163.643 96.6414C163.867 96.6414 167.128 95.0948 169.049 94.4615C168.59 93.5781 168.326 92.6103 168.318 91.6348Z" fill="#F07D18"/>
<path d="M160.473 87.8814C160.473 87.8814 158.35 85.326 155.18 86.3971C152.011 87.4687 150.528 91.8197 150.44 97.5823C150.37 102.246 151.255 111.323 149.946 114.32C148.637 117.318 145.671 121.27 145.191 123.052C145.191 123.052 149.844 130.418 157.448 128.612C167.873 126.136 165.605 112.323 166.768 106.098C168.916 106.268 172.671 107.241 174.023 107.371C175.376 107.501 177.689 102.419 177.296 100.464C173.783 99.3528 170.996 98.2146 168.674 97.0957C166.348 95.9758 164.399 94.2106 163.042 92.0225L160.473 87.8814Z" fill="#6B78B7"/>
<path opacity="0.33" d="M159.788 92.5802C163.913 97.2026 168.855 98.7052 171.569 98.3891C170.55 97.9667 169.612 97.5448 168.738 97.1253C166.389 95.9982 164.412 94.2296 163.041 92.0208L162.924 91.832C162.63 92.1646 159.691 92.4716 159.788 92.5802Z" fill="#6B78B7"/>
<path opacity="0.44" d="M160.473 87.8816C160.473 87.8816 159.23 86.3924 157.229 86.168C158.087 86.3306 158.719 88.1982 157.405 88.4748C156.061 88.7577 154.74 89.5469 155.192 89.362C156.753 88.7244 158.35 88.6597 157.565 88.9556C156.773 89.2539 156.298 89.7796 156.544 89.7322C158.02 89.446 159.09 89.7404 158.825 90.004C158.825 90.004 159.411 90.8569 159.47 90.8569C159.498 90.8569 160.193 89.8853 160.939 88.8325L160.473 87.8816Z" fill="#6B78B7"/>
<path d="M162.992 106.228C162.205 106.632 166.26 110.597 166.156 114.08C166.374 111.046 166.384 108.157 166.769 106.098C166.525 106.046 163.78 105.824 162.992 106.228Z" fill="#6B78B7"/>
<path d="M158.825 90.0036C158.825 90.0036 160.031 89.8424 160.474 89.0063L167.099 92.3298C164.939 92.0879 163.619 93.9183 163.138 94.458C162.476 95.2009 157.94 91.7978 158.825 90.0036Z" fill="#FFB98B"/>
<path d="M161.671 89.6068C161.671 89.6068 160.763 90.5659 160.565 90.4902C160.366 90.4139 160.083 89.6836 160.026 89.5165C159.969 89.3495 160.839 88.7413 160.733 86.7955C160.626 84.8493 160.427 82.4474 160.58 82.0675C160.733 81.6876 168.101 82.1548 168.539 82.3918C168.773 82.5188 168.211 85.3016 168.288 85.6742C168.366 86.0469 164.61 90.4945 164.61 90.4945L161.671 89.6068Z" fill="#070540"/>
<path d="M162.12 87.8864C161.261 87.9235 161.395 88.8344 161.557 89.3349C161.779 90.0189 162.482 90.6831 162.86 90.2574C162.86 90.2574 163.033 91.0886 163.339 91.7576C163.644 92.4267 166.697 93.7444 167.511 93.3187C168.123 92.9991 168.071 89.4976 168.163 88.8083C168.254 88.119 168.59 87.7642 168.601 87.4703C168.611 87.1763 168.326 85.8484 168.244 85.4632C168.163 85.078 167.318 85.8383 166.199 85.4632C165.079 85.0881 163.319 84.115 163.42 84.2975C163.495 84.4307 165.049 85.1084 165.141 85.4125C165.232 85.7166 164.662 87.0547 164.662 87.2574C164.662 87.4601 164.001 87.4703 163.929 87.6831C163.858 87.896 163.787 89.2442 163.767 89.4064C163.746 89.5686 163.217 89.4773 163.207 89.3354C163.196 89.1926 163.056 87.8453 162.12 87.8864Z" fill="#FFD2B3"/>
<path d="M73.0703 73.5359C73.0703 73.5359 73.9724 75.8601 82.6457 78.3373C91.3191 80.8146 92.512 75.6318 92.512 75.6318L92.2192 69.7525C92.2192 69.7525 75.6664 67.5021 75.5554 67.3544C75.4444 67.2067 73.333 70.5016 73.0703 73.5359Z" fill="#ACB3D8"/>
<path d="M73.1539 97.9795C73.1539 97.9795 72.419 104.663 72.6386 106.391C72.8577 108.119 82.4491 116.815 83.9372 117.555C83.9372 117.555 87.3563 114.302 87.1843 113.868C87.0122 113.434 80.4434 106.868 79.8113 105.96C79.1788 105.052 80.1119 99.4498 80.1119 99.4498L73.1539 97.9795Z" fill="#450603"/>
<path d="M87.0692 113.442C87.9858 114.748 91.5552 120.764 93.5808 122.744C93.5808 122.744 92.9929 125.509 91.7239 126.313C91.453 126.485 90.1835 125.569 89.9615 125.631C89.9615 125.631 88.8137 123.627 87.1788 121.517C85.857 119.812 84.0665 117.997 83.4838 117.432C82.9153 116.881 86.7004 112.917 87.0692 113.442Z" fill="#E6E8F4"/>
<path d="M97.4729 124.009C97.6173 124.237 94.568 130.961 92.9568 133.005C92.286 133.856 90.5231 135.439 90.4344 135.286C90.1004 134.71 89.957 133.897 90.0069 133.512C90.0864 132.901 90.6947 129.041 90.5299 128.113C90.3651 127.186 89.4703 125.559 88.6875 125.047C88.6875 125.047 88.9609 125.002 89.51 125.025C90.0587 125.048 91.2114 125.99 91.2695 125.818C91.3495 125.583 90.4087 124.317 90.3544 123.675C90.3006 123.034 92.4241 121.505 92.0679 120.945C92.3621 120.64 92.7101 121.029 93.7706 122.04C94.2578 122.505 96.7351 122.845 97.4729 124.009Z" fill="#6B78B7"/>
<path d="M92.9584 133.005C94.4882 131.064 97.3126 124.909 97.4701 124.096C97.696 124.212 97.8113 124.426 97.9664 124.665C98.1133 124.892 95.0621 131.618 93.4504 133.661C92.7796 134.512 91.0167 136.095 90.928 135.942C90.8 135.722 90.7006 135.467 90.6289 135.214C91.1209 134.896 92.4073 133.704 92.9584 133.005Z" fill="#070540"/>
<path opacity="0.4" d="M89.5101 125.026C90.0592 125.049 91.2114 125.991 91.2695 125.819C91.3495 125.583 90.4087 124.317 90.3544 123.676C90.3278 123.359 90.8294 122.828 91.303 122.304C91.6903 125.293 94.3969 128.308 95.9838 129.266C95.1206 131.003 94.1497 132.774 93.4498 133.661C92.7789 134.512 91.016 136.095 90.9273 135.942C90.7994 135.722 90.7 135.467 90.6283 135.215C90.5216 135.284 90.4509 135.314 90.4349 135.286C90.1009 134.711 89.9574 133.897 90.0074 133.512C90.0869 132.901 90.6952 129.041 90.5304 128.114C90.3656 127.187 89.4708 125.56 88.6875 125.048C88.6875 125.048 88.9609 125.003 89.5101 125.026Z" fill="#6B78B7"/>
<path d="M86.1024 104.598C86.2071 104.789 85.9269 106.314 86.1926 107.318C86.4582 108.322 89.7198 118.037 89.9268 122.485L85.0108 123.562C85.0108 123.562 78.8318 109.784 78.5487 108.076C78.2656 106.368 78.2656 102.725 78.2656 102.725L86.1024 104.598Z" fill="#691813"/>
<path d="M78.4435 107.227C78.2666 105.387 78.2656 102.725 78.2656 102.725L86.1029 104.598C86.1979 104.771 85.9773 106.041 86.1339 107.025C83.752 106.232 80.6984 106.176 78.4435 107.227Z" fill="#450603"/>
<path d="M90.3644 122.109C90.4919 124.066 90.9689 132.319 91.8312 135.692C91.8312 135.692 89.9869 137.805 88.2085 137.979C87.5323 138.045 86.5992 136.546 86.1712 136.428C86.1712 136.428 86.2483 133.589 85.8809 130.329C85.5838 127.693 84.8635 124.644 84.6129 123.68C84.3671 122.738 90.3131 121.322 90.3644 122.109Z" fill="white"/>
<path d="M94.2166 139.341C94.2224 139.673 92.348 141.066 90.6671 142.693C89.5319 143.792 87.7869 146.141 84.7808 147.266C83.5292 147.735 80.4678 147.104 80.4727 146.887C80.4906 146.069 80.8609 145.122 81.161 144.748C81.636 144.156 84.7517 140.481 85.1729 139.4C85.5941 138.32 85.2844 136.102 84.788 135.066C84.788 135.066 86.0938 134.924 86.6566 135.298C87.2193 135.671 87.9997 137.239 88.1713 137.096C88.4064 136.899 88.2285 134.968 88.5828 134.258C88.9376 133.549 91.4363 133.689 91.319 132.898C91.8759 132.697 92.0107 133.332 92.4779 135.071C92.6932 135.87 94.187 137.647 94.2166 139.341Z" fill="#6B78B7"/>
<path d="M84.782 147.266C87.7881 146.14 89.5326 143.791 90.6683 142.693C92.1854 141.224 93.8547 139.95 94.1625 139.471C94.1625 139.472 94.163 139.472 94.1635 139.473C94.243 139.752 94.3152 140.321 94.2837 140.622C94.2498 140.953 92.1369 142.527 90.456 144.154C89.3208 145.253 87.5758 147.602 84.5697 148.727C83.3181 149.196 80.3663 148.571 80.3711 148.354C80.3793 147.984 80.3609 147.245 80.4739 146.887C80.469 147.105 83.53 147.735 84.782 147.266Z" fill="#070540"/>
<path d="M92.5125 75.6319C92.5125 75.6319 92.3148 77.9069 92.512 78.671C92.512 78.671 79.1564 80.5873 78.3605 74.5308C78.2824 73.9357 78.122 70.0113 77.9141 69.9321C77.9141 69.9321 91.9871 72.5716 92.5125 75.6319Z" fill="#691813"/>
<path d="M78.2989 73.7619C78.2112 72.4325 78.0769 69.9939 77.9141 69.9321C77.9141 69.9321 91.9866 72.5716 92.512 75.6319C92.512 75.6319 92.4931 75.8501 92.4728 76.1725C88.4381 73.3965 78.2989 73.7619 78.2989 73.7619Z" fill="#450603"/>
<path d="M78.3017 73.8096C78.308 76.6271 74.5132 86.077 71.668 98.7465C72.1372 100.526 76.6484 100.619 76.6484 100.619C76.6484 100.619 76.454 102.464 76.4094 103.379C77.3681 105.58 85.4642 106.277 86.678 105.187C87.2548 103.284 88.8698 95.8676 89.4224 93.8842C89.9745 91.9008 92.6738 88.4857 93.2715 85.28C93.8686 82.0744 93.2976 78.1153 92.4252 77.4072C92.176 79.1608 78.5673 77.5756 78.3017 73.8096Z" fill="#6B78B7"/>
<path opacity="0.3" d="M77.5781 77.4433C78.0313 75.8007 78.3047 74.5645 78.3028 73.8096C78.5684 77.5751 92.1766 79.1608 92.4257 77.4072C93.241 78.0689 93.7926 81.569 93.3743 84.6404C91.7307 81.9677 83.9351 77.9019 77.5781 77.4433Z" fill="#6B78B7"/>
<path opacity="0.3" d="M72.2031 99.5047C74.5918 100.31 78.5431 88.1824 78.152 90.2435C77.5277 93.5332 76.6465 100.619 76.6465 100.619C76.6465 100.619 73.521 100.554 72.2031 99.5047Z" fill="#6B78B7"/>
<path d="M93.1459 16.8362C91.0893 16.688 93.6035 10.5895 93.7368 9.36875C93.8017 8.77213 92.3287 9.18001 91.4499 9.77036C90.5711 10.3607 90.5217 12.0748 90.5217 12.0748L89.8203 17.3816C89.8203 17.3816 92.9559 17.3358 93.1459 16.8362Z" fill="#450603"/>
<g opacity="0.5">
<path d="M93.1459 16.8362C91.0893 16.688 93.6035 10.5895 93.7368 9.36875C93.8017 8.77213 92.3287 9.18001 91.4499 9.77036C90.5711 10.3607 90.5217 12.0748 90.5217 12.0748L89.8203 17.3816C89.8203 17.3816 92.9559 17.3358 93.1459 16.8362Z" fill="#450603"/>
</g>
<path d="M100.154 16.6802C103.91 15.2212 105.766 11.0069 104.299 7.2672C102.833 3.52751 98.5993 1.67863 94.8434 3.1376C91.0876 4.59657 89.2318 8.81091 90.6983 12.5506C92.1648 16.2903 96.3983 18.1392 100.154 16.6802Z" fill="#F07D18"/>
<path d="M93.9637 6.05548C94.3166 5.53754 94.7077 5.06835 95.1333 4.65033C94.6094 4.42105 94.0742 4.1435 93.5294 3.80513C93.75 3.66321 93.9783 3.5324 94.2133 3.41462C94.716 3.7052 95.2109 3.94559 95.6961 4.14349C96.109 3.80512 96.5501 3.51019 97.0198 3.26353C97.4735 3.02507 97.9437 2.83875 98.4269 2.70215C98.4628 2.70698 98.4982 2.70987 98.534 2.7147C99.0789 2.7929 99.5999 2.93143 100.093 3.11872C99.1254 3.1694 98.1986 3.41558 97.3397 3.86739C97.0295 4.03055 96.7338 4.21783 96.4498 4.42539C97.5234 4.78645 98.5491 4.98195 99.5165 5.16586C101.197 5.48493 102.744 5.78034 104.098 6.82346C104.313 7.27961 104.481 7.7599 104.598 8.25709C103.168 6.55556 101.435 6.22491 99.3886 5.83633C98.2723 5.62443 97.0823 5.39756 95.8279 4.93272C95.397 5.32467 95.0025 5.77214 94.6457 6.27125C97.8996 7.35974 101.576 9.59079 104.072 13.0547C103.962 13.2839 103.84 13.5055 103.707 13.7193C101.251 10.1416 97.5098 7.88009 94.272 6.83456C93.7252 7.72563 93.2851 8.75523 92.9594 9.90165C94.0859 10.4548 94.9133 11.4313 95.8017 12.4817C96.9631 13.8545 98.2529 15.3769 100.501 16.5296C100.23 16.6522 99.9513 16.7604 99.6649 16.8497C97.5995 15.6637 96.3393 14.1765 95.2778 12.9214C94.4189 11.9058 93.7 11.0577 92.7868 10.5649C92.4679 11.9092 92.2997 13.4012 92.2861 15.0058C92.0462 14.7625 91.8237 14.5033 91.6202 14.2296C91.6773 12.821 91.8548 11.5004 92.1509 10.2926C91.5974 10.115 90.9624 10.0571 90.1951 10.1474C90.1878 9.92145 90.1912 9.69361 90.2058 9.46384C91.0254 9.38275 91.7176 9.45708 92.323 9.64679C92.6458 8.53223 93.0733 7.52242 93.5987 6.63231C92.7476 6.39627 91.943 6.24904 91.2188 6.18581C91.3477 5.97053 91.4864 5.76296 91.6361 5.56361C92.3589 5.65387 93.1431 5.81606 93.9637 6.05548Z" fill="#070540"/>
<path d="M88.7059 38.8439C88.7059 38.8439 87.5072 36.638 87.1049 35.8338C86.7031 35.0301 91.9093 20.2198 92.3146 19.6169C93.345 18.0853 96.0822 17.7778 96.1971 17.0287C96.2645 16.5904 95.9329 16.4267 95.4414 16.364C94.5617 16.252 93.6848 16.5768 93.1706 16.6787C92.6563 16.7801 91.2991 16.9577 90.938 16.6232C90.3583 16.0864 90.4489 13.7709 90.479 13.1608C90.5085 12.5506 90.6108 11.4805 90.3529 11.2869C90.0679 11.0731 89.5895 11.4404 89.3859 12.8451C89.1824 14.2497 89.21 18.511 88.9211 19.2887C88.6322 20.0663 84.9901 26.9718 84.2645 28.3302C83.5384 29.6885 81.8812 33.9454 81.6868 34.6782C81.4925 35.4109 85.3318 42.9672 85.8199 43.8568C86.3071 44.7454 89.0592 39.6819 88.7059 38.8439Z" fill="#450603"/>
<path opacity="0.3" d="M87.8721 37.2944C88.2943 38.0841 88.7068 38.8439 88.7068 38.8439C89.0602 39.6819 86.308 44.7454 85.8199 43.8563C85.6144 43.4817 84.8151 41.9255 83.9727 40.1945C85.5111 39.581 86.9114 38.6484 87.8721 37.2944Z" fill="#450603"/>
<path d="M93.7142 44.2432C93.5499 44.178 89.7609 40.4371 88.6121 38.3325C88.6121 38.3325 86.0194 40.1021 85.2812 42.7608C84.543 45.4196 92.0749 49.4984 93.8048 49.7253C95.5343 49.9531 96.1271 45.1999 93.7142 44.2432Z" fill="#FFB718"/>
<path d="M101.575 46.207C101.575 46.207 102.152 45.2005 104.205 44.3428C105.767 43.6902 106.924 42.6142 106.463 40.3668C106.003 38.1193 103.643 36.7349 102.711 36.5703C101.778 36.4052 101.108 37.3156 101.108 37.3156C101.108 37.3156 98.6387 44.6479 101.575 46.207Z" fill="#330300"/>
<path d="M95.2961 41.6628C95.1565 42.2777 96.4017 43.3175 96.4361 43.5053C96.4705 43.6925 95.7628 45.5398 95.7628 45.5398C95.7628 45.5398 100.673 48.0591 100.839 48.1904C100.839 48.1904 101.21 47.015 101.574 46.2069C101.574 46.2069 101.078 44.63 102.755 43.4155C103.619 42.7894 102.704 42.5601 102.704 42.5601C102.704 42.5601 96.1395 40.4275 95.2961 41.6628Z" fill="#450603"/>
<path d="M100.781 42.959C101.136 43.3858 102.441 44.0326 103.103 43.0831C103.765 42.1336 102.787 41.6809 101.568 41.8995C101.375 41.9343 102.755 40.464 102.77 40.3109C102.779 40.2105 102.765 39.6443 102.939 39.4599C103.317 39.0607 103.782 38.8595 103.649 38.4747C103.349 37.6112 102.388 37.2347 101.848 37.1985C101.308 37.1628 99.7092 37.6947 98.5061 38.5457C98.0447 38.872 95.5484 41.1673 95.2969 41.663C95.9265 41.1494 97.3055 42.6743 98.8721 43.253C99.6602 43.5436 100.451 43.2921 100.781 42.959Z" fill="#691813"/>
<path d="M102.638 50.8398C102.638 50.8398 102.046 53.6544 97.8752 61.7445C95.1953 66.9423 92.6157 71.8721 92.5105 75.6314C92.6792 74.9035 73.7149 69.6768 73.0693 73.536C73.0693 73.536 72.3936 69.3939 75.5224 64.8406C78.6512 60.2877 87.2713 47.6583 91.0724 46.0625C94.8734 44.4672 102.638 50.8398 102.638 50.8398Z" fill="#E6E8F4"/>
<path d="M98.5547 54.3377C91.0228 53.4273 85.7482 58.1897 80.9258 57.1707C84.5252 52.2616 88.7214 47.0503 91.0732 46.0632C94.073 44.8038 99.5376 48.5057 101.71 50.1232C101.639 50.1362 100.124 54.5269 98.5547 54.3377Z" fill="#ACB3D8"/>
<path d="M88.1172 51.2552C88.1172 51.2552 87.1386 51.2166 86.9719 47.506C86.8051 43.7955 93.401 49.1627 93.401 49.1627C93.401 49.1627 90.2543 52.0164 88.1172 51.2552Z" fill="#FFB718"/>
<path d="M89.1891 43.2466C89.1891 43.2466 86.7563 42.6992 85.9958 42.0191C85.2353 41.3389 80.3203 30.7127 80.0164 29.9225C79.7125 29.1328 80.9427 28.1457 81.2859 27.5525C81.6489 26.9245 82.9911 26.0276 83.374 25.7168C83.7569 25.4064 83.0274 24.9319 82.5917 25.0337C82.1661 25.1332 80.7352 25.9808 80.3693 25.9721C80.0033 25.9634 79.8167 24.3126 79.7808 23.6489C79.745 22.9851 80.0838 19.333 80.0988 18.9251C80.1138 18.5177 79.4522 18.3198 79.2932 18.8093C79.1342 19.2983 78.5696 22.6844 78.4353 22.8992C78.301 23.114 78.0897 23.0542 78.0815 22.9069C78.0737 22.7597 78.1997 18.5496 78.2186 18.216C78.2375 17.8825 77.5904 17.5842 77.4271 18.1021C77.2638 18.6201 76.8687 22.557 76.7597 22.7023C76.6506 22.8476 75.4931 18.8774 75.3744 18.5819C75.2556 18.2865 74.5833 18.3657 74.6109 18.8817C74.6391 19.3977 75.7515 23.0691 75.6545 23.3332C75.5576 23.5972 73.7782 21.3806 73.5422 21.1856C73.3061 20.9906 72.6619 21.176 73.0046 21.7518C73.3473 22.3277 74.5576 24.009 74.7869 24.4516C75.0166 24.8942 75.1911 27.4357 75.4553 28.249C75.6531 28.8592 76.4422 29.6493 76.6511 29.9279C76.8605 30.2069 80.094 43.2538 80.7469 44.6276C81.3993 46.0019 90.3945 50.4268 91.109 50.9684C91.8244 51.5109 92.8433 44.4891 89.1891 43.2466Z" fill="#691813"/>
<path opacity="0.5" d="M88.6186 43.103C88.9588 43.1943 89.1896 43.2464 89.1896 43.2464C92.8433 44.4889 91.8244 51.5112 91.11 50.9692C90.8448 50.7683 89.4406 50.0332 87.7461 49.118C89.4169 48.2583 88.6501 43.1976 88.6186 43.103Z" fill="#450603"/>
<path d="M102.713 49.0767C102.265 47.1468 100.47 45.3965 96.7455 44.7946C93.0205 44.1927 89.1913 43.2466 89.1913 43.2466C91.0608 44.7898 90.786 52.1766 88.1172 51.2556C88.1172 51.2556 95.478 54.1363 98.5559 54.3376C101.634 54.5389 103.093 50.7159 102.713 49.0767Z" fill="#FEDA00"/>
<path d="M102.773 131.589C102.773 131.589 102.104 131.736 101.847 131.799C101.696 131.836 101.691 132.507 101.788 132.663C101.887 132.822 102.857 132.945 102.857 132.945C102.857 132.945 102.929 131.659 102.773 131.589Z" fill="#070540"/>
<path d="M102.808 133.36C102.808 133.36 102.154 133.563 101.903 133.647C101.756 133.696 101.808 134.365 101.918 134.513C102.03 134.663 103.008 134.703 103.008 134.703C103.008 134.703 102.97 133.416 102.808 133.36Z" fill="#070540"/>
<path d="M103.466 139.467C103.466 139.467 102.825 139.467 102.578 139.473C102.432 139.476 102.292 140.089 102.349 140.252C102.407 140.417 103.271 140.723 103.271 140.723C103.271 140.723 103.595 139.561 103.466 139.467Z" fill="#070540"/>
<path d="M103.047 142.574C103.047 142.574 102.533 142.799 102.336 142.889C102.22 142.943 102.324 143.484 102.427 143.594C102.532 143.706 103.333 143.651 103.333 143.651C103.333 143.651 103.184 142.605 103.047 142.574Z" fill="#070540"/>
<path d="M103.514 144.361C103.514 144.361 103.205 144.827 103.089 145.01C103.022 145.117 103.439 145.499 103.601 145.497C103.755 145.495 104.341 145.11 104.341 145.11C104.341 145.11 103.646 144.312 103.514 144.361Z" fill="#070540"/>
<path d="M119.926 124.113C120.302 126.213 110.85 131.307 108.276 136.541C108.058 136.985 106.734 139.49 106.287 139.667C105.072 140.148 104.444 138.318 104.343 137.621C104.072 135.743 104.306 131.668 106.205 130.262C108.186 128.796 110.507 125.2 111.651 122.91C112.575 121.06 115.127 117.465 117.064 117.433C119 117.4 119.926 124.113 119.926 124.113Z" fill="#E6E8F4"/>
<path d="M113.512 120.05C113.664 119.859 113.82 119.67 113.98 119.488C113.963 119.548 113.945 119.606 113.931 119.671C113.251 123.136 115.188 126.589 116.82 127.444C116.909 127.491 117.006 127.533 117.109 127.568C117.008 127.654 116.904 127.741 116.799 127.829C116.751 127.807 116.702 127.787 116.653 127.761C114.995 126.892 113.043 123.52 113.512 120.05Z" fill="#6B78B7"/>
<path d="M108.043 136.786C108.59 135.628 107.16 134.596 106.029 135.917L105.922 138.58C105.922 138.58 107.402 138.914 107.375 138.873C107.347 138.832 108.043 136.786 108.043 136.786Z" fill="#6B78B7"/>
<path d="M106.202 130.262C105.635 130.593 103.851 130.068 102.724 131.1C101.739 132.003 103.334 136.847 103.123 137.994C102.912 139.14 102.162 140.571 102.473 142.847C102.783 145.123 104.527 146.196 105.968 145.901C107.057 145.679 107.069 142.1 107.435 139.848C107.84 137.363 108.823 136.202 108.823 136.202C108.823 136.202 107.616 136.149 106.846 138.102C106.846 138.102 107.428 136.701 106.343 135.692C105.257 134.684 104.569 132.099 106.202 130.262Z" fill="#ACB3D8"/>
<path d="M115.735 107.619C115.735 107.619 116.957 108.324 122.698 108.021C128.44 107.719 126.224 104.892 123.801 104.682C121.377 104.471 115.689 106.059 115.735 107.619Z" fill="#070540"/>
<path d="M129.647 107.68C129.647 107.68 128.028 113.341 126.493 115.999C124.959 118.655 124.684 120.355 123.795 121.212C123.073 121.908 121.917 122.628 119.768 124.811C118.586 126.011 115.628 122.05 116.318 118.536C116.59 117.151 118.093 117.314 118.304 116.004C118.516 114.693 118.031 107.625 117.936 106.208C117.84 104.791 128.948 103.064 129.647 107.68Z" fill="#FFD2B3"/>
<path d="M118.156 109.717C118.066 108.143 117.971 106.755 117.934 106.208C117.839 104.791 128.946 103.064 129.645 107.679C129.645 107.679 129.508 108.159 129.276 108.902C126.123 107.222 119.493 108.834 118.156 109.717Z" fill="#FFB98B"/>
<path d="M128.451 85.2726C128.451 85.2726 131.156 94.1359 130.972 98.6154C130.787 103.095 129.741 107.81 129.616 107.809C129.633 107.659 130.009 106.249 125.566 106.046C120.51 105.815 115.926 106.728 115.734 107.619C114.637 107.505 117.401 103.37 116.744 96.4249C116.088 89.4798 110.938 87.017 110.938 87.017C110.938 87.017 112.264 85.748 111.831 84.4346C111.831 84.4346 125.153 86.8428 128.451 85.2726Z" fill="#6B78B7"/>
<path opacity="0.3" d="M128.451 85.2726C128.451 85.2726 131.156 94.1359 130.972 98.6154C130.787 103.095 129.741 107.81 129.616 107.809C129.633 107.659 130.009 106.249 125.566 106.046C120.51 105.815 115.926 106.728 115.734 107.619C114.637 107.505 117.401 103.37 116.744 96.4249C116.088 89.4798 110.938 87.017 110.938 87.017C110.938 87.017 112.264 85.748 111.831 84.4346C111.831 84.4346 125.153 86.8428 128.451 85.2726Z" fill="#6B78B7"/>
<path d="M117.841 104.791C117.841 104.791 119.809 106.265 124.261 101.482C128.943 96.4514 119.668 96.2805 119.456 96.31C119.245 96.3394 115.767 102.239 117.841 104.791Z" fill="#070540"/>
<path d="M129.629 92.5451C129.629 92.5451 137.01 98.5876 138.754 101.054C139.325 101.861 138.431 105.699 138.305 109.861C137.071 109.446 132.099 109.721 130.607 110.198C130.955 108.359 131.656 106.816 131.653 106.378C131.65 105.667 122.435 101.857 119.929 100.153C117.423 98.4471 122.07 89.7252 129.629 92.5451Z" fill="#FFD2B3"/>
<path d="M129.63 92.5451C129.63 92.5451 129.924 92.7865 130.405 93.1886C130.372 93.1982 130.34 93.2055 130.306 93.2166C126.238 94.5855 124.576 98.4751 124.136 102.392C122.379 101.539 120.773 100.726 119.929 100.152C117.424 98.4471 122.071 89.7252 129.63 92.5451Z" fill="#FFB98B"/>
<path d="M129.628 92.5451C130.496 91.8365 114.353 82.6193 111.258 84.2716C108.595 85.6932 109.919 91.8414 110.827 94.7849C112.383 99.8272 115.561 101.482 117.841 104.791C117.266 104.109 117.382 102.38 120.351 99.8919C123.738 97.0541 124.087 92.5755 129.628 92.5451Z" fill="#6B78B7"/>
<path d="M132.108 125.1C131.844 122.075 130.392 115.21 130.414 110.101C130.443 109.943 134.091 108.166 138.426 109.742C138.186 115.537 137.38 122.296 137.185 126.919C137.098 128.993 138.119 131.53 138.095 132.031C138.095 132.031 134.763 134.386 131.332 128.58C131.652 128.315 132.334 127.692 132.108 125.1Z" fill="#E6E8F4"/>
<path d="M138.319 111.84C138.311 111.963 138.304 112.086 138.296 112.208C134.6 111.015 131.442 112.059 130.496 112.504C130.488 112.376 130.48 112.248 130.473 112.12C131.715 111.563 134.814 110.74 138.319 111.84Z" fill="#6B78B7"/>
<path d="M139.033 134.423C138.547 132.426 138.39 130.823 138.392 130.311C138.394 129.799 137.24 130.275 137.287 131.33C137.324 132.179 139.321 135.604 139.033 134.423Z" fill="#6B78B7"/>
<path d="M132.251 133.641C132.262 133.695 131.484 134.09 131.241 134.225C131.031 134.34 130.472 133.781 130.57 133.595C130.668 133.409 131.045 132.437 131.171 132.444C131.298 132.452 132.199 133.378 132.251 133.641Z" fill="#070540"/>
<path d="M135.847 137.273C135.847 137.323 135.091 137.539 134.854 137.617C134.649 137.684 134.251 137.094 134.369 136.947C134.488 136.799 134.988 136.004 135.098 136.032C135.209 136.06 135.846 137.032 135.847 137.273Z" fill="#070540"/>
<path d="M137.251 138.573C137.263 138.616 136.653 138.977 136.463 139.099C136.299 139.204 135.816 138.78 135.886 138.624C135.956 138.468 136.209 137.66 136.312 137.66C136.416 137.659 137.195 138.362 137.251 138.573Z" fill="#070540"/>
<path d="M138.961 140.092C138.975 140.129 138.463 140.495 138.304 140.617C138.167 140.722 137.708 140.384 137.758 140.241C137.807 140.098 137.97 139.364 138.06 139.356C138.151 139.347 138.894 139.91 138.961 140.092Z" fill="#070540"/>
<path d="M140.832 140.619C140.854 140.648 140.492 141.107 140.382 141.257C140.288 141.387 139.789 141.203 139.796 141.062C139.803 140.922 139.757 140.225 139.836 140.194C139.915 140.163 140.725 140.474 140.832 140.619Z" fill="#070540"/>
<path d="M131.072 132.274C131.082 132.328 130.304 132.724 130.061 132.858C129.852 132.974 129.292 132.414 129.39 132.228C129.488 132.043 129.865 131.07 129.992 131.077C130.118 131.085 131.018 132.011 131.072 132.274Z" fill="#070540"/>
<path d="M139.62 135.95C138.858 133.889 138.098 132.24 137.83 131.303C137.587 130.451 135.13 131.591 133.886 131.064C131.55 130.076 131.705 128.167 131.705 128.167C131.626 128.182 129.611 129.018 129.602 131.031C129.601 131.188 129.661 131.338 129.762 131.459C130.098 131.864 131 132.9 132.604 134.396C134.703 136.354 136.107 138.733 138.29 140.216C140.473 141.7 141.68 141.105 141.907 140.657C142.135 140.208 140.089 137.216 139.62 135.95Z" fill="#ACB3D8"/>
<path d="M103.21 66.1028C103.21 66.1028 100.627 67.0475 100.022 67.3182C99.4175 67.5886 98.1189 69.7414 96.4932 71.3189C94.8675 72.8964 92.8831 75.0458 92.6325 75.8645C92.3819 76.6832 93.0057 78.3794 92.8099 79.1435C92.6146 79.9076 91.9205 81.7351 91.7547 82.0619C91.5884 82.3892 90.9855 82.3042 90.7407 81.7844C90.7407 81.7844 89.1426 82.0991 88.559 81.3808C88.1795 80.8851 87.9798 79.5321 87.9269 79.0127C87.8746 78.4933 89.6161 75.4687 90.0306 74.7601C90.445 74.0515 95.1191 65.4936 96.4399 64.5432C97.7607 63.5928 99.1334 63.4074 100.59 62.7036C100.59 62.7036 103.158 65.2557 103.21 66.1028Z" fill="#FFD2B3"/>
<path d="M88.5589 81.3807C88.4174 81.1954 88.3006 80.8903 88.207 80.5539C88.5289 80.5925 88.9772 80.6012 89.4842 80.481C90.5002 80.2396 91.4289 78.0988 90.9427 79.463C90.4566 80.8266 90.7406 81.7843 90.7406 81.7843C90.7406 81.7843 89.1425 82.099 88.5589 81.3807Z" fill="#FFB98B"/>
<path d="M100.59 62.7036C100.59 62.7036 103.157 65.2557 103.208 66.1028C103.208 66.1028 100.625 67.0475 100.021 67.3182C99.8492 67.395 99.6199 67.6267 99.3451 67.9506C99.346 67.9496 99.3465 67.9482 99.347 67.9472C100.047 67.0653 99.0053 63.7023 97.8008 63.7945C98.7004 63.4112 99.6262 63.1694 100.59 62.7036Z" fill="#FFB98B"/>
<path d="M132.796 67.7111C132.796 67.7111 134.069 67.8086 134.47 65.5153C134.871 63.222 129.117 61.5986 129.117 61.5986C129.117 61.5986 130.889 66.8123 132.796 67.7111Z" fill="#00B09D"/>
<path d="M134.258 60.1322C134.258 60.1322 140.551 63.1655 141.496 63.4156C142.441 63.6656 143.649 68.8817 143.097 68.8551C141.184 68.762 131.096 65.4603 130.789 65.2334C130.482 65.0065 131.349 59.6341 134.258 60.1322Z" fill="#FFD2B3"/>
<path opacity="0.4" d="M138.75 62.2471C140.01 62.8249 141.138 63.3201 141.497 63.4147C142.442 63.6648 143.65 68.8808 143.098 68.8543C142.443 68.8224 140.829 68.4136 138.978 67.8817C140.468 67.9594 139.264 63.4625 138.75 62.2471Z" fill="#FFB98B"/>
<path d="M134.258 60.1322C134.258 60.1322 134.553 60.2741 135.023 60.4986C134.191 60.6106 133.373 65.5896 133.517 66.1945C131.996 65.6958 130.888 65.3058 130.789 65.2329C130.482 65.0065 131.35 59.6341 134.258 60.1322Z" fill="#FFB98B"/>
<path d="M143.493 63.6748C143.493 63.6748 143.593 64.2082 144.493 65.3797C145.393 66.5517 144.913 68.3116 143.8 68.7369C142.687 69.1622 141.168 68.2132 140.722 66.8384C140.275 65.4637 140.281 64.0909 140.281 64.0909L143.493 63.6748Z" fill="#FFE5CF"/>
<path d="M144.108 61.2525C144.108 61.2525 143.996 63.4754 143.545 64.2964C142.884 65.4998 141.085 65.4197 140.155 64.8554C139.225 64.2911 138.794 62.4863 138.782 62.049C138.77 61.6116 138.936 61.3939 139.622 61.2602C140.309 61.1265 144.108 61.2525 144.108 61.2525Z" fill="#FFB98B"/>
<path d="M142.898 61.9596C142.898 61.9596 142.736 62.7498 142.973 63.0389C143.21 63.3281 143.671 63.1789 143.859 62.7223C144.047 62.2656 144.197 61.4141 144.268 60.9141C144.339 60.414 143.525 59.9713 143.276 60.3667C143.028 60.7615 142.968 61.6425 142.898 61.9596Z" fill="#FFE5CF"/>
<path d="M141.67 62.9241C141.67 62.9241 141.663 63.5777 142.129 63.6955C142.493 63.7876 142.844 63.556 142.926 63.0689C143.008 62.5823 143.307 60.8229 143.266 60.3194C143.225 59.8155 142.273 59.6335 142.059 60.0482C141.729 60.6858 141.626 62.4264 141.67 62.9241Z" fill="#FFE5CF"/>
<path d="M140.405 62.6499C140.405 62.6499 140.402 63.4768 140.964 63.609C141.332 63.6959 141.599 63.3566 141.683 62.8613C141.767 62.3661 142.097 60.4401 142.056 59.9279C142.016 59.4158 140.953 59.3308 140.735 59.7532C140.401 60.4024 140.362 62.1431 140.405 62.6499Z" fill="#FFE5CF"/>
<path d="M139.322 61.954C139.322 61.954 139.445 62.6752 139.759 62.8803C140.072 63.085 140.466 62.8012 140.507 62.3054C140.547 61.8097 140.731 60.2911 140.648 59.7891C140.564 59.2871 139.509 59.2938 139.33 59.7283C139.055 60.3968 139.236 61.4578 139.322 61.954Z" fill="#FFE5CF"/>
<path d="M123.532 47.8438C123.532 47.8438 123.953 44.88 120.143 44.3949C116.936 43.9948 115.144 46.2553 115.162 48.6133C115.178 50.5494 114.666 50.8178 112.271 50.3433C109.876 49.8688 106.837 51.1354 106.806 54.0374C106.752 58.988 109.009 60.34 114.191 61.3059C119.373 62.2718 122.486 55.9962 121.675 53.196C120.863 50.3964 121.912 47.6749 123.532 47.8438Z" fill="#F07D18"/>
<path d="M128.454 85.2721C128.454 85.2721 131.147 84.1363 130.607 82.2765C130.066 80.4161 127.493 75.9931 128.169 71.9524C128.846 67.9122 129.459 68.7207 128.652 65.2747C128.652 65.2747 131.358 67.4174 132.797 67.7104C132.797 67.7104 131.566 67.0086 131.865 64.4281C132.164 61.8475 133.463 60.6133 134.258 60.1315C134.258 60.1315 130.327 58.4792 128.194 57.077C126.061 55.6742 123.322 56.0324 120.008 56.5151C115.561 57.1629 110.421 56.2163 107.578 57.1281C104.735 58.04 102.228 61.3489 99.1567 63.2831C98.4122 63.7518 101.891 68.4634 104.735 67.3836C105.248 67.1886 107.334 65.7946 107.706 65.5721C108.077 65.3495 110.206 66.8208 111.029 71.8878C111.494 74.7487 111.257 81.509 110.881 82.6549C110.506 83.8008 110.81 84.2599 111.834 84.4346C112.857 84.6094 122.119 87.8671 128.454 85.2721Z" fill="#5BCFDE"/>
<g opacity="0.5">
<path d="M131.465 67.1646C130.117 66.4348 128.651 65.2753 128.651 65.2753C128.651 65.2753 127.727 62.3946 127.759 61.3297C127.791 60.2726 130.36 66.6037 131.465 67.1646Z" fill="#00B09D"/>
<path d="M131.597 67.2355C131.563 67.218 131.53 67.2006 131.496 67.1821C131.74 67.2893 131.741 67.2971 131.597 67.2355Z" fill="#00B09D"/>
<path d="M119.95 56.5223C119.968 56.5194 119.988 56.518 120.006 56.5155C122.174 56.1999 124.093 55.9411 125.76 56.1897C124.926 56.1038 122.528 56.265 124.315 57.0977C126.239 57.9936 127.373 60.4988 125.834 61.0312C124.296 61.5636 120.018 59.406 120.018 59.406C119.691 58.3966 119.736 57.4061 119.95 56.5223Z" fill="#00B09D"/>
</g>
<path d="M123.531 55.4385C122.969 55.6915 122.058 55.8377 121.53 55.8904C121.55 56.1766 121.927 58.1571 121.752 59.262C121.524 60.7 116.273 57.7903 116.462 56.7583C116.462 56.7583 117.874 54.1642 117.35 52.2764C117.35 52.2764 124.093 55.1856 123.531 55.4385Z" fill="#FFB98B"/>
<path opacity="0.33" d="M119.031 53.0183C119.03 53.0193 119.03 53.0207 119.029 53.0217C118.915 52.9671 118.791 52.9391 118.665 52.9536C118.203 53.0062 117.79 53.1636 117.457 53.4884C117.482 53.0738 117.458 52.6606 117.352 52.2769C117.352 52.2769 118.077 52.5897 119.031 53.0183Z" fill="#FFB98B"/>
<path opacity="0.33" d="M118.637 54.1377C118.637 54.1377 123.983 55.2349 123.53 55.4386C122.969 55.6915 122.058 55.8378 121.529 55.8904C119.523 55.3555 118.637 54.1377 118.637 54.1377Z" fill="#FFB98B"/>
<path d="M123.36 47.3127C123.968 48.519 123.92 54.5615 123.841 55.1677C123.791 55.5549 122.721 55.6113 121.965 55.4545C120.54 55.1581 118.959 54.3925 118.741 54.239C118.407 54.0044 118.292 53.1703 118.256 52.7315C117.945 52.9487 117.269 52.6123 117.065 51.9119C117.006 51.615 117.86 51.3375 118.228 51.45C118.507 51.755 118.7 52.1088 118.739 52.2681C118.399 49.746 120.515 49.5476 120.207 47.6048C120.058 46.6572 122.17 47.248 122.376 47.1404C122.582 47.0323 122.752 46.1064 123.36 47.3127Z" fill="#FFD2B3"/>
<path opacity="0.5" d="M112.232 70.1309C113.582 72.1037 117.975 74.2542 118.095 75.0332C118.215 75.8123 111.449 72.8741 111.269 75.0028C111.236 73.798 111.161 72.6897 111.031 71.8879C110.207 66.821 108.078 65.3497 107.707 65.5723C107.707 65.5723 110.161 63.7293 110.819 63.7732C111.478 63.8167 110.883 68.1581 112.232 70.1309Z" fill="#00B09D"/>
<path d="M127.763 35.8081L128.646 33.5399L127.149 32.4263L124.75 33.3014L123.926 35.3128L125.408 36.6055L127.763 35.8081Z" fill="#F4F3F3"/>
<path d="M124.07 35.1875L124.79 33.4314C124.806 33.3913 124.839 33.36 124.879 33.3455L127.057 32.5514C127.106 32.5336 127.16 32.5413 127.202 32.5727L128.449 33.5004C128.504 33.5415 128.525 33.6148 128.5 33.679L127.724 35.674C127.708 35.7165 127.673 35.7493 127.63 35.7638L125.511 36.4811C125.459 36.499 125.401 36.4874 125.36 36.4512L124.112 35.3617C124.062 35.3178 124.045 35.2483 124.07 35.1875Z" fill="white"/>
<path d="M123.926 35.313L122.598 37.0068L123.211 39.2354L124.924 39.0366L125.408 36.6057L123.926 35.313Z" fill="#070540"/>
<path d="M128.645 33.54L131.096 33.8986L131.637 33.2836C130.501 32.2922 129.081 31.8302 127.681 31.8756L127.148 32.4259L128.645 33.54Z" fill="#F4F3F3"/>
<path d="M127.784 31.9587C129.101 31.9389 130.37 32.3728 131.393 33.1905C131.461 33.2451 131.469 33.3459 131.411 33.4116L131.118 33.7442C131.084 33.7833 131.031 33.8026 130.98 33.7949L128.717 33.4637C128.692 33.4599 128.668 33.4502 128.648 33.4348L127.417 32.5196C127.343 32.464 127.334 32.3564 127.399 32.2898L127.673 32.006C127.703 31.977 127.743 31.9596 127.784 31.9587Z" fill="white"/>
<path d="M127.149 32.4263L127.682 31.876C126.529 31.9136 125.39 32.295 124.434 33.0108L124.75 33.3014L127.149 32.4263Z" fill="#070540"/>
<path d="M123.929 35.3132L124.754 33.3018L124.437 33.0112C124.126 33.2444 123.834 33.5118 123.567 33.8154C122.781 34.7079 122.327 35.7752 122.191 36.8704L122.6 37.0075L123.929 35.3132Z" fill="#F4F3F3"/>
<path d="M122.407 36.8522C122.336 36.8286 122.291 36.7567 122.303 36.6828C122.469 35.6397 122.925 34.6709 123.629 33.8711C123.841 33.6302 124.075 33.4062 124.325 33.204C124.384 33.1562 124.471 33.16 124.527 33.2117L124.571 33.2517C124.618 33.2952 124.633 33.3633 124.609 33.4226L123.86 35.2501C123.855 35.2632 123.847 35.2757 123.839 35.2868L122.635 36.8209C122.595 36.872 122.527 36.8928 122.465 36.872L122.407 36.8522Z" fill="white"/>
<path d="M122.6 37.0067L122.191 36.8696C122.019 38.2617 122.366 39.6978 123.21 40.8746L123.214 39.2354L122.6 37.0067Z" fill="#F4F3F3"/>
<path d="M122.835 40.0902C122.381 39.1943 122.178 38.1917 122.248 37.18C122.255 37.0805 122.357 37.0154 122.452 37.0472C122.5 37.0636 122.537 37.1027 122.551 37.152L123.123 39.2266C123.127 39.2401 123.128 39.2536 123.128 39.2676L123.126 40.0197C123.126 40.1804 122.908 40.2335 122.835 40.0902Z" fill="white"/>
<path d="M126.795 40.6691L125.859 39.8529L124.923 39.0366L123.211 39.2355L123.207 40.8748C123.46 41.2276 123.756 41.5578 124.097 41.8561C124.439 42.1539 124.806 42.4025 125.19 42.6057L126.822 42.3866L126.795 40.6691Z" fill="#F4F3F3"/>
<path d="M124.153 41.7916C123.847 41.5237 123.567 41.2205 123.323 40.8889C123.303 40.8619 123.292 40.8295 123.293 40.7962L123.296 39.448C123.296 39.3703 123.355 39.3047 123.433 39.296L124.828 39.1338C124.871 39.129 124.914 39.142 124.947 39.171L126.658 40.664C126.691 40.6924 126.71 40.7335 126.711 40.7769L126.733 42.1753C126.734 42.253 126.677 42.3196 126.599 42.3298L125.258 42.5103C125.224 42.5146 125.191 42.5089 125.161 42.4929C124.799 42.295 124.46 42.0595 124.153 41.7916Z" fill="white"/>
<path d="M129.637 37.4406L128.702 36.6244L127.766 35.8081L125.41 36.6055L124.926 39.0364L125.862 39.8527L126.797 40.6689L129.153 39.8715L129.637 37.4406Z" fill="#F4F3F3"/>
<path d="M125.034 38.9176L125.465 36.7575C125.475 36.7039 125.514 36.6595 125.566 36.6422L127.66 35.9331C127.712 35.9152 127.77 35.9268 127.811 35.963L129.474 37.414C129.516 37.4502 129.535 37.5057 129.524 37.5593L129.093 39.7194C129.082 39.773 129.044 39.8174 128.991 39.8348L126.898 40.5434C126.846 40.5612 126.788 40.5496 126.747 40.5134L125.084 39.0624C125.042 39.0267 125.024 38.9712 125.034 38.9176Z" fill="white"/>
<path d="M129.637 37.4406L131.778 36.2715L133.084 37.6023L132.528 40.0853L130.634 41.1642L129.152 39.8715L129.637 37.4406Z" fill="#F4F3F3"/>
<path d="M129.261 39.753L129.696 37.5673C129.705 37.5229 129.733 37.4843 129.773 37.4626L131.657 36.434C131.717 36.4007 131.793 36.4122 131.841 36.4615L132.929 37.5702C132.965 37.6074 132.98 37.6605 132.969 37.7107L132.465 39.9644C132.455 40.0064 132.428 40.0431 132.391 40.0644L130.737 41.0061C130.68 41.0385 130.608 41.0317 130.559 40.9883L129.31 39.8988C129.269 39.8621 129.25 39.8066 129.261 39.753Z" fill="white"/>
<path d="M131.099 33.8987L128.648 33.54L127.766 35.8083L128.702 36.6245L129.637 37.4408L131.779 36.2717L131.099 33.8987Z" fill="#070540"/>
<path d="M130.634 41.1643L129.123 42.6988L126.824 42.386L126.797 40.669L129.153 39.8716L130.634 41.1643Z" fill="#070540"/>
<path d="M131.777 36.2716L131.098 33.8986L131.639 33.2837C132.775 34.2752 133.421 35.6161 133.56 37.0039L133.083 37.6024L131.777 36.2716Z" fill="#F4F3F3"/>
<path d="M131.844 36.1905L131.217 34.0009C131.202 33.9507 131.215 33.8967 131.249 33.8576L131.542 33.525C131.6 33.4598 131.702 33.4536 131.765 33.5139C132.713 34.4166 133.312 35.6122 133.465 36.9145C133.47 36.9556 133.458 36.9971 133.432 37.0294L133.186 37.3379C133.128 37.4103 133.02 37.4156 132.955 37.3495L131.882 36.2557C131.863 36.2373 131.85 36.2146 131.844 36.1905Z" fill="white"/>
<path d="M133.083 37.6025L133.561 37.0039C133.676 38.1465 133.445 39.3209 132.859 40.3597L132.527 40.0855L133.083 37.6025Z" fill="#070540"/>
<path d="M130.632 41.1643L132.527 40.0859L132.858 40.3601C132.667 40.698 132.438 41.0219 132.172 41.325C131.387 42.2176 130.384 42.8069 129.312 43.084L129.121 42.6988L130.632 41.1643Z" fill="#F4F3F3"/>
<path d="M129.302 42.6376L130.671 41.2479C130.681 41.2377 130.692 41.229 130.704 41.2223L132.425 40.2424C132.481 40.2105 132.551 40.2168 132.6 40.2578L132.646 40.2955C132.704 40.3442 132.72 40.4287 132.68 40.4939C132.511 40.7676 132.32 41.0277 132.107 41.2691C131.403 42.0694 130.499 42.6472 129.483 42.9484C129.411 42.9697 129.333 42.9349 129.3 42.8678L129.273 42.8137C129.245 42.7544 129.256 42.6839 129.302 42.6376Z" fill="white"/>
<path d="M129.121 42.6985L129.312 43.0837C127.948 43.4366 126.474 43.2826 125.191 42.6054L126.822 42.3862L129.121 42.6985Z" fill="#F4F3F3"/>
<path d="M126.845 42.4745L128.985 42.7656C129.036 42.7724 129.08 42.8042 129.103 42.8501C129.147 42.9399 129.095 43.049 128.997 43.0687C128 43.271 126.976 43.2025 126.026 42.8737C125.872 42.8206 125.895 42.5967 126.056 42.5754L126.803 42.475C126.817 42.4726 126.831 42.4726 126.845 42.4745Z" fill="white"/>
</svg>
