<svg width="99" height="150" viewBox="0 0 99 150" fill="none" xmlns="http://www.w3.org/2000/svg">
<g opacity="0.32">
<path d="M38.6132 103.916C38.9062 103.825 39.1992 103.731 39.4687 103.623C46.1663 101.262 51.6874 96.3963 54.8708 90.0484C58.0541 83.7004 58.6516 76.3653 56.5375 69.5859C54.4234 62.8065 49.7625 57.1111 43.5352 53.6978C37.308 50.2845 29.9996 49.4192 23.1474 51.284C22.8544 51.3631 22.5615 51.448 22.2832 51.5389C18.844 52.6111 15.6498 54.3503 12.8828 56.657C10.1158 58.9637 7.83023 61.7928 6.15659 64.9829C4.48296 68.1729 3.45403 71.6613 3.12857 75.249C2.8031 78.8366 3.18747 82.4533 4.25972 85.8924C5.33197 89.3315 7.0711 92.5258 9.37782 95.2928C11.6845 98.0598 14.5137 100.345 17.7037 102.019C24.1462 105.399 31.6676 106.081 38.6132 103.916Z" fill="#C8C5CC"/>
<path d="M21.9028 80.3643L25.6177 69.3809L37.2134 69.5215L40.6645 80.5928L31.2016 87.293L21.9028 80.3643ZM8.61961 94.3359L12.3315 83.3643L3.04148 76.4648C2.74671 82.8972 4.71642 89.2293 8.60789 94.3594L8.61961 94.3359ZM51.7944 94.9219C55.8267 89.8981 57.9659 83.6174 57.8384 77.1768L57.7387 77.1035L48.2524 83.8242L51.7095 94.9219H51.7944ZM38.6108 103.916C38.9038 103.825 39.1968 103.731 39.4663 103.623V103.591L30.144 96.6445L20.6753 103.351C26.4195 105.554 32.7392 105.753 38.6108 103.916ZM19.4565 62.3174L23.1802 51.3047L23.1538 51.2842C22.8608 51.3633 22.5678 51.4482 22.2895 51.5391C16.4167 53.3586 11.3298 57.1067 7.85203 62.1768L19.4565 62.3174ZM53.2651 62.7393L53.3032 62.6221C49.7486 57.2493 44.42 53.2956 38.2475 51.4512L38.1802 51.501L41.6372 62.5986L53.2651 62.7393Z" fill="#58575D"/>
<path d="M62.6562 122.713C62.6603 123.636 62.8663 124.547 63.2597 125.382C63.4833 125.865 63.7511 126.327 64.0595 126.762C64.8253 127.786 65.8154 128.622 66.9541 129.205C71.6738 131.783 79.5107 131.962 83.2812 129.302L127.183 98.3203L130.807 95.7656L136.874 91.4824C144.14 86.3584 142.382 76.6904 137.729 69.0293L137.703 68.9912L135.216 65.3467L130.528 58.7842L129.257 59.2324L105.181 67.7285L103.812 73.8809L99.7695 72.3018L96.1748 70.8984L92.2666 78.1465L90.1806 82.0166L87.8135 86.4111L85.9326 89.8975C85.8623 90.0234 85.792 90.1494 85.7187 90.2754C85.0058 91.5371 84.2646 92.793 83.4951 94.043C82.7256 95.293 81.9297 96.5293 81.1074 97.752C79.791 99.7051 78.414 101.62 76.9765 103.497C73.666 107.803 70.0429 111.858 66.1367 115.632C64.0859 117.979 62.6562 120.299 62.6562 122.713Z" fill="#BCFDDC"/>
<path d="M96.8701 85.3066C97.3601 85.3076 97.8365 85.1449 98.2234 84.8441C98.6103 84.5434 98.8855 84.122 99.0054 83.6469C99.1253 83.1717 99.0829 82.6701 98.885 82.2219C98.6871 81.7736 98.345 81.4043 97.9131 81.1728L89.7949 76.7988C89.2817 76.5222 88.6796 76.4607 88.1212 76.628C87.5627 76.7953 87.0935 77.1776 86.8169 77.6909C86.5403 78.2041 86.4789 78.8061 86.6462 79.3646C86.8135 79.9231 87.1958 80.3923 87.709 80.6689L95.8301 85.0429C96.1495 85.2159 96.5069 85.3065 96.8701 85.3066ZM92.5283 93.6328C93.0183 93.6338 93.4947 93.4711 93.8816 93.1703C94.2685 92.8696 94.5437 92.4482 94.6636 91.973C94.7835 91.4979 94.7411 90.9963 94.5432 90.548C94.3453 90.0998 94.0032 89.7305 93.5713 89.499L85.4531 85.1249C84.9413 84.8601 84.346 84.8069 83.7954 84.9767C83.2447 85.1466 82.7829 85.526 82.5093 86.0332C82.2357 86.5404 82.1724 87.1347 82.3328 87.6882C82.4933 88.2417 82.8648 88.7099 83.3672 88.9921L91.4883 93.3691C91.8077 93.542 92.1651 93.6326 92.5283 93.6328ZM88.8721 101.616C89.3611 101.616 89.8361 101.453 90.2219 101.152C90.6076 100.852 90.8821 100.431 91.0018 99.9568C91.1215 99.4826 91.0796 98.9821 90.8828 98.5344C90.6859 98.0868 90.3454 97.7176 89.915 97.4853L81.7969 93.1083C81.2869 92.8578 80.6997 92.8145 80.1585 92.9876C79.6173 93.1607 79.1643 93.5367 78.8944 94.0367C78.6245 94.5367 78.5587 95.1218 78.711 95.6692C78.8632 96.2166 79.2216 96.6838 79.7109 96.9726L87.832 101.367C88.1527 101.535 88.5101 101.621 88.8721 101.616ZM65.3848 125.007C67.4561 124.96 75.8789 121.523 86.3291 114.404C97.4619 106.828 104.971 99.0732 106.45 93.6445C106.568 93.1623 106.842 92.7329 107.23 92.4237C107.619 92.1145 108.098 91.9431 108.595 91.9365C108.931 91.938 109.262 92.0164 109.563 92.1657C109.865 92.315 110.128 92.5313 110.332 92.7979C110.537 93.0646 110.678 93.3745 110.745 93.7041C110.811 94.0336 110.801 94.374 110.716 94.6992C107.051 108.562 76.8428 127.207 66.9551 129.199C65.8164 128.616 64.8263 127.78 64.0605 126.756C63.7521 126.321 63.4843 125.86 63.2607 125.376C64.1865 125.016 65.0713 124.772 65.3848 125.007ZM127.025 98.0536C127.072 98.1459 127.125 98.2349 127.184 98.3203L130.808 95.7656C129.841 93.2715 129.389 90.6078 129.478 87.9345C129.615 81.4716 132.39 75.1142 137.73 69.0292L137.704 68.9912L135.217 65.3466C135.086 65.4387 134.966 65.5459 134.859 65.666C126.885 74.5312 125.145 82.7812 125.089 88.1425C125.019 94.0663 126.943 97.8954 127.025 98.0536ZM42.9023 139.277C45.9805 139.277 49.3857 138.628 53.1182 137.329C53.6687 137.137 54.1204 136.734 54.3739 136.209C54.6275 135.684 54.6621 135.08 54.4702 134.53C54.2783 133.979 53.8755 133.528 53.3506 133.274C52.8256 133.02 52.2214 132.986 51.6709 133.178C45.2256 135.425 40.1104 135.451 36.4365 133.263C32.9209 131.168 30.6475 126.996 29.6572 120.855C29.6199 120.563 29.5242 120.281 29.3758 120.027C29.2273 119.772 29.0292 119.55 28.7932 119.374C28.5571 119.197 28.288 119.07 28.0018 119C27.7157 118.929 27.4183 118.917 27.1273 118.964C26.8364 119.011 26.5579 119.116 26.3084 119.273C26.0589 119.43 25.8435 119.635 25.675 119.877C25.5065 120.119 25.3884 120.392 25.3276 120.68C25.2668 120.969 25.2647 121.266 25.3213 121.556C26.5254 129.038 29.5078 134.247 34.1865 137.036C36.6914 138.53 39.6064 139.277 42.9023 139.277Z" fill="#3C3B41"/>
<path d="M99.4141 73.8662L99.7656 72.2871L96.1768 70.8838L99.4141 73.8662Z" fill="#169DA3"/>
</g>
</svg>
