<svg width="28" height="28" viewBox="0 0 28 28" fill="none" xmlns="http://www.w3.org/2000/svg">
<circle cx="14" cy="14" r="14" fill="#F3F3F4"/>
<g clip-path="url(#clip0_4226_17864)">
<path d="M20.8425 7.33086C20.6887 7.1175 20.4421 7 20.1482 7C20.0103 7 19.8623 7.026 19.7086 7.07727L7.8024 11.046C7.39115 11.1831 7.1077 11.4632 7.02471 11.8146C6.94172 12.1661 7.06994 12.5435 7.37649 12.8501C7.40646 12.8801 7.44091 12.9053 7.47859 12.9247L12.4913 15.5086L15.0753 20.5213C15.0947 20.559 15.1199 20.5934 15.1498 20.6234C15.3962 20.8698 15.6803 21 15.9715 21H15.9716C16.4126 21 16.789 20.6925 16.9539 20.1975L20.9227 8.29131C21.0475 7.91686 21.019 7.57578 20.8425 7.33086ZM7.82307 12.0032C7.83876 11.9366 7.93025 11.8681 8.06178 11.8242L19.3625 8.0573L12.7175 14.7023L7.91762 12.2281C7.84532 12.1436 7.80959 12.0603 7.82307 12.0032ZM16.1757 19.9381C16.1368 20.0549 16.0627 20.1797 15.9716 20.1797C15.9163 20.1797 15.844 20.1439 15.7719 20.0822L13.2976 15.2823L19.9428 8.63718L16.1757 19.9381Z" fill="black"/>
</g>
<defs>
<clipPath id="clip0_4226_17864">
<rect width="14" height="14" fill="white" transform="translate(7 7)"/>
</clipPath>
</defs>
</svg>
