<svg width="86" height="19" viewBox="0 0 86 19" fill="none" xmlns="http://www.w3.org/2000/svg">
<path d="M9 2L11.3175 6.695L16.5 7.4525L12.75 11.105L13.635 16.265L9 13.8275L4.365 16.265L5.25 11.105L1.5 7.4525L6.6825 6.695L9 2Z" fill="#FFC107"/>
<path d="M26 2L28.3175 6.695L33.5 7.4525L29.75 11.105L30.635 16.265L26 13.8275L21.365 16.265L22.25 11.105L18.5 7.4525L23.6825 6.695L26 2Z" fill="#FFC107"/>
<path d="M43 2L45.3175 6.695L50.5 7.4525L46.75 11.105L47.635 16.265L43 13.8275L38.365 16.265L39.25 11.105L35.5 7.4525L40.6825 6.695L43 2Z" fill="#FFC107"/>
<path d="M60 2L62.3175 6.695L67.5 7.4525L63.75 11.105L64.635 16.265L60 13.8275L55.365 16.265L56.25 11.105L52.5 7.4525L57.6825 6.695L60 2Z" fill="#FFC107"/>
<path d="M77 2L79.3175 6.695L84.5 7.4525L80.75 11.105L81.635 16.265L77 13.8275L72.365 16.265L73.25 11.105L69.5 7.4525L74.6825 6.695L77 2Z" fill="#FFC107"/>
</svg>
