<svg width="17" height="20" viewBox="0 0 17 20" fill="none" xmlns="http://www.w3.org/2000/svg">
<path d="M1.85252 16.2949C0.8291 16.2949 0 17.124 0 18.1474C0 19.1708 0.8291 19.9999 1.85252 19.9999C2.87595 19.9999 3.70289 19.1708 3.70289 18.1474C3.70289 17.124 2.87379 16.2949 1.85252 16.2949ZM0.410232 19.1427C0.239661 18.9074 0.127387 18.631 0.0928407 18.3352L0.427509 18.3849L0.552735 19.0391L0.412393 19.1427H0.410232ZM0.960812 16.6209L0.872287 16.8605L0.617506 16.8757C0.721144 16.7785 0.835583 16.6921 0.960812 16.6209ZM0.978082 17.0527C0.978082 17.0527 1.36456 16.9426 1.859 16.9059C1.859 16.9059 2.14401 17.2902 2.35129 17.7566C2.35129 17.7566 1.68196 18.4 1.51139 18.5101C1.51139 18.5101 0.90683 18.128 0.686599 18.007C0.686599 18.007 0.753533 17.4219 0.978082 17.0527ZM2.64276 19.6739C2.35128 19.8229 2.01662 19.892 1.66684 19.8596C1.58048 19.8509 1.49627 19.8358 1.41422 19.8164L1.21343 19.5206L1.68411 18.9743L2.65572 19.363C2.65572 19.363 2.66004 19.5249 2.64061 19.6739H2.64276ZM2.0231 16.6166C2.0231 16.6166 1.96049 16.5021 1.88492 16.3899C1.92594 16.3899 1.96696 16.392 2.01014 16.3963C2.27787 16.4222 2.52401 16.5065 2.73993 16.6338C2.73129 16.6338 2.24333 16.649 2.0231 16.6166ZM3.49778 18.7044L3.16743 18.7843L2.91481 17.9336C2.99254 17.8559 3.29914 17.4327 3.29914 17.4327L3.51505 17.5968C3.5863 17.8149 3.61437 18.0524 3.59062 18.2964C3.57551 18.4389 3.54528 18.5749 3.49778 18.7044Z" fill="#1A202C"/>
<path d="M8.10738 11.9184C8.09011 11.4261 8.1592 10.9274 8.09011 10.4416C6.23758 10.7547 3.98994 12.0026 3.64664 13.8249C3.49982 14.5979 3.60561 15.3795 3.80641 16.133C3.91869 16.5497 4.04824 16.9621 4.15835 17.381C4.31165 17.9618 4.49301 18.5772 4.44983 19.1839C4.43471 19.3955 4.37642 19.9655 4.68302 19.5466C4.79529 19.3955 4.83631 19.1817 4.87517 19.0025C5.07165 18.0719 5.05006 17.0787 4.98961 16.1352C4.93563 15.3039 4.97882 14.2092 5.59633 13.5766C6.23975 12.9181 7.18976 12.7993 8.05772 12.6892C8.10091 12.6849 8.14409 12.6784 8.18727 12.6741C8.14409 12.4258 8.11602 12.1732 8.10738 11.9206V11.9184Z" fill="#1A202C"/>
<path d="M7.98995 2.2607C7.98995 3.50867 6.97732 4.52129 5.72935 4.52129C4.48138 4.52129 3.46875 3.50867 3.46875 2.2607C3.46875 1.01273 4.48138 9.15527e-05 5.72935 9.15527e-05C6.97732 9.15527e-05 7.98995 1.01273 7.98995 2.2607Z" fill="#1A202C"/>
<path d="M11.9852 7.42981C12.1903 8.24596 12.2465 9.69904 13.2354 9.92143C13.2526 9.89768 13.2656 9.86313 13.2699 9.82211C13.2807 9.74654 13.2613 9.63859 13.203 9.49177C13.0669 9.15495 12.9633 8.88721 12.9611 8.51584C12.9547 7.76231 12.8921 6.98503 12.5984 6.28332C11.968 4.78273 10.0614 3.67941 8.44858 3.86078C8.29961 3.87805 8.14199 3.90612 7.98438 3.94715C8.05131 3.97305 8.11824 4.00113 8.18086 4.03135C8.63859 4.18033 9.04234 4.50203 9.377 4.84317C9.37916 4.84533 9.38348 4.84966 9.38564 4.85182C9.57781 5.03102 9.75486 5.22751 9.92111 5.43478C10.8798 5.74354 11.7326 6.42366 11.9874 7.43197L11.9852 7.42981Z" fill="#1A202C"/>
<path d="M6.75799 6.82307C6.79037 6.78637 6.82492 6.75181 6.86163 6.71943C7.12936 6.4776 7.39709 6.24658 7.57846 5.92919C7.83755 5.47362 7.94551 4.81508 7.33448 4.59053C6.45571 4.26667 5.89218 5.50817 5.48627 6.05443C4.81478 6.95694 3.80215 7.53774 3.15657 8.46832C2.79168 8.99299 2.54338 9.59106 2.40952 10.2172C2.3685 10.4137 2.32099 10.6447 2.34043 10.8477C2.37497 11.2104 2.61031 10.8693 2.6902 10.7181C2.8543 10.4094 3.02487 10.1136 3.23646 9.83504C3.60999 9.34276 4.06556 8.91741 4.54057 8.52661C5.12569 8.04513 5.92025 7.49023 6.50969 7.01522C6.58742 6.95261 6.67163 6.89 6.75583 6.82738L6.75799 6.82307Z" fill="#1A202C"/>
<path d="M16.0449 18.9873C16.019 18.5685 15.9218 18.1172 15.775 17.7372C15.5504 17.1586 15.1791 16.8282 14.6674 16.4914C13.4647 15.7033 11.6252 15.4572 11.0077 13.9911C10.7399 13.352 10.7248 12.646 10.8932 11.9788C11.0573 11.3225 11.4093 10.7201 11.4589 10.0356C11.541 8.89777 11.0724 7.75992 10.5607 6.76888C10.2736 6.21398 9.94536 5.66988 9.53945 5.19487C9.36456 4.98975 9.17456 4.79544 8.96728 4.62055C8.42318 4.16282 7.78624 3.88212 7.12555 4.2902C7.0651 4.3269 7.00896 4.36578 6.95066 4.4068C6.9593 4.4068 6.9701 4.41111 6.97873 4.41327C7.36306 4.40895 7.82295 4.42839 7.93738 4.87749C7.96977 5.00703 7.97624 5.13658 7.96113 5.26396C7.95249 5.55113 7.82727 5.85557 7.67181 6.08012C7.34578 6.55297 6.90964 7.00206 6.38281 7.25036C6.54475 7.5807 7.00896 8.11401 7.08669 8.20038C7.41272 8.56959 7.76249 8.928 7.95897 9.3879C8.41023 10.4394 8.15977 11.6096 8.33898 12.7086C8.52034 13.8206 9.14649 14.8807 10.036 15.5695C10.9774 16.2971 12.1779 16.7635 13.279 17.1888C14.2809 17.5753 15.3756 18.1367 15.8722 19.132C15.8851 19.1687 15.9002 19.2076 15.9132 19.2465C15.9175 19.2616 15.9261 19.268 15.9348 19.2724C15.9477 19.3026 15.9607 19.3306 15.9736 19.363C16.0017 19.4386 16.1248 19.3436 16.1118 19.281C16.0902 19.1817 16.0686 19.0845 16.0492 18.9873H16.0449Z" fill="#1A202C"/>
</svg>
