<svg width="12" height="12" viewBox="0 0 12 12" fill="none" xmlns="http://www.w3.org/2000/svg">
<path d="M9.03367 4.25482L4.75367 2.11482C1.87867 0.674823 0.698667 1.85482 2.13867 4.72982L2.57367 5.59982C2.69867 5.85482 2.69867 6.14982 2.57367 6.40482L2.13867 7.26982C0.698667 10.1448 1.87367 11.3248 4.75367 9.88482L9.03367 7.74482C10.9537 6.78482 10.9537 5.21482 9.03367 4.25482ZM7.41867 6.37482H4.71867C4.51367 6.37482 4.34367 6.20482 4.34367 5.99982C4.34367 5.79482 4.51367 5.62482 4.71867 5.62482H7.41867C7.62367 5.62482 7.79367 5.79482 7.79367 5.99982C7.79367 6.20482 7.62367 6.37482 7.41867 6.37482Z" fill="white"/>
</svg>
