<svg width="20" height="20" viewBox="0 0 20 20" fill="none" xmlns="http://www.w3.org/2000/svg">
<g clip-path="url(#clip0_4226_17425)">
<mask id="mask0_4226_17425" style="mask-type:luminance" maskUnits="userSpaceOnUse" x="0" y="0" width="20" height="20">
<path d="M0 0H20V20H0V0Z" fill="white"/>
</mask>
<g mask="url(#mask0_4226_17425)">
<path fill-rule="evenodd" clip-rule="evenodd" d="M6.03244 4.8627L6.07564 4.86718C6.25733 4.88607 6.43839 4.9049 6.61849 4.90306C7.42842 4.89478 8.20377 4.57362 8.78236 4.00677C8.91094 3.88072 9.02569 3.73937 9.14086 3.59754L9.16819 3.56382C9.32536 3.37046 9.42386 3.24953 9.50136 3.16048C9.56702 3.08503 9.59219 3.06246 9.59427 3.06057C9.82894 2.86913 10.1659 2.86913 10.4005 3.06056C10.4026 3.06241 10.4277 3.08497 10.4934 3.16048C10.5709 3.24953 10.6694 3.37046 10.8266 3.56382L10.854 3.59755C10.9691 3.73937 11.0839 3.88072 11.2124 4.00677C11.791 4.57362 12.5664 4.89478 13.3763 4.90306C13.5564 4.9049 13.7374 4.88607 13.9191 4.86718L13.9624 4.8627C14.2102 4.8371 14.3654 4.82124 14.4831 4.81307C14.5829 4.80614 14.6167 4.80796 14.6195 4.80813C14.9208 4.83868 15.159 5.07692 15.1896 5.3782C15.1898 5.38092 15.1916 5.41462 15.1847 5.51458C15.1764 5.63234 15.1606 5.78751 15.135 6.03537L15.1305 6.07852C15.1117 6.26021 15.0929 6.44132 15.0947 6.62142C15.1029 7.43135 15.4241 8.2067 15.9909 8.78524C16.117 8.91391 16.2584 9.02857 16.4001 9.14374L16.4339 9.17116C16.6273 9.32832 16.7482 9.42682 16.8373 9.50424C16.9124 9.56974 16.9351 9.59491 16.9371 9.59716C17.1286 9.83182 17.1286 10.1688 16.9371 10.4035C16.9351 10.4057 16.9124 10.4309 16.8373 10.4964C16.7482 10.5738 16.6273 10.6723 16.4339 10.8295L16.4002 10.8569C16.2584 10.9721 16.117 11.0867 15.9909 11.2154C15.4241 11.7939 15.1029 12.5693 15.0947 13.3792C15.0929 13.5593 15.1117 13.7404 15.1305 13.9221L15.135 13.9653C15.1606 14.2132 15.1764 14.3683 15.1847 14.4861C15.1916 14.5862 15.1898 14.6198 15.1896 14.6225C15.159 14.9237 14.9208 15.162 14.6195 15.1925C14.6169 15.1927 14.5833 15.1945 14.4831 15.1876C14.3654 15.1794 14.2102 15.1636 13.9624 15.138L13.9191 15.1335C13.7374 15.1146 13.5564 15.0957 13.3763 15.0976C12.5664 15.1059 11.791 15.427 11.2124 15.9939C11.0839 16.1199 10.9691 16.2612 10.854 16.4031L10.8266 16.4368C10.6694 16.6302 10.5709 16.7512 10.4934 16.8402C10.428 16.9154 10.4028 16.9381 10.4005 16.9401C10.1659 17.1315 9.82894 17.1315 9.59427 16.9401C9.59202 16.9381 9.56677 16.9154 9.50136 16.8402C9.42386 16.7512 9.32536 16.6302 9.16819 16.4368L9.14086 16.4032C9.02569 16.2613 8.91102 16.1199 8.78236 15.9939C8.20377 15.427 7.42842 15.1059 6.61849 15.0976C6.4384 15.0957 6.25733 15.1146 6.07565 15.1335L6.03244 15.138C5.78458 15.1636 5.62942 15.1794 5.51166 15.1876C5.41165 15.1945 5.37797 15.1927 5.37527 15.1925C5.074 15.162 4.83576 14.9237 4.8052 14.6224C4.80503 14.6196 4.80322 14.5858 4.81014 14.4861C4.81832 14.3683 4.83417 14.2132 4.85977 13.9653L4.86425 13.9221C4.88314 13.7404 4.90197 13.5593 4.90013 13.3792C4.89185 12.5693 4.57069 11.7939 4.00383 11.2154C3.8778 11.0867 3.73646 10.9721 3.59464 10.8569L3.5609 10.8295C3.36754 10.6723 3.2466 10.5738 3.15756 10.4964C3.08205 10.4307 3.05949 10.4055 3.05763 10.4034C2.86621 10.1688 2.86621 9.83182 3.05763 9.59724C3.05949 9.59516 3.08204 9.56999 3.15756 9.50424C3.2466 9.42682 3.36754 9.32832 3.5609 9.17116L3.59462 9.14374C3.73645 9.02866 3.87779 8.91391 4.00383 8.78524C4.57069 8.2067 4.89185 7.43135 4.90013 6.62142C4.90197 6.44132 4.88314 6.26026 4.86425 6.07857L4.85977 6.03537C4.83417 5.78751 4.81832 5.63234 4.81014 5.51458C4.80322 5.4148 4.80503 5.38106 4.8052 5.37822C4.83576 5.07693 5.07401 4.83868 5.37529 4.80813C5.37813 4.80796 5.41188 4.80614 5.51166 4.81307C5.62942 4.82124 5.78458 4.8371 6.03244 4.8627ZM3.05763 10.4034C3.05759 10.4034 3.05765 10.4034 3.05763 10.4034V10.4034ZM5.37527 15.1925C5.37517 15.1925 5.37528 15.1925 5.37527 15.1925V15.1925ZM10.4005 16.9401C10.4004 16.9402 10.4007 16.9399 10.4005 16.9401V16.9401ZM14.6195 4.80813C14.6195 4.80812 14.6196 4.80813 14.6195 4.80813V4.80813ZM8.19819 2.77542C8.50184 2.40185 8.65369 2.21504 8.80227 2.09347C9.49761 1.52483 10.4972 1.52483 11.1925 2.09347C11.3411 2.21504 11.4929 2.40182 11.7966 2.77539C11.9395 2.95117 12.0109 3.0391 12.0873 3.11389C12.4354 3.45492 12.9018 3.64814 13.3891 3.65312C13.4959 3.65421 13.6086 3.64258 13.8339 3.61931C14.3129 3.56986 14.5523 3.54513 14.7434 3.56427C15.637 3.65381 16.3439 4.36067 16.4334 5.2544C16.4526 5.44547 16.4279 5.6849 16.3784 6.16377C16.3551 6.3891 16.3435 6.50177 16.3446 6.60864C16.3496 7.09592 16.5428 7.56238 16.8839 7.91046C16.9586 7.98679 17.0465 8.05822 17.2223 8.20109C17.5959 8.50471 17.7827 8.65657 17.9043 8.80524C18.4729 9.50049 18.4729 10.5002 17.9043 11.1954C17.7827 11.3441 17.5959 11.4959 17.2223 11.7995C17.0465 11.9423 16.9586 12.0138 16.8839 12.0902C16.5428 12.4382 16.3496 12.9047 16.3446 13.392C16.3435 13.4989 16.3551 13.6116 16.3784 13.8369C16.4279 14.3157 16.4526 14.5552 16.4334 14.7462C16.3439 15.64 15.637 16.3468 14.7434 16.4364C14.5523 16.4555 14.3129 16.4308 13.8339 16.3813C13.6086 16.3581 13.4959 16.3464 13.3891 16.3475C12.9018 16.3525 12.4354 16.5457 12.0873 16.8867C12.0109 16.9616 11.9395 17.0494 11.7966 17.2252C11.4929 17.5987 11.3411 17.7856 11.1925 17.9072C10.4972 18.4758 9.49761 18.4758 8.80227 17.9072C8.65369 17.7856 8.50186 17.5988 8.1982 17.2252C8.05539 17.0496 7.98385 16.9616 7.90752 16.8867C7.55946 16.5457 7.09298 16.3525 6.60572 16.3475C6.49884 16.3464 6.38617 16.3581 6.16083 16.3813C5.68197 16.4308 5.44254 16.4555 5.25147 16.4364C4.35775 16.3468 3.65088 15.64 3.56135 14.7462C3.54221 14.5552 3.56693 14.3157 3.61638 13.8369C3.63965 13.6116 3.65128 13.4989 3.65019 13.392C3.64522 12.9047 3.452 12.4382 3.11097 12.0902C3.03617 12.0138 2.94828 11.9424 2.7725 11.7996C2.39893 11.496 2.21212 11.3441 2.09055 11.1954C1.5219 10.5002 1.5219 9.50049 2.09055 8.80524C2.21212 8.65657 2.3989 8.50474 2.77247 8.20113C2.94826 8.05825 3.03617 7.9868 3.11097 7.91046C3.452 7.56238 3.64522 7.09592 3.65019 6.60864C3.65128 6.50177 3.63965 6.3891 3.61638 6.16377C3.56693 5.68492 3.54221 5.44547 3.56135 5.2544C3.65088 4.36067 4.35775 3.65381 5.25147 3.56427C5.44254 3.54513 5.68197 3.56986 6.16082 3.61931C6.38615 3.64258 6.49884 3.65421 6.60572 3.65312C7.09299 3.64814 7.55946 3.45492 7.90752 3.11389C7.98387 3.0391 8.05531 2.9512 8.19819 2.77542ZM12.9394 8.77557C13.1835 8.53149 13.1835 8.13579 12.9394 7.89172C12.6954 7.64764 12.2997 7.64764 12.0556 7.89172L9.16419 10.7831L7.93947 9.55841C7.69539 9.31432 7.29966 9.31432 7.05558 9.55841C6.81151 9.80249 6.81151 10.1982 7.05558 10.4422L8.72227 12.1089C8.96636 12.353 9.36202 12.353 9.60611 12.1089L12.9394 8.77557Z" fill="#505050"/>
</g>
</g>
<defs>
<clipPath id="clip0_4226_17425">
<rect width="20" height="20" fill="white"/>
</clipPath>
</defs>
</svg>
