<svg width="28" height="28" viewBox="0 0 28 28" fill="none" xmlns="http://www.w3.org/2000/svg">
<circle cx="14" cy="14" r="14" fill="#F3F3F4"/>
<g clip-path="url(#clip0_4226_17868)">
<path d="M14 20.2211C13.8007 20.2211 13.6085 20.1489 13.4588 20.0178C12.8932 19.5232 12.3479 19.0585 11.8669 18.6485L11.8644 18.6464C10.454 17.4445 9.23599 16.4065 8.38855 15.384C7.44124 14.2409 7 13.157 7 11.973C7 10.8227 7.39445 9.7614 8.11063 8.98456C8.83534 8.19853 9.82976 7.76562 10.911 7.76562C11.7191 7.76562 12.4592 8.02112 13.1107 8.52495C13.4395 8.77927 13.7375 9.09052 14 9.45357C14.2626 9.09052 14.5605 8.77927 14.8894 8.52495C15.5409 8.02112 16.281 7.76562 17.0891 7.76562C18.1702 7.76562 19.1648 8.19853 19.8895 8.98456C20.6057 9.7614 21 10.8227 21 11.973C21 13.157 20.5589 14.2409 19.6116 15.3839C18.7641 16.4065 17.5462 17.4444 16.136 18.6462C15.6541 19.0568 15.108 19.5223 14.5411 20.018C14.3915 20.1489 14.1992 20.2211 14 20.2211ZM10.911 8.58572C10.0615 8.58572 9.28117 8.92474 8.71347 9.54041C8.13733 10.1654 7.81999 11.0293 7.81999 11.973C7.81999 12.9688 8.19009 13.8594 9.01991 14.8607C9.82196 15.8285 11.0149 16.8451 12.3962 18.0223L12.3988 18.0244C12.8817 18.436 13.4291 18.9025 13.9988 19.4007C14.572 18.9016 15.1202 18.4343 15.6041 18.0221C16.9853 16.8449 18.1781 15.8285 18.9802 14.8607C19.8099 13.8594 20.18 12.9688 20.18 11.973C20.18 11.0293 19.8627 10.1654 19.2865 9.54041C18.7189 8.92474 17.9385 8.58572 17.0891 8.58572C16.4668 8.58572 15.8955 8.78354 15.391 9.17361C14.9414 9.52139 14.6283 9.96103 14.4447 10.2686C14.3502 10.4268 14.184 10.5213 14 10.5213C13.816 10.5213 13.6498 10.4268 13.5553 10.2686C13.3718 9.96103 13.0587 9.52139 12.609 9.17361C12.1045 8.78354 11.5332 8.58572 10.911 8.58572Z" fill="black"/>
</g>
<defs>
<clipPath id="clip0_4226_17868">
<rect width="14" height="14" fill="white" transform="translate(7 7)"/>
</clipPath>
</defs>
</svg>
